<svg width="460" height="492" viewBox="0 0 460 492" fill="none" xmlns="http://www.w3.org/2000/svg">
<g clip-path="url(#clip0_488_34756)">
<path d="M299.515 0H143.468V200H299.515V0Z" fill="#F2F2F2"/>
<path d="M288.99 12.0527H153.686V97.5587H288.99V12.0527Z" fill="white"/>
<path d="M288.991 94.0527H153.684V185.697H288.991V94.0527Z" fill="white"/>
<path d="M224.852 11.6133H217.823V97.5575H224.852V11.6133Z" fill="#F2F2F2"/>
<path d="M288.99 11.6133H281.961V97.5575H288.99V11.6133Z" fill="#F2F2F2"/>
<path d="M288.99 90.543H153.686V97.5586H288.99V90.543Z" fill="#F2F2F2"/>
<path d="M172.807 58.0957L160.714 66.2091V72.9215L179.033 58.0957H172.807Z" fill="white"/>
<path d="M192.731 58.0947L160.714 83.1126V88.8311L202.444 58.0938L192.731 58.0947Z" fill="#F2F2F2"/>
<path d="M160.714 11.6133H153.686V97.5575H160.714V11.6133Z" fill="#F2F2F2"/>
<path d="M269.439 18.631L242.424 52.8333L250.771 53.7089L274.053 17.3145L269.439 18.631Z" fill="#F2F2F2"/>
<path d="M288.99 11.6133H153.686V18.6289H288.99V11.6133Z" fill="#F2F2F2"/>
<path d="M288.99 51.0781H153.686V58.0938H288.99V51.0781Z" fill="#F2F2F2"/>
<path d="M218.561 212.538C220.136 211.501 221.943 210.865 223.822 210.686L239.598 199.049L245.182 206.949L228.57 217.908C227.637 219.536 226.312 220.908 224.716 221.898C220.756 224.437 216.171 224.397 214.473 221.81C212.774 219.223 214.593 215.075 218.545 212.542L218.558 212.544L218.561 212.538Z" fill="#9F616A"/>
<path d="M225.523 209.21L232.566 218.047L268.968 190.543L269 190.48L290.272 150.855C291.151 149.218 291.683 147.419 291.838 145.569C291.992 143.718 291.765 141.856 291.171 140.096C290.576 138.337 289.627 136.718 288.381 135.339C287.135 133.96 285.62 132.85 283.928 132.079C282.236 131.307 280.403 130.89 278.543 130.852C276.684 130.815 274.836 131.159 273.114 131.862C271.392 132.565 269.833 133.613 268.533 134.94C267.233 136.268 266.219 137.848 265.554 139.582L251.752 175.639L225.522 209.196V209.209L225.523 209.21Z" fill="#FFD863"/>
<path d="M285.469 117.561H270.629V141.06L286.99 135.693L285.469 117.561Z" fill="#9F616A"/>
<path d="M256.354 107.792C256.355 103.477 258.073 99.3389 261.13 96.288C264.187 93.237 268.333 91.5232 272.656 91.5234C276.979 91.5237 281.125 93.238 284.182 96.2893C287.238 99.3406 288.956 103.479 288.956 107.794C288.956 112.109 287.238 116.247 284.182 119.299C281.125 122.35 276.979 124.064 272.656 124.065C268.333 124.065 264.187 122.351 261.13 119.3C258.073 116.249 256.355 112.111 256.354 107.796V107.792Z" fill="#9F616A"/>
<path d="M283.876 118.512L285.675 121.409L291.745 107.631C295.057 94.4451 279.808 88.0717 279.808 88.0717C274.604 82.7583 265.41 90.0432 265.41 90.0432C251.26 87.9302 258.812 99.1793 258.812 99.1793C258.812 99.1793 263.57 98.951 263.839 102.787C264.109 106.622 269.267 105.995 269.267 105.995L273.821 112.795L275.87 109.921C283.951 105.818 283.878 118.513 283.878 118.513L283.876 118.512Z" fill="#090814"/>
<path d="M291.48 358.348H278.312V376.995H291.48V358.348Z" fill="#9F616A"/>
<path d="M265.491 388.281C271.27 388.281 279.707 387.678 279.771 387.672C282.027 387.873 293.297 388.758 293.857 386.184C294.153 384.455 294.032 382.68 293.504 381.006C292.416 370.255 292.014 370.129 291.773 370.06C291.39 369.947 290.27 370.479 288.453 371.648L288.34 371.723L288.314 371.855C288.283 372.019 287.478 375.966 283.661 375.364C281.045 374.949 280.199 374.372 279.926 374.09C280.207 373.967 280.447 373.768 280.618 373.514C280.762 373.26 280.85 372.979 280.876 372.688C280.901 372.398 280.863 372.106 280.764 371.831C280.232 370.259 279.554 368.74 278.739 367.293L278.569 366.992L263.607 377.071L254.363 379.707C254.02 379.803 253.703 379.976 253.437 380.211C253.17 380.447 252.96 380.74 252.822 381.068C252.632 381.523 252.587 382.026 252.696 382.507C252.804 382.989 253.059 383.424 253.426 383.754C255.105 385.262 258.443 387.838 261.94 388.16C262.871 388.248 264.103 388.28 265.487 388.28L265.491 388.281Z" fill="#090814"/>
<path d="M319.371 330.391L309.219 338.764L321.119 353.141L331.272 344.768L319.371 330.391Z" fill="#9F616A"/>
<path d="M318.462 369.972C322.914 366.294 329.032 360.463 329.076 360.419C330.944 359.145 340.194 352.655 338.98 350.314C338.107 348.79 336.88 347.499 335.402 346.547C327.699 338.947 327.316 339.112 327.083 339.21C326.712 339.367 326.191 340.484 325.536 342.543L325.498 342.669L325.56 342.788C325.649 342.939 327.548 346.497 324.221 348.456C321.938 349.799 320.92 349.893 320.53 349.849C320.669 349.574 320.726 349.265 320.694 348.959C320.643 348.672 320.531 348.4 320.365 348.161C320.199 347.921 319.983 347.72 319.732 347.572C318.318 346.699 316.825 345.959 315.273 345.363L314.952 345.237L309.86 362.523L304.421 370.438C304.219 370.732 304.086 371.067 304.032 371.419C303.977 371.771 304.003 372.131 304.106 372.472C304.25 372.943 304.537 373.359 304.928 373.661C305.319 373.964 305.794 374.138 306.288 374.16C308.538 374.254 312.758 374.115 315.657 372.139C316.424 371.611 317.393 370.852 318.462 369.973L318.462 369.972Z" fill="#090814"/>
<path d="M256.543 214.545L276.615 363.57H291.671L301.705 214.545H256.538H256.543Z" fill="#090814"/>
<path d="M295.43 295.946L325.405 334.767L312.577 345.344L261.134 296.506L256.537 214.545L265.737 222.755L295.43 295.946Z" fill="#090814"/>
<path d="M265.736 126.882L256.536 214.548H301.702L305.205 186.096C307.362 168.524 303.771 150.727 294.968 135.358L288.038 123.27L265.734 126.882L265.736 126.882Z" fill="#FFD863"/>
<path d="M261.687 239.457C262.365 237.699 263.466 236.135 264.893 234.902L270.962 216.271L280.111 219.465L272.974 238.013C273.166 239.88 272.888 241.766 272.163 243.499C270.421 247.854 266.659 250.485 263.774 249.367C260.889 248.25 259.957 243.813 261.699 239.456H261.686L261.687 239.457Z" fill="#9F616A"/>
<path d="M264.032 231.213L274.112 236.335L295.8 196.234V196.165L298.685 151.307C298.801 149.454 298.535 147.598 297.904 145.852C297.273 144.106 296.291 142.508 295.018 141.155C293.745 139.803 292.207 138.725 290.501 137.988C288.794 137.251 286.955 136.871 285.095 136.871C283.236 136.871 281.396 137.251 279.69 137.988C277.983 138.725 276.446 139.803 275.172 141.155C273.899 142.508 272.917 144.106 272.286 145.852C271.655 147.598 271.39 149.454 271.505 151.307L273.941 189.826L264.03 231.22L264.032 231.213Z" fill="#FFD863"/>
<path d="M83.0028 388.28C82.9835 388.448 83.0305 388.617 83.1338 388.751C83.2372 388.886 83.3888 388.974 83.5566 388.999H359.442C359.602 388.958 359.743 388.865 359.844 388.735C359.946 388.605 360 388.445 360 388.28C360 388.115 359.946 387.955 359.844 387.825C359.743 387.695 359.602 387.602 359.442 387.561H83.5561C83.3883 387.585 83.2367 387.674 83.1334 387.808C83.03 387.943 82.983 388.112 83.0023 388.28L83.0028 388.28Z" fill="#F2F2F2"/>
<path d="M162.349 155.793H149.473V180.743H162.349V155.793Z" fill="#9F616A"/>
<path d="M183.608 225.319L152.552 223.051C152.552 223.051 139.675 252.537 149.523 271.439L156.342 310.755L153.645 375.465H167.751L189.67 271.439L183.608 225.319Z" fill="#090814"/>
<path d="M177.547 258.342L189.666 268.871L183.608 371.993H169.974L177.547 258.342Z" fill="#090814"/>
<path d="M155.737 160.698C164.628 160.698 171.836 153.504 171.836 144.629C171.836 135.755 164.628 128.561 155.737 128.561C146.846 128.561 139.639 135.755 139.639 144.629C139.639 153.504 146.846 160.698 155.737 160.698Z" fill="#9F616A"/>
<path d="M153.809 360.104L170.439 362.729L173.565 374.635C173.565 374.635 187.067 379.707 180.561 385.219C174.055 390.731 150.02 387.881 148.121 383.928C146.221 379.974 153.81 360.104 153.81 360.104L153.809 360.104Z" fill="#090814"/>
<path d="M167.444 360.104L184.074 362.727L187.199 374.633C187.199 374.633 200.702 379.705 194.196 385.217C187.69 390.728 163.655 387.879 161.755 383.925C159.856 379.972 167.446 360.102 167.446 360.102L167.444 360.104Z" fill="#090814"/>
<path d="M213.385 222.758C211.598 222.778 209.831 222.37 208.234 221.569L201.115 221.462L180.123 221.867L170.072 218.59L172.81 210.703L200.39 213.117L208.256 213.633C209.857 212.839 211.626 212.44 213.414 212.469C217.887 212.48 221.506 214.793 221.5 217.634C221.494 220.475 217.861 222.769 213.386 222.758L213.385 222.758Z" fill="#9F616A"/>
<path d="M163.536 165.211H147.598L142.326 181.088L152.552 223.05L183.607 225.318L181.714 208.307C183.506 205.399 184.393 202.025 184.261 198.613C184.129 195.201 182.985 191.905 180.973 189.144L163.536 165.211Z" fill="#DEDEDE"/>
<path d="M148.386 172.014L165.05 169.158L177.166 207.55L202.92 212.087V223.05C202.92 223.429 167.673 226.453 166.738 225.318C165.804 224.183 148.383 172.016 148.383 172.016L148.386 172.014Z" fill="#DEDEDE"/>
<path d="M163.777 135.313C165.755 138.515 163.932 142.733 161.495 145.604C159.059 148.474 155.917 150.994 154.83 154.595C153.856 157.825 154.742 161.305 155.889 164.48C157.036 167.656 158.461 170.816 158.58 174.187C158.698 177.558 157.098 181.28 153.919 182.418C150.655 183.585 146.795 181.751 143.651 183.211C139.556 185.112 138.628 191.695 134.163 192.378C131.416 192.798 128.869 190.42 128.101 187.752C127.334 185.083 127.885 182.239 128.442 179.52L133.005 157.174L136.801 138.581C137.557 134.88 138.454 130.921 141.239 128.367C144.644 125.245 149.776 125.171 154.395 125.358C158.639 125.53 163.056 125.82 166.749 127.912C170.442 130.003 173.158 134.449 171.878 138.491C171.232 137.085 170.097 135.961 168.683 135.329C167.27 134.696 165.674 134.598 164.193 135.053" fill="#090814"/>
</g>
<path d="M1.70455 441L1.93182 439.722C1.99811 439.333 2.13542 438.921 2.34375 438.486C2.55682 438.045 2.82907 437.622 3.16051 437.214C3.49669 436.803 3.88258 436.445 4.31818 436.142L5.08523 436.881C4.73011 437.307 4.40104 437.752 4.09801 438.216C3.79972 438.675 3.60795 439.168 3.52273 439.693L3.29545 441H1.70455ZM5.34091 441L5.56818 439.722C5.63447 439.333 5.77178 438.921 5.98011 438.486C6.19318 438.045 6.46544 437.622 6.79688 437.214C7.13305 436.803 7.51894 436.445 7.95455 436.142L8.72159 436.881C8.36648 437.307 8.03741 437.752 7.73438 438.216C7.43608 438.675 7.24432 439.168 7.15909 439.693L6.93182 441H5.34091ZM8.46946 451L10.8842 436.455H15.799C16.9354 436.455 17.8326 436.658 18.4908 437.065C19.1536 437.473 19.6011 438.024 19.8331 438.72C20.0698 439.416 20.1172 440.195 19.9751 441.057C19.8331 441.909 19.5277 442.686 19.0589 443.386C18.5949 444.087 17.9652 444.646 17.1697 445.062C16.379 445.479 15.4202 445.688 14.2933 445.688H10.7706L11.0263 444.125H14.4922C15.2687 444.125 15.9174 443.99 16.4382 443.72C16.959 443.45 17.3662 443.083 17.6598 442.619C17.9534 442.155 18.1475 441.634 18.2422 441.057C18.3369 440.47 18.3132 439.949 18.1712 439.494C18.0339 439.035 17.7474 438.675 17.3118 438.415C16.8809 438.15 16.2725 438.017 15.4865 438.017H12.3899L10.2308 451H8.46946ZM25.0089 436.455L22.5941 451H20.918L23.3327 436.455H25.0089ZM28.8459 451.256C28.1546 451.256 27.5485 451.125 27.0277 450.865C26.5069 450.6 26.121 450.219 25.87 449.722C25.6191 449.22 25.5504 448.614 25.6641 447.903C25.773 447.278 25.9837 446.772 26.2962 446.384C26.6087 445.991 26.9875 445.683 27.4325 445.46C27.8823 445.233 28.3653 445.065 28.8814 444.956C29.4022 444.842 29.9207 444.755 30.4368 444.693C31.1091 444.608 31.656 444.542 32.0774 444.494C32.4988 444.447 32.8161 444.369 33.0291 444.26C33.2422 444.151 33.3724 443.964 33.4197 443.699V443.642C33.5334 442.946 33.4411 442.404 33.1428 442.016C32.8445 441.623 32.3118 441.426 31.5447 441.426C30.7493 441.426 30.084 441.601 29.549 441.952C29.014 442.302 28.6186 442.676 28.3629 443.074L26.8857 442.506C27.2739 441.843 27.7379 441.327 28.2777 440.957C28.8175 440.583 29.3833 440.323 29.9751 440.176C30.567 440.025 31.1375 439.949 31.6868 439.949C32.0372 439.949 32.4325 439.991 32.8729 440.077C33.3132 440.157 33.7251 440.325 34.1087 440.581C34.4969 440.837 34.7881 441.223 34.9822 441.739C35.1811 442.255 35.2095 442.946 35.0675 443.812L33.8743 451H32.1982L32.4538 449.523H32.3686C32.2171 449.759 31.9851 450.013 31.6726 450.283C31.3648 450.553 30.9742 450.782 30.5007 450.972C30.032 451.161 29.4804 451.256 28.8459 451.256ZM29.3288 449.75C29.9917 449.75 30.5717 449.62 31.0689 449.359C31.5708 449.099 31.9732 448.763 32.2763 448.351C32.584 447.939 32.7758 447.506 32.8516 447.051L33.1072 445.517C33.022 445.602 32.8539 445.68 32.603 445.751C32.352 445.818 32.0679 445.877 31.7507 445.929C31.4382 445.976 31.1328 446.019 30.8345 446.057C30.541 446.09 30.3042 446.118 30.1243 446.142C29.6792 446.199 29.2554 446.291 28.853 446.419C28.4553 446.542 28.1191 446.729 27.8445 446.98C27.5746 447.226 27.4065 447.562 27.3402 447.989C27.2408 448.571 27.3804 449.011 27.7592 449.31C28.138 449.603 28.6612 449.75 29.3288 449.75ZM39.6893 444.438L38.6097 451H36.9336L38.7518 440.091H40.3711L40.087 441.795H40.229C40.57 441.241 41.0316 440.796 41.614 440.46C42.1964 440.119 42.8995 439.949 43.7234 439.949C44.4525 439.949 45.0681 440.1 45.57 440.403C46.0766 440.702 46.4341 441.156 46.6424 441.767C46.8555 442.373 46.8862 443.14 46.7347 444.068L45.57 451H43.8938L45.0302 444.182C45.1722 443.33 45.061 442.662 44.6964 442.179C44.3365 441.696 43.766 441.455 42.9847 441.455C42.445 441.455 41.9454 441.571 41.4862 441.803C41.0316 442.035 40.6457 442.373 40.3285 442.818C40.016 443.263 39.8029 443.803 39.6893 444.438ZM61.8714 446.54L62.951 440.091H64.6271L62.8089 451H61.1328L61.4453 449.153H61.3317C60.9908 449.707 60.5149 450.179 59.9041 450.567C59.2933 450.95 58.576 451.142 57.7521 451.142C57.0703 451.142 56.4879 450.993 56.005 450.695C55.5268 450.392 55.1858 449.937 54.9822 449.331C54.7834 448.72 54.7597 447.951 54.9112 447.023L56.076 440.091H57.7521L56.6158 446.909C56.4879 447.705 56.6087 448.339 56.978 448.812C57.3473 449.286 57.88 449.523 58.576 449.523C58.9927 449.523 59.433 449.416 59.897 449.203C60.3658 448.99 60.7824 448.663 61.147 448.223C61.5163 447.783 61.7578 447.222 61.8714 446.54ZM68.6346 444.438L67.555 451H65.8789L67.6971 440.091H69.3164L69.0323 441.795H69.1744C69.5153 441.241 69.9769 440.796 70.5593 440.46C71.1417 440.119 71.8448 439.949 72.6687 439.949C73.3978 439.949 74.0134 440.1 74.5153 440.403C75.0219 440.702 75.3794 441.156 75.5877 441.767C75.8008 442.373 75.8316 443.14 75.68 444.068L74.5153 451H72.8391L73.9755 444.182C74.1175 443.33 74.0063 442.662 73.6417 442.179C73.2818 441.696 72.7113 441.455 71.93 441.455C71.3903 441.455 70.8907 441.571 70.4315 441.803C69.9769 442.035 69.591 442.373 69.2738 442.818C68.9613 443.263 68.7482 443.803 68.6346 444.438ZM84.2543 440.091L84.027 441.511H78.1463L78.3736 440.091H84.2543ZM78.3168 451L80.3906 438.585C80.4853 437.96 80.7126 437.439 81.0724 437.023C81.437 436.606 81.8703 436.294 82.3722 436.085C82.8788 435.877 83.3925 435.773 83.9134 435.773C84.3253 435.773 84.6544 435.806 84.9006 435.872C85.1515 435.938 85.3338 436 85.4474 436.057L84.7372 437.506C84.652 437.477 84.5384 437.442 84.3963 437.399C84.259 437.357 84.0696 437.335 83.8281 437.335C83.2741 437.335 82.8527 437.475 82.5639 437.754C82.2751 438.034 82.081 438.443 81.9815 438.983L79.9929 451H78.3168ZM88.8388 451.227C87.835 451.227 86.9946 450.988 86.3175 450.51C85.6404 450.032 85.1622 449.362 84.8828 448.5C84.6082 447.638 84.5632 446.634 84.7479 445.489C84.9278 444.371 85.2853 443.398 85.8203 442.57C86.3601 441.736 87.0301 441.092 87.8303 440.638C88.6352 440.179 89.5206 439.949 90.4865 439.949C91.4903 439.949 92.3284 440.19 93.0007 440.673C93.6778 441.152 94.156 441.824 94.4354 442.69C94.7147 443.552 94.7621 444.561 94.5774 445.716C94.3975 446.824 94.0353 447.792 93.4908 448.621C92.951 449.445 92.281 450.086 91.4808 450.545C90.6854 451 89.8047 451.227 88.8388 451.227ZM88.8672 449.722C89.6342 449.722 90.2995 449.525 90.8629 449.132C91.4311 448.739 91.8904 448.221 92.2408 447.577C92.5959 446.933 92.835 446.237 92.9581 445.489C93.0717 444.778 93.067 444.118 92.9439 443.507C92.8208 442.892 92.558 442.397 92.1555 442.023C91.7531 441.644 91.1873 441.455 90.4581 441.455C89.6911 441.455 89.0211 441.653 88.4482 442.051C87.88 442.449 87.4207 442.972 87.0703 443.621C86.7199 444.269 86.4856 444.968 86.3672 445.716C86.2536 446.426 86.2559 447.087 86.3743 447.697C86.4974 448.304 86.7602 448.794 87.1626 449.168C87.5698 449.537 88.138 449.722 88.8672 449.722ZM96.2695 451L98.0877 440.091H99.707L99.4229 441.739H99.5366C99.8207 441.199 100.254 440.761 100.836 440.425C101.419 440.089 102.037 439.92 102.69 439.92C102.818 439.92 102.972 439.923 103.152 439.928C103.332 439.928 103.471 439.935 103.571 439.949L103.287 441.653C103.23 441.639 103.102 441.618 102.903 441.589C102.704 441.556 102.491 441.54 102.264 441.54C101.734 441.54 101.243 441.651 100.794 441.874C100.344 442.091 99.9674 442.394 99.6644 442.783C99.3614 443.166 99.1673 443.604 99.082 444.097L97.9457 451H96.2695ZM107.14 455.318C106.325 455.318 105.643 455.214 105.094 455.006C104.545 454.802 104.105 454.532 103.773 454.196C103.442 453.865 103.191 453.509 103.02 453.131L104.526 452.193C104.64 452.392 104.786 452.619 104.966 452.875C105.146 453.135 105.418 453.36 105.783 453.55C106.152 453.744 106.671 453.841 107.338 453.841C108.214 453.841 108.981 453.628 109.64 453.202C110.298 452.776 110.705 452.108 110.861 451.199L111.202 448.983H111.06C110.908 449.182 110.698 449.428 110.428 449.722C110.158 450.01 109.796 450.268 109.341 450.496C108.887 450.718 108.304 450.83 107.594 450.83C106.709 450.83 105.951 450.621 105.321 450.205C104.692 449.788 104.239 449.182 103.965 448.386C103.695 447.591 103.655 446.625 103.844 445.489C104.029 444.371 104.384 443.398 104.909 442.57C105.44 441.736 106.093 441.092 106.87 440.638C107.646 440.179 108.494 439.949 109.412 439.949C110.123 439.949 110.667 440.067 111.046 440.304C111.429 440.536 111.709 440.801 111.884 441.099C112.059 441.393 112.192 441.634 112.282 441.824H112.452L112.736 440.091H114.355L112.509 451.312C112.353 452.25 112.014 453.012 111.493 453.599C110.972 454.191 110.333 454.625 109.576 454.899C108.818 455.179 108.006 455.318 107.14 455.318ZM108.02 449.324C108.688 449.324 109.282 449.17 109.803 448.862C110.328 448.554 110.764 448.112 111.11 447.534C111.455 446.956 111.694 446.265 111.827 445.46C111.96 444.674 111.95 443.981 111.799 443.379C111.647 442.778 111.361 442.307 110.939 441.966C110.523 441.625 109.976 441.455 109.299 441.455C108.584 441.455 107.966 441.634 107.445 441.994C106.929 442.354 106.51 442.837 106.188 443.443C105.866 444.049 105.643 444.722 105.52 445.46C105.397 446.218 105.402 446.888 105.534 447.47C105.667 448.048 105.937 448.502 106.344 448.834C106.756 449.161 107.315 449.324 108.02 449.324ZM120.151 451.227C119.105 451.227 118.24 450.995 117.559 450.531C116.877 450.062 116.401 449.409 116.131 448.571C115.861 447.728 115.819 446.748 116.003 445.631C116.188 444.513 116.555 443.528 117.104 442.676C117.653 441.819 118.337 441.152 119.157 440.673C119.976 440.19 120.875 439.949 121.855 439.949C122.424 439.949 122.971 440.044 123.496 440.233C124.022 440.422 124.476 440.73 124.86 441.156C125.243 441.578 125.511 442.136 125.662 442.832C125.814 443.528 125.804 444.385 125.634 445.403L125.52 446.114H117.111L117.338 444.665H124.043C124.152 444.049 124.123 443.5 123.958 443.017C123.797 442.534 123.515 442.153 123.113 441.874C122.715 441.594 122.211 441.455 121.6 441.455C120.97 441.455 120.383 441.625 119.838 441.966C119.294 442.302 118.839 442.728 118.475 443.244C118.11 443.756 117.883 444.277 117.793 444.807L117.594 446.057C117.452 446.961 117.473 447.681 117.658 448.216C117.847 448.751 118.176 449.137 118.645 449.374C119.114 449.606 119.701 449.722 120.407 449.722C120.856 449.722 121.271 449.66 121.65 449.537C122.028 449.409 122.367 449.22 122.665 448.969C122.963 448.713 123.214 448.396 123.418 448.017L124.952 448.472C124.692 449.021 124.325 449.504 123.851 449.92C123.382 450.332 122.833 450.654 122.203 450.886C121.578 451.114 120.894 451.227 120.151 451.227ZM133.848 440.091L133.62 441.511H127.967L128.194 440.091H133.848ZM130.268 437.477H131.944L130.211 447.875C130.136 448.348 130.147 448.704 130.247 448.94C130.351 449.172 130.507 449.329 130.716 449.409C130.929 449.485 131.158 449.523 131.404 449.523C131.589 449.523 131.741 449.513 131.859 449.494C131.977 449.471 132.072 449.452 132.143 449.438L132.257 450.943C132.129 450.986 131.956 451.028 131.738 451.071C131.525 451.118 131.262 451.142 130.95 451.142C130.476 451.142 130.031 451.04 129.615 450.837C129.198 450.633 128.878 450.323 128.656 449.906C128.433 449.49 128.374 448.964 128.478 448.33L130.268 437.477ZM141.113 440.091L140.886 441.511H135.233L135.46 440.091H141.113ZM137.534 437.477H139.21L137.477 447.875C137.401 448.348 137.413 448.704 137.512 448.94C137.617 449.172 137.773 449.329 137.981 449.409C138.194 449.485 138.424 449.523 138.67 449.523C138.855 449.523 139.006 449.513 139.125 449.494C139.243 449.471 139.338 449.452 139.409 449.438L139.522 450.943C139.395 450.986 139.222 451.028 139.004 451.071C138.791 451.118 138.528 451.142 138.216 451.142C137.742 451.142 137.297 451.04 136.88 450.837C136.464 450.633 136.144 450.323 135.922 449.906C135.699 449.49 135.64 448.964 135.744 448.33L137.534 437.477ZM144.998 451.256C144.307 451.256 143.701 451.125 143.18 450.865C142.659 450.6 142.273 450.219 142.022 449.722C141.771 449.22 141.703 448.614 141.816 447.903C141.925 447.278 142.136 446.772 142.449 446.384C142.761 445.991 143.14 445.683 143.585 445.46C144.035 445.233 144.518 445.065 145.034 444.956C145.555 444.842 146.073 444.755 146.589 444.693C147.261 444.608 147.808 444.542 148.23 444.494C148.651 444.447 148.968 444.369 149.181 444.26C149.395 444.151 149.525 443.964 149.572 443.699V443.642C149.686 442.946 149.593 442.404 149.295 442.016C148.997 441.623 148.464 441.426 147.697 441.426C146.902 441.426 146.236 441.601 145.701 441.952C145.166 442.302 144.771 442.676 144.515 443.074L143.038 442.506C143.426 441.843 143.89 441.327 144.43 440.957C144.97 440.583 145.536 440.323 146.127 440.176C146.719 440.025 147.29 439.949 147.839 439.949C148.19 439.949 148.585 439.991 149.025 440.077C149.466 440.157 149.877 440.325 150.261 440.581C150.649 440.837 150.94 441.223 151.135 441.739C151.333 442.255 151.362 442.946 151.22 443.812L150.027 451H148.35L148.606 449.523H148.521C148.369 449.759 148.137 450.013 147.825 450.283C147.517 450.553 147.127 450.782 146.653 450.972C146.184 451.161 145.633 451.256 144.998 451.256ZM145.481 449.75C146.144 449.75 146.724 449.62 147.221 449.359C147.723 449.099 148.126 448.763 148.429 448.351C148.736 447.939 148.928 447.506 149.004 447.051L149.26 445.517C149.174 445.602 149.006 445.68 148.755 445.751C148.504 445.818 148.22 445.877 147.903 445.929C147.591 445.976 147.285 446.019 146.987 446.057C146.693 446.09 146.457 446.118 146.277 446.142C145.832 446.199 145.408 446.291 145.005 446.419C144.608 446.542 144.271 446.729 143.997 446.98C143.727 447.226 143.559 447.562 143.493 447.989C143.393 448.571 143.533 449.011 143.912 449.31C144.29 449.603 144.814 449.75 145.481 449.75ZM153.313 451L155.728 436.455H157.404L156.523 441.824H156.665C156.817 441.634 157.028 441.393 157.298 441.099C157.567 440.801 157.93 440.536 158.384 440.304C158.839 440.067 159.421 439.949 160.131 439.949C161.05 439.949 161.819 440.179 162.44 440.638C163.065 441.097 163.503 441.748 163.754 442.591C164.009 443.434 164.042 444.428 163.853 445.574C163.664 446.729 163.301 447.731 162.766 448.578C162.236 449.421 161.583 450.074 160.806 450.538C160.034 450.998 159.194 451.227 158.285 451.227C157.584 451.227 157.042 451.111 156.658 450.879C156.28 450.643 156 450.375 155.82 450.077C155.645 449.774 155.51 449.523 155.415 449.324H155.217L154.933 451H153.313ZM155.87 445.545C155.737 446.369 155.74 447.096 155.877 447.726C156.014 448.351 156.287 448.841 156.694 449.196C157.101 449.546 157.641 449.722 158.313 449.722C159.014 449.722 159.629 449.537 160.16 449.168C160.69 448.794 161.126 448.292 161.467 447.662C161.808 447.027 162.044 446.322 162.177 445.545C162.3 444.778 162.295 444.087 162.163 443.472C162.035 442.851 161.765 442.361 161.353 442.001C160.946 441.637 160.387 441.455 159.677 441.455C158.995 441.455 158.391 441.627 157.866 441.973C157.345 442.314 156.914 442.792 156.573 443.408C156.237 444.018 156.003 444.731 155.87 445.545ZM169.599 436.455L167.184 451H165.508L167.923 436.455H169.599ZM174.799 451.227C173.753 451.227 172.889 450.995 172.207 450.531C171.525 450.062 171.049 449.409 170.779 448.571C170.51 447.728 170.467 446.748 170.652 445.631C170.836 444.513 171.203 443.528 171.752 442.676C172.302 441.819 172.986 441.152 173.805 440.673C174.624 440.19 175.524 439.949 176.504 439.949C177.072 439.949 177.619 440.044 178.145 440.233C178.67 440.422 179.125 440.73 179.508 441.156C179.892 441.578 180.159 442.136 180.311 442.832C180.462 443.528 180.453 444.385 180.282 445.403L180.169 446.114H171.76L171.987 444.665H178.691C178.8 444.049 178.772 443.5 178.606 443.017C178.445 442.534 178.163 442.153 177.761 441.874C177.363 441.594 176.859 441.455 176.248 441.455C175.618 441.455 175.031 441.625 174.487 441.966C173.942 442.302 173.488 442.728 173.123 443.244C172.759 443.756 172.531 444.277 172.441 444.807L172.243 446.057C172.1 446.961 172.122 447.681 172.306 448.216C172.496 448.751 172.825 449.137 173.294 449.374C173.762 449.606 174.35 449.722 175.055 449.722C175.505 449.722 175.919 449.66 176.298 449.537C176.677 449.409 177.015 449.22 177.314 448.969C177.612 448.713 177.863 448.396 178.066 448.017L179.6 448.472C179.34 449.021 178.973 449.504 178.5 449.92C178.031 450.332 177.482 450.654 176.852 450.886C176.227 451.114 175.543 451.227 174.799 451.227ZM192.104 451.227C191.058 451.227 190.194 450.995 189.512 450.531C188.83 450.062 188.354 449.409 188.084 448.571C187.814 447.728 187.772 446.748 187.956 445.631C188.141 444.513 188.508 443.528 189.057 442.676C189.606 441.819 190.291 441.152 191.11 440.673C191.929 440.19 192.828 439.949 193.809 439.949C194.377 439.949 194.924 440.044 195.449 440.233C195.975 440.422 196.429 440.73 196.813 441.156C197.196 441.578 197.464 442.136 197.615 442.832C197.767 443.528 197.757 444.385 197.587 445.403L197.473 446.114H189.064L189.292 444.665H195.996C196.105 444.049 196.077 443.5 195.911 443.017C195.75 442.534 195.468 442.153 195.066 441.874C194.668 441.594 194.164 441.455 193.553 441.455C192.923 441.455 192.336 441.625 191.792 441.966C191.247 442.302 190.792 442.728 190.428 443.244C190.063 443.756 189.836 444.277 189.746 444.807L189.547 446.057C189.405 446.961 189.426 447.681 189.611 448.216C189.801 448.751 190.13 449.137 190.598 449.374C191.067 449.606 191.654 449.722 192.36 449.722C192.81 449.722 193.224 449.66 193.603 449.537C193.981 449.409 194.32 449.22 194.618 448.969C194.917 448.713 195.167 448.396 195.371 448.017L196.905 448.472C196.645 449.021 196.278 449.504 195.804 449.92C195.336 450.332 194.786 450.654 194.157 450.886C193.532 451.114 192.847 451.227 192.104 451.227ZM209.645 440.091L203.793 451H202.088L199.872 440.091H201.619L203.182 448.784H203.295L207.756 440.091H209.645ZM214.194 451.227C213.147 451.227 212.283 450.995 211.602 450.531C210.92 450.062 210.444 449.409 210.174 448.571C209.904 447.728 209.862 446.748 210.046 445.631C210.231 444.513 210.598 443.528 211.147 442.676C211.696 441.819 212.38 441.152 213.2 440.673C214.019 440.19 214.918 439.949 215.898 439.949C216.467 439.949 217.013 440.044 217.539 440.233C218.065 440.422 218.519 440.73 218.903 441.156C219.286 441.578 219.554 442.136 219.705 442.832C219.857 443.528 219.847 444.385 219.677 445.403L219.563 446.114H211.154L211.381 444.665H218.086C218.195 444.049 218.166 443.5 218.001 443.017C217.84 442.534 217.558 442.153 217.156 441.874C216.758 441.594 216.254 441.455 215.643 441.455C215.013 441.455 214.426 441.625 213.881 441.966C213.337 442.302 212.882 442.728 212.518 443.244C212.153 443.756 211.926 444.277 211.836 444.807L211.637 446.057C211.495 446.961 211.516 447.681 211.701 448.216C211.89 448.751 212.219 449.137 212.688 449.374C213.157 449.606 213.744 449.722 214.45 449.722C214.899 449.722 215.314 449.66 215.692 449.537C216.071 449.409 216.41 449.22 216.708 448.969C217.006 448.713 217.257 448.396 217.461 448.017L218.995 448.472C218.735 449.021 218.368 449.504 217.894 449.92C217.425 450.332 216.876 450.654 216.246 450.886C215.621 451.114 214.937 451.227 214.194 451.227ZM224.084 444.438L223.004 451H221.328L223.146 440.091H224.766L224.482 441.795H224.624C224.964 441.241 225.426 440.796 226.009 440.46C226.591 440.119 227.294 439.949 228.118 439.949C228.847 439.949 229.463 440.1 229.964 440.403C230.471 440.702 230.829 441.156 231.037 441.767C231.25 442.373 231.281 443.14 231.129 444.068L229.964 451H228.288L229.425 444.182C229.567 443.33 229.455 442.662 229.091 442.179C228.731 441.696 228.161 441.455 227.379 441.455C226.839 441.455 226.34 441.571 225.881 441.803C225.426 442.035 225.04 442.373 224.723 442.818C224.411 443.263 224.197 443.803 224.084 444.438ZM239.59 440.091L239.363 441.511H233.709L233.936 440.091H239.59ZM236.01 437.477H237.686L235.953 447.875C235.878 448.348 235.89 448.704 235.989 448.94C236.093 449.172 236.249 449.329 236.458 449.409C236.671 449.485 236.9 449.523 237.147 449.523C237.331 449.523 237.483 449.513 237.601 449.494C237.72 449.471 237.814 449.452 237.885 449.438L237.999 450.943C237.871 450.986 237.698 451.028 237.48 451.071C237.267 451.118 237.005 451.142 236.692 451.142C236.219 451.142 235.774 451.04 235.357 450.837C234.94 450.633 234.621 450.323 234.398 449.906C234.176 449.49 234.116 448.964 234.221 448.33L236.01 437.477ZM249.245 442.534L247.654 442.96C247.598 442.705 247.498 442.458 247.356 442.222C247.219 441.98 247.006 441.784 246.717 441.632C246.433 441.476 246.045 441.398 245.552 441.398C244.885 441.398 244.305 441.552 243.812 441.859C243.32 442.162 243.038 442.548 242.967 443.017C242.896 443.429 242.991 443.758 243.251 444.004C243.511 444.25 243.947 444.452 244.558 444.608L246.12 445.006C247.058 445.247 247.725 445.609 248.123 446.092C248.526 446.571 248.663 447.193 248.535 447.96C248.431 448.585 248.159 449.144 247.718 449.636C247.278 450.129 246.715 450.517 246.028 450.801C245.342 451.085 244.577 451.227 243.734 451.227C242.612 451.227 241.726 450.986 241.078 450.503C240.429 450.015 240.083 449.31 240.041 448.386L241.717 447.989C241.76 448.571 241.968 449.011 242.342 449.31C242.721 449.603 243.251 449.75 243.933 449.75C244.714 449.75 245.365 449.584 245.886 449.253C246.407 448.917 246.703 448.514 246.774 448.045C246.845 447.662 246.769 447.342 246.547 447.087C246.329 446.831 245.95 446.639 245.41 446.511L243.677 446.085C242.711 445.844 242.034 445.474 241.646 444.977C241.262 444.48 241.135 443.855 241.262 443.102C241.367 442.487 241.632 441.942 242.058 441.469C242.489 440.995 243.029 440.624 243.677 440.354C244.331 440.084 245.041 439.949 245.808 439.949C246.887 439.949 247.695 440.186 248.23 440.659C248.765 441.128 249.103 441.753 249.245 442.534ZM258.643 451L257.138 440.091H258.899L259.865 448.443H259.979L263.7 440.091H265.49L266.399 448.415H266.513L270.263 440.091H272.024L266.882 451H265.234L264.24 442.619H264.07L260.291 451H258.643ZM272.422 451L274.24 440.091H275.916L274.098 451H272.422ZM275.589 438.244C275.263 438.244 274.981 438.133 274.744 437.911C274.512 437.688 274.396 437.42 274.396 437.108C274.396 436.795 274.512 436.528 274.744 436.305C274.981 436.083 275.263 435.972 275.589 435.972C275.916 435.972 276.196 436.083 276.428 436.305C276.664 436.528 276.783 436.795 276.783 437.108C276.783 437.42 276.664 437.688 276.428 437.911C276.196 438.133 275.916 438.244 275.589 438.244ZM283.73 440.091L283.503 441.511H277.85L278.077 440.091H283.73ZM280.151 437.477H281.827L280.094 447.875C280.018 448.348 280.03 448.704 280.13 448.94C280.234 449.172 280.39 449.329 280.598 449.409C280.811 449.485 281.041 449.523 281.287 449.523C281.472 449.523 281.623 449.513 281.742 449.494C281.86 449.471 281.955 449.452 282.026 449.438L282.14 450.943C282.012 450.986 281.839 451.028 281.621 451.071C281.408 451.118 281.145 451.142 280.833 451.142C280.359 451.142 279.914 451.04 279.498 450.837C279.081 450.633 278.761 450.323 278.539 449.906C278.316 449.49 278.257 448.964 278.361 448.33L280.151 437.477ZM287.424 444.438L286.344 451H284.668L287.083 436.455H288.759L287.878 441.795H288.02C288.361 441.227 288.816 440.777 289.384 440.446C289.957 440.115 290.676 439.949 291.543 439.949C292.282 439.949 292.904 440.098 293.411 440.396C293.922 440.69 294.282 441.142 294.49 441.753C294.703 442.359 294.734 443.131 294.583 444.068L293.418 451H291.742L292.878 444.182C293.02 443.315 292.904 442.645 292.53 442.172C292.161 441.694 291.586 441.455 290.804 441.455C290.255 441.455 289.744 441.571 289.27 441.803C288.801 442.035 288.404 442.373 288.077 442.818C287.755 443.263 287.537 443.803 287.424 444.438ZM303.928 440.091H305.604L303.672 451.795C303.558 452.468 303.343 453.05 303.026 453.543C302.713 454.035 302.301 454.416 301.79 454.686C301.283 454.956 300.679 455.091 299.979 455.091C299.922 455.091 299.865 455.091 299.808 455.091C299.751 455.091 299.695 455.091 299.638 455.091L299.893 453.528C299.95 453.528 300.002 453.528 300.05 453.528C300.097 453.528 300.149 453.528 300.206 453.528C300.717 453.528 301.12 453.377 301.413 453.074C301.702 452.776 301.896 452.349 301.996 451.795L303.928 440.091ZM305.22 438.273C304.893 438.273 304.612 438.161 304.375 437.939C304.143 437.716 304.027 437.449 304.027 437.136C304.027 436.824 304.143 436.556 304.375 436.334C304.612 436.111 304.893 436 305.22 436C305.547 436 305.826 436.111 306.058 436.334C306.295 436.556 306.413 436.824 306.413 437.136C306.413 437.449 306.295 437.716 306.058 437.939C305.826 438.161 305.547 438.273 305.22 438.273ZM314.469 446.54L315.549 440.091H317.225L315.407 451H313.73L314.043 449.153H313.929C313.588 449.707 313.113 450.179 312.502 450.567C311.891 450.95 311.174 451.142 310.35 451.142C309.668 451.142 309.086 450.993 308.603 450.695C308.124 450.392 307.783 449.937 307.58 449.331C307.381 448.72 307.357 447.951 307.509 447.023L308.674 440.091H310.35L309.213 446.909C309.086 447.705 309.206 448.339 309.576 448.812C309.945 449.286 310.478 449.523 311.174 449.523C311.59 449.523 312.031 449.416 312.495 449.203C312.963 448.99 313.38 448.663 313.745 448.223C314.114 447.783 314.355 447.222 314.469 446.54ZM327.624 442.534L326.033 442.96C325.977 442.705 325.877 442.458 325.735 442.222C325.598 441.98 325.385 441.784 325.096 441.632C324.812 441.476 324.424 441.398 323.931 441.398C323.263 441.398 322.683 441.552 322.191 441.859C321.699 442.162 321.417 442.548 321.346 443.017C321.275 443.429 321.37 443.758 321.63 444.004C321.89 444.25 322.326 444.452 322.937 444.608L324.499 445.006C325.437 445.247 326.104 445.609 326.502 446.092C326.905 446.571 327.042 447.193 326.914 447.96C326.81 448.585 326.538 449.144 326.097 449.636C325.657 450.129 325.094 450.517 324.407 450.801C323.72 451.085 322.956 451.227 322.113 451.227C320.991 451.227 320.105 450.986 319.457 450.503C318.808 450.015 318.462 449.31 318.42 448.386L320.096 447.989C320.138 448.571 320.347 449.011 320.721 449.31C321.1 449.603 321.63 449.75 322.312 449.75C323.093 449.75 323.744 449.584 324.265 449.253C324.786 448.917 325.082 448.514 325.153 448.045C325.224 447.662 325.148 447.342 324.925 447.087C324.708 446.831 324.329 446.639 323.789 446.511L322.056 446.085C321.09 445.844 320.413 445.474 320.025 444.977C319.641 444.48 319.513 443.855 319.641 443.102C319.746 442.487 320.011 441.942 320.437 441.469C320.868 440.995 321.407 440.624 322.056 440.354C322.71 440.084 323.42 439.949 324.187 439.949C325.266 439.949 326.074 440.186 326.609 440.659C327.144 441.128 327.482 441.753 327.624 442.534ZM335.488 440.091L335.261 441.511H329.608L329.835 440.091H335.488ZM331.909 437.477H333.585L331.852 447.875C331.776 448.348 331.788 448.704 331.887 448.94C331.992 449.172 332.148 449.329 332.356 449.409C332.569 449.485 332.799 449.523 333.045 449.523C333.23 449.523 333.381 449.513 333.5 449.494C333.618 449.471 333.713 449.452 333.784 449.438L333.897 450.943C333.77 450.986 333.597 451.028 333.379 451.071C333.166 451.118 332.903 451.142 332.591 451.142C332.117 451.142 331.672 451.04 331.255 450.837C330.839 450.633 330.519 450.323 330.297 449.906C330.074 449.49 330.015 448.964 330.119 448.33L331.909 437.477ZM344.998 451.256C344.307 451.256 343.701 451.125 343.18 450.865C342.659 450.6 342.273 450.219 342.022 449.722C341.771 449.22 341.703 448.614 341.816 447.903C341.925 447.278 342.136 446.772 342.449 446.384C342.761 445.991 343.14 445.683 343.585 445.46C344.035 445.233 344.518 445.065 345.034 444.956C345.555 444.842 346.073 444.755 346.589 444.693C347.261 444.608 347.808 444.542 348.23 444.494C348.651 444.447 348.968 444.369 349.181 444.26C349.395 444.151 349.525 443.964 349.572 443.699V443.642C349.686 442.946 349.593 442.404 349.295 442.016C348.997 441.623 348.464 441.426 347.697 441.426C346.902 441.426 346.236 441.601 345.701 441.952C345.166 442.302 344.771 442.676 344.515 443.074L343.038 442.506C343.426 441.843 343.89 441.327 344.43 440.957C344.97 440.583 345.536 440.323 346.127 440.176C346.719 440.025 347.29 439.949 347.839 439.949C348.19 439.949 348.585 439.991 349.025 440.077C349.466 440.157 349.877 440.325 350.261 440.581C350.649 440.837 350.94 441.223 351.135 441.739C351.333 442.255 351.362 442.946 351.22 443.812L350.027 451H348.35L348.606 449.523H348.521C348.369 449.759 348.137 450.013 347.825 450.283C347.517 450.553 347.127 450.782 346.653 450.972C346.184 451.161 345.633 451.256 344.998 451.256ZM345.481 449.75C346.144 449.75 346.724 449.62 347.221 449.359C347.723 449.099 348.126 448.763 348.429 448.351C348.736 447.939 348.928 447.506 349.004 447.051L349.26 445.517C349.174 445.602 349.006 445.68 348.755 445.751C348.504 445.818 348.22 445.877 347.903 445.929C347.591 445.976 347.285 446.019 346.987 446.057C346.693 446.09 346.457 446.118 346.277 446.142C345.832 446.199 345.408 446.291 345.005 446.419C344.608 446.542 344.271 446.729 343.997 446.98C343.727 447.226 343.559 447.562 343.493 447.989C343.393 448.571 343.533 449.011 343.912 449.31C344.29 449.603 344.814 449.75 345.481 449.75ZM365.387 440.091L365.16 441.511H359.279L359.506 440.091H365.387ZM359.45 451L361.523 438.585C361.618 437.96 361.845 437.439 362.205 437.023C362.57 436.606 363.003 436.294 363.505 436.085C364.012 435.877 364.525 435.773 365.046 435.773C365.458 435.773 365.787 435.806 366.033 435.872C366.284 435.938 366.467 436 366.58 436.057L365.87 437.506C365.785 437.477 365.671 437.442 365.529 437.399C365.392 437.357 365.202 437.335 364.961 437.335C364.407 437.335 363.986 437.475 363.697 437.754C363.408 438.034 363.214 438.443 363.114 438.983L361.126 451H359.45ZM370.014 451.227C368.968 451.227 368.104 450.995 367.422 450.531C366.74 450.062 366.264 449.409 365.994 448.571C365.724 447.728 365.682 446.748 365.866 445.631C366.051 444.513 366.418 443.528 366.967 442.676C367.517 441.819 368.201 441.152 369.02 440.673C369.839 440.19 370.739 439.949 371.719 439.949C372.287 439.949 372.834 440.044 373.359 440.233C373.885 440.422 374.339 440.73 374.723 441.156C375.107 441.578 375.374 442.136 375.526 442.832C375.677 443.528 375.668 444.385 375.497 445.403L375.384 446.114H366.974L367.202 444.665H373.906C374.015 444.049 373.987 443.5 373.821 443.017C373.66 442.534 373.378 442.153 372.976 441.874C372.578 441.594 372.074 441.455 371.463 441.455C370.833 441.455 370.246 441.625 369.702 441.966C369.157 442.302 368.703 442.728 368.338 443.244C367.973 443.756 367.746 444.277 367.656 444.807L367.457 446.057C367.315 446.961 367.337 447.681 367.521 448.216C367.711 448.751 368.04 449.137 368.509 449.374C368.977 449.606 369.564 449.722 370.27 449.722C370.72 449.722 371.134 449.66 371.513 449.537C371.892 449.409 372.23 449.22 372.528 448.969C372.827 448.713 373.078 448.396 373.281 448.017L374.815 448.472C374.555 449.021 374.188 449.504 373.714 449.92C373.246 450.332 372.696 450.654 372.067 450.886C371.442 451.114 370.758 451.227 370.014 451.227ZM379.62 451L378.114 440.091H379.876L380.842 448.443H380.955L384.677 440.091H386.467L387.376 448.415H387.489L391.239 440.091H393.001L387.859 451H386.211L385.217 442.619H385.046L381.268 451H379.62ZM403.427 451.227C402.399 451.227 401.557 450.986 400.898 450.503C400.245 450.02 399.79 449.355 399.535 448.507C399.279 447.66 399.241 446.691 399.421 445.602C399.601 444.494 399.966 443.517 400.515 442.669C401.064 441.817 401.748 441.152 402.567 440.673C403.387 440.19 404.289 439.949 405.273 439.949C406.04 439.949 406.708 440.091 407.276 440.375C407.844 440.659 408.282 441.057 408.59 441.568C408.898 442.08 409.042 442.676 409.023 443.358H407.347C407.3 442.861 407.087 442.42 406.708 442.037C406.334 441.649 405.78 441.455 405.046 441.455C404.393 441.455 403.791 441.625 403.242 441.966C402.693 442.302 402.231 442.778 401.857 443.393C401.483 444.004 401.23 444.722 401.097 445.545C400.955 446.388 400.967 447.122 401.133 447.747C401.299 448.372 401.599 448.857 402.035 449.203C402.47 449.549 403.02 449.722 403.683 449.722C404.118 449.722 404.525 449.646 404.904 449.494C405.283 449.343 405.619 449.125 405.913 448.841C406.206 448.557 406.438 448.216 406.609 447.818H408.285C408.076 448.462 407.743 449.042 407.283 449.558C406.824 450.07 406.268 450.477 405.614 450.78C404.961 451.078 404.232 451.227 403.427 451.227ZM414.286 436.455L411.871 451H410.195L412.61 436.455H414.286ZM414.941 451L416.76 440.091H418.436L416.618 451H414.941ZM418.109 438.244C417.782 438.244 417.501 438.133 417.264 437.911C417.032 437.688 416.916 437.42 416.916 437.108C416.916 436.795 417.032 436.528 417.264 436.305C417.501 436.083 417.782 435.972 418.109 435.972C418.436 435.972 418.715 436.083 418.947 436.305C419.184 436.528 419.302 436.795 419.302 437.108C419.302 437.42 419.184 437.688 418.947 437.911C418.715 438.133 418.436 438.244 418.109 438.244ZM424.091 451.227C423.063 451.227 422.221 450.986 421.562 450.503C420.909 450.02 420.455 449.355 420.199 448.507C419.943 447.66 419.905 446.691 420.085 445.602C420.265 444.494 420.63 443.517 421.179 442.669C421.728 441.817 422.412 441.152 423.232 440.673C424.051 440.19 424.953 439.949 425.938 439.949C426.705 439.949 427.372 440.091 427.94 440.375C428.509 440.659 428.946 441.057 429.254 441.568C429.562 442.08 429.706 442.676 429.688 443.358H428.011C427.964 442.861 427.751 442.42 427.372 442.037C426.998 441.649 426.444 441.455 425.71 441.455C425.057 441.455 424.455 441.625 423.906 441.966C423.357 442.302 422.895 442.778 422.521 443.393C422.147 444.004 421.894 444.722 421.761 445.545C421.619 446.388 421.631 447.122 421.797 447.747C421.963 448.372 422.263 448.857 422.699 449.203C423.134 449.549 423.684 449.722 424.347 449.722C424.782 449.722 425.189 449.646 425.568 449.494C425.947 449.343 426.283 449.125 426.577 448.841C426.87 448.557 427.102 448.216 427.273 447.818H428.949C428.741 448.462 428.407 449.042 427.947 449.558C427.488 450.07 426.932 450.477 426.278 450.78C425.625 451.078 424.896 451.227 424.091 451.227ZM433.075 447.023L433.388 444.949H433.729L439.325 440.091H441.399L435.462 445.233H435.32L433.075 447.023ZM430.859 451L433.274 436.455H434.95L432.536 451H430.859ZM437.791 451L434.439 445.602L435.803 444.438L439.922 451H437.791ZM450.886 442.534L449.295 442.96C449.238 442.705 449.139 442.458 448.997 442.222C448.859 441.98 448.646 441.784 448.358 441.632C448.074 441.476 447.685 441.398 447.193 441.398C446.525 441.398 445.945 441.552 445.453 441.859C444.96 442.162 444.679 442.548 444.608 443.017C444.537 443.429 444.631 443.758 444.892 444.004C445.152 444.25 445.588 444.452 446.199 444.608L447.761 445.006C448.699 445.247 449.366 445.609 449.764 446.092C450.166 446.571 450.304 447.193 450.176 447.96C450.072 448.585 449.799 449.144 449.359 449.636C448.919 450.129 448.355 450.517 447.669 450.801C446.982 451.085 446.217 451.227 445.375 451.227C444.252 451.227 443.367 450.986 442.718 450.503C442.07 450.015 441.724 449.31 441.681 448.386L443.358 447.989C443.4 448.571 443.609 449.011 443.983 449.31C444.361 449.603 444.892 449.75 445.574 449.75C446.355 449.75 447.006 449.584 447.527 449.253C448.047 448.917 448.343 448.514 448.414 448.045C448.485 447.662 448.41 447.342 448.187 447.087C447.969 446.831 447.591 446.639 447.051 446.511L445.318 446.085C444.352 445.844 443.675 445.474 443.287 444.977C442.903 444.48 442.775 443.855 442.903 443.102C443.007 442.487 443.272 441.942 443.699 441.469C444.129 440.995 444.669 440.624 445.318 440.354C445.971 440.084 446.681 439.949 447.449 439.949C448.528 439.949 449.335 440.186 449.87 440.659C450.405 441.128 450.744 441.753 450.886 442.534ZM456.08 436.455L455.881 437.733C455.819 438.121 455.679 438.536 455.462 438.976C455.249 439.411 454.974 439.835 454.638 440.247C454.302 440.654 453.92 441.009 453.494 441.312L452.699 440.574C453.068 440.148 453.397 439.705 453.686 439.246C453.98 438.782 454.171 438.287 454.261 437.761L454.489 436.455H456.08ZM459.716 436.455L459.517 437.733C459.455 438.121 459.316 438.536 459.098 438.976C458.885 439.411 458.61 439.835 458.274 440.247C457.938 440.654 457.557 441.009 457.131 441.312L456.335 440.574C456.705 440.148 457.034 439.705 457.322 439.246C457.616 438.782 457.808 438.287 457.898 437.761L458.125 436.455H459.716Z" fill="white"/>
<path d="M83.017 472.455H85.0341L87.9602 479.244H88.1307L93.2727 472.455H95.2898L88.6136 481.006L87.6193 487H85.858L86.8523 481.006L83.017 472.455ZM97.8857 487.227C96.8819 487.227 96.0414 486.988 95.3643 486.51C94.6873 486.032 94.209 485.362 93.9297 484.5C93.6551 483.638 93.6101 482.634 93.7947 481.489C93.9747 480.371 94.3321 479.398 94.8672 478.57C95.407 477.736 96.0769 477.092 96.8771 476.638C97.6821 476.179 98.5675 475.949 99.5334 475.949C100.537 475.949 101.375 476.19 102.048 476.673C102.725 477.152 103.203 477.824 103.482 478.69C103.762 479.552 103.809 480.561 103.624 481.716C103.444 482.824 103.082 483.792 102.538 484.621C101.998 485.445 101.328 486.086 100.528 486.545C99.7322 487 98.8516 487.227 97.8857 487.227ZM97.9141 485.722C98.6811 485.722 99.3464 485.525 99.9098 485.132C100.478 484.739 100.937 484.221 101.288 483.577C101.643 482.933 101.882 482.237 102.005 481.489C102.119 480.778 102.114 480.118 101.991 479.507C101.868 478.892 101.605 478.397 101.202 478.023C100.8 477.644 100.234 477.455 99.505 477.455C98.7379 477.455 98.0679 477.653 97.495 478.051C96.9268 478.449 96.4676 478.972 96.1172 479.621C95.7668 480.269 95.5324 480.968 95.4141 481.716C95.3004 482.426 95.3028 483.087 95.4212 483.697C95.5443 484.304 95.8071 484.794 96.2095 485.168C96.6167 485.537 97.1849 485.722 97.9141 485.722ZM112.93 482.54L114.01 476.091H115.686L113.868 487H112.191L112.504 485.153H112.39C112.049 485.707 111.574 486.179 110.963 486.567C110.352 486.95 109.635 487.142 108.811 487.142C108.129 487.142 107.547 486.993 107.064 486.695C106.585 486.392 106.244 485.937 106.041 485.331C105.842 484.72 105.818 483.951 105.97 483.023L107.135 476.091H108.811L107.674 482.909C107.547 483.705 107.667 484.339 108.037 484.812C108.406 485.286 108.939 485.523 109.635 485.523C110.051 485.523 110.492 485.416 110.956 485.203C111.424 484.99 111.841 484.663 112.206 484.223C112.575 483.783 112.816 483.222 112.93 482.54ZM116.938 487L118.756 476.091H120.375L120.091 477.739H120.205C120.489 477.199 120.922 476.761 121.504 476.425C122.087 476.089 122.705 475.92 123.358 475.92C123.486 475.92 123.64 475.923 123.82 475.928C124 475.928 124.139 475.935 124.239 475.949L123.955 477.653C123.898 477.639 123.77 477.618 123.571 477.589C123.372 477.556 123.159 477.54 122.932 477.54C122.402 477.54 121.911 477.651 121.462 477.874C121.012 478.091 120.635 478.394 120.332 478.783C120.029 479.166 119.835 479.604 119.75 480.097L118.614 487H116.938ZM134.148 487.227C133.234 487.227 132.467 486.998 131.847 486.538C131.227 486.074 130.789 485.421 130.533 484.578C130.282 483.731 130.251 482.729 130.441 481.574C130.635 480.428 130.997 479.434 131.527 478.591C132.062 477.748 132.718 477.097 133.495 476.638C134.271 476.179 135.119 475.949 136.037 475.949C136.748 475.949 137.29 476.067 137.664 476.304C138.042 476.536 138.317 476.801 138.488 477.099C138.658 477.393 138.788 477.634 138.878 477.824H139.02L139.915 472.455H141.591L139.176 487H137.557L137.841 485.324H137.642C137.486 485.523 137.268 485.774 136.989 486.077C136.71 486.375 136.34 486.643 135.881 486.879C135.426 487.111 134.849 487.227 134.148 487.227ZM134.56 485.722C135.232 485.722 135.834 485.546 136.364 485.196C136.899 484.841 137.344 484.351 137.699 483.726C138.054 483.096 138.301 482.369 138.438 481.545C138.575 480.731 138.57 480.018 138.424 479.408C138.277 478.792 137.995 478.314 137.578 477.973C137.162 477.627 136.61 477.455 135.924 477.455C135.218 477.455 134.605 477.637 134.084 478.001C133.563 478.361 133.14 478.851 132.813 479.472C132.486 480.087 132.259 480.778 132.131 481.545C132.003 482.322 132.001 483.027 132.124 483.662C132.247 484.292 132.507 484.794 132.905 485.168C133.308 485.537 133.859 485.722 134.56 485.722ZM142.465 487L144.283 476.091H145.902L145.618 477.739H145.732C146.016 477.199 146.449 476.761 147.032 476.425C147.614 476.089 148.232 475.92 148.885 475.92C149.013 475.92 149.167 475.923 149.347 475.928C149.527 475.928 149.667 475.935 149.766 475.949L149.482 477.653C149.425 477.639 149.297 477.618 149.098 477.589C148.9 477.556 148.686 477.54 148.459 477.54C147.929 477.54 147.439 477.651 146.989 477.874C146.539 478.091 146.163 478.394 145.86 478.783C145.557 479.166 145.363 479.604 145.277 480.097L144.141 487H142.465ZM154.159 487.227C153.112 487.227 152.248 486.995 151.566 486.531C150.885 486.062 150.409 485.409 150.139 484.571C149.869 483.728 149.826 482.748 150.011 481.631C150.196 480.513 150.563 479.528 151.112 478.676C151.661 477.819 152.345 477.152 153.164 476.673C153.984 476.19 154.883 475.949 155.863 475.949C156.431 475.949 156.978 476.044 157.504 476.233C158.029 476.422 158.484 476.73 158.868 477.156C159.251 477.578 159.519 478.136 159.67 478.832C159.822 479.528 159.812 480.385 159.642 481.403L159.528 482.114H151.119L151.346 480.665H158.051C158.16 480.049 158.131 479.5 157.966 479.017C157.805 478.534 157.523 478.153 157.12 477.874C156.723 477.594 156.218 477.455 155.608 477.455C154.978 477.455 154.391 477.625 153.846 477.966C153.302 478.302 152.847 478.728 152.483 479.244C152.118 479.756 151.891 480.277 151.801 480.807L151.602 482.057C151.46 482.961 151.481 483.681 151.666 484.216C151.855 484.751 152.184 485.137 152.653 485.374C153.122 485.606 153.709 485.722 154.414 485.722C154.864 485.722 155.279 485.66 155.657 485.537C156.036 485.409 156.375 485.22 156.673 484.969C156.971 484.713 157.222 484.396 157.426 484.017L158.96 484.472C158.699 485.021 158.333 485.504 157.859 485.92C157.39 486.332 156.841 486.654 156.211 486.886C155.586 487.114 154.902 487.227 154.159 487.227ZM164.475 487.256C163.783 487.256 163.177 487.125 162.657 486.865C162.136 486.6 161.75 486.219 161.499 485.722C161.248 485.22 161.179 484.614 161.293 483.903C161.402 483.278 161.613 482.772 161.925 482.384C162.238 481.991 162.616 481.683 163.061 481.46C163.511 481.233 163.994 481.065 164.51 480.956C165.031 480.842 165.55 480.755 166.066 480.693C166.738 480.608 167.285 480.542 167.706 480.494C168.128 480.447 168.445 480.369 168.658 480.26C168.871 480.151 169.001 479.964 169.049 479.699V479.642C169.162 478.946 169.07 478.404 168.772 478.016C168.473 477.623 167.941 477.426 167.174 477.426C166.378 477.426 165.713 477.601 165.178 477.952C164.643 478.302 164.248 478.676 163.992 479.074L162.515 478.506C162.903 477.843 163.367 477.327 163.907 476.957C164.446 476.583 165.012 476.323 165.604 476.176C166.196 476.025 166.766 475.949 167.316 475.949C167.666 475.949 168.061 475.991 168.502 476.077C168.942 476.157 169.354 476.325 169.738 476.581C170.126 476.837 170.417 477.223 170.611 477.739C170.81 478.255 170.838 478.946 170.696 479.812L169.503 487H167.827L168.083 485.523H167.998C167.846 485.759 167.614 486.013 167.301 486.283C166.994 486.553 166.603 486.782 166.13 486.972C165.661 487.161 165.109 487.256 164.475 487.256ZM164.958 485.75C165.621 485.75 166.201 485.62 166.698 485.359C167.2 485.099 167.602 484.763 167.905 484.351C168.213 483.939 168.405 483.506 168.48 483.051L168.736 481.517C168.651 481.602 168.483 481.68 168.232 481.751C167.981 481.818 167.697 481.877 167.38 481.929C167.067 481.976 166.762 482.019 166.463 482.057C166.17 482.09 165.933 482.118 165.753 482.142C165.308 482.199 164.884 482.291 164.482 482.419C164.084 482.542 163.748 482.729 163.473 482.98C163.203 483.226 163.035 483.562 162.969 483.989C162.87 484.571 163.009 485.011 163.388 485.31C163.767 485.603 164.29 485.75 164.958 485.75ZM172.562 487L174.381 476.091H176L175.716 477.795H175.858C176.185 477.213 176.627 476.761 177.186 476.439C177.75 476.112 178.386 475.949 179.097 475.949C179.807 475.949 180.377 476.112 180.808 476.439C181.239 476.761 181.54 477.213 181.71 477.795H181.824C182.193 477.227 182.686 476.777 183.301 476.446C183.921 476.115 184.622 475.949 185.403 475.949C186.369 475.949 187.113 476.254 187.634 476.865C188.159 477.476 188.315 478.42 188.102 479.699L186.881 487H185.205L186.426 479.699C186.554 478.889 186.426 478.314 186.043 477.973C185.664 477.627 185.176 477.455 184.58 477.455C183.813 477.455 183.18 477.684 182.683 478.143C182.186 478.603 181.881 479.187 181.767 479.898L180.574 487H178.869L180.119 479.528C180.219 478.903 180.1 478.402 179.764 478.023C179.428 477.644 178.94 477.455 178.301 477.455C177.866 477.455 177.439 477.573 177.023 477.81C176.606 478.042 176.249 478.364 175.95 478.776C175.652 479.183 175.46 479.652 175.375 480.182L174.239 487H172.562ZM200.116 487.227C199.069 487.227 198.205 486.995 197.523 486.531C196.842 486.062 196.366 485.409 196.096 484.571C195.826 483.728 195.783 482.748 195.968 481.631C196.153 480.513 196.52 479.528 197.069 478.676C197.618 477.819 198.302 477.152 199.121 476.673C199.941 476.19 200.84 475.949 201.82 475.949C202.388 475.949 202.935 476.044 203.461 476.233C203.987 476.422 204.441 476.73 204.825 477.156C205.208 477.578 205.476 478.136 205.627 478.832C205.779 479.528 205.769 480.385 205.599 481.403L205.485 482.114H197.076L197.303 480.665H204.008C204.117 480.049 204.088 479.5 203.923 479.017C203.762 478.534 203.48 478.153 203.077 477.874C202.68 477.594 202.175 477.455 201.565 477.455C200.935 477.455 200.348 477.625 199.803 477.966C199.259 478.302 198.804 478.728 198.44 479.244C198.075 479.756 197.848 480.277 197.758 480.807L197.559 482.057C197.417 482.961 197.438 483.681 197.623 484.216C197.812 484.751 198.141 485.137 198.61 485.374C199.079 485.606 199.666 485.722 200.371 485.722C200.821 485.722 201.236 485.66 201.614 485.537C201.993 485.409 202.332 485.22 202.63 484.969C202.928 484.713 203.179 484.396 203.383 484.017L204.917 484.472C204.656 485.021 204.29 485.504 203.816 485.92C203.347 486.332 202.798 486.654 202.168 486.886C201.543 487.114 200.859 487.227 200.116 487.227ZM217.657 476.091L211.804 487H210.1L207.884 476.091H209.631L211.194 484.784H211.307L215.767 476.091H217.657ZM222.206 487.227C221.159 487.227 220.295 486.995 219.613 486.531C218.931 486.062 218.456 485.409 218.186 484.571C217.916 483.728 217.873 482.748 218.058 481.631C218.243 480.513 218.609 479.528 219.159 478.676C219.708 477.819 220.392 477.152 221.211 476.673C222.03 476.19 222.93 475.949 223.91 475.949C224.478 475.949 225.025 476.044 225.551 476.233C226.076 476.422 226.531 476.73 226.914 477.156C227.298 477.578 227.565 478.136 227.717 478.832C227.868 479.528 227.859 480.385 227.689 481.403L227.575 482.114H219.166L219.393 480.665H226.098C226.207 480.049 226.178 479.5 226.012 479.017C225.851 478.534 225.57 478.153 225.167 477.874C224.77 477.594 224.265 477.455 223.654 477.455C223.025 477.455 222.438 477.625 221.893 477.966C221.349 478.302 220.894 478.728 220.529 479.244C220.165 479.756 219.938 480.277 219.848 480.807L219.649 482.057C219.507 482.961 219.528 483.681 219.713 484.216C219.902 484.751 220.231 485.137 220.7 485.374C221.169 485.606 221.756 485.722 222.461 485.722C222.911 485.722 223.325 485.66 223.704 485.537C224.083 485.409 224.422 485.22 224.72 484.969C225.018 484.713 225.269 484.396 225.473 484.017L227.007 484.472C226.746 485.021 226.379 485.504 225.906 485.92C225.437 486.332 224.888 486.654 224.258 486.886C223.633 487.114 222.949 487.227 222.206 487.227ZM232.096 480.438L231.016 487H229.34L231.158 476.091H232.777L232.493 477.795H232.635C232.976 477.241 233.438 476.796 234.02 476.46C234.603 476.119 235.306 475.949 236.13 475.949C236.859 475.949 237.474 476.1 237.976 476.403C238.483 476.702 238.84 477.156 239.049 477.767C239.262 478.373 239.292 479.14 239.141 480.068L237.976 487H236.3L237.436 480.182C237.578 479.33 237.467 478.662 237.103 478.179C236.743 477.696 236.172 477.455 235.391 477.455C234.851 477.455 234.352 477.571 233.892 477.803C233.438 478.035 233.052 478.373 232.735 478.818C232.422 479.263 232.209 479.803 232.096 480.438ZM247.602 476.091L247.374 477.511H241.721L241.948 476.091H247.602ZM244.022 473.477H245.698L243.965 483.875C243.889 484.348 243.901 484.704 244.001 484.94C244.105 485.172 244.261 485.329 244.469 485.409C244.683 485.485 244.912 485.523 245.158 485.523C245.343 485.523 245.495 485.513 245.613 485.494C245.731 485.471 245.826 485.452 245.897 485.438L246.011 486.943C245.883 486.986 245.71 487.028 245.492 487.071C245.279 487.118 245.016 487.142 244.704 487.142C244.23 487.142 243.785 487.04 243.369 486.837C242.952 486.633 242.632 486.323 242.41 485.906C242.187 485.49 242.128 484.964 242.232 484.33L244.022 473.477ZM263.077 478.534L261.487 478.96C261.43 478.705 261.33 478.458 261.188 478.222C261.051 477.98 260.838 477.784 260.549 477.632C260.265 477.476 259.877 477.398 259.384 477.398C258.717 477.398 258.137 477.552 257.644 477.859C257.152 478.162 256.87 478.548 256.799 479.017C256.728 479.429 256.823 479.758 257.083 480.004C257.344 480.25 257.779 480.452 258.39 480.608L259.952 481.006C260.89 481.247 261.558 481.609 261.955 482.092C262.358 482.571 262.495 483.193 262.367 483.96C262.263 484.585 261.991 485.144 261.55 485.636C261.11 486.129 260.547 486.517 259.86 486.801C259.174 487.085 258.409 487.227 257.566 487.227C256.444 487.227 255.558 486.986 254.91 486.503C254.261 486.015 253.915 485.31 253.873 484.386L255.549 483.989C255.592 484.571 255.8 485.011 256.174 485.31C256.553 485.603 257.083 485.75 257.765 485.75C258.546 485.75 259.197 485.584 259.718 485.253C260.239 484.917 260.535 484.514 260.606 484.045C260.677 483.662 260.601 483.342 260.379 483.087C260.161 482.831 259.782 482.639 259.242 482.511L257.509 482.085C256.543 481.844 255.866 481.474 255.478 480.977C255.094 480.48 254.967 479.855 255.094 479.102C255.199 478.487 255.464 477.942 255.89 477.469C256.321 476.995 256.861 476.624 257.509 476.354C258.163 476.084 258.873 475.949 259.64 475.949C260.719 475.949 261.527 476.186 262.062 476.659C262.597 477.128 262.935 477.753 263.077 478.534ZM270.941 476.091L270.714 477.511H265.061L265.288 476.091H270.941ZM267.362 473.477H269.038L267.305 483.875C267.229 484.348 267.241 484.704 267.341 484.94C267.445 485.172 267.601 485.329 267.809 485.409C268.022 485.485 268.252 485.523 268.498 485.523C268.683 485.523 268.834 485.513 268.953 485.494C269.071 485.471 269.166 485.452 269.237 485.438L269.35 486.943C269.223 486.986 269.05 487.028 268.832 487.071C268.619 487.118 268.356 487.142 268.044 487.142C267.57 487.142 267.125 487.04 266.708 486.837C266.292 486.633 265.972 486.323 265.75 485.906C265.527 485.49 265.468 484.964 265.572 484.33L267.362 473.477ZM274.826 487.256C274.135 487.256 273.529 487.125 273.008 486.865C272.487 486.6 272.101 486.219 271.85 485.722C271.6 485.22 271.531 484.614 271.645 483.903C271.753 483.278 271.964 482.772 272.277 482.384C272.589 481.991 272.968 481.683 273.413 481.46C273.863 481.233 274.346 481.065 274.862 480.956C275.383 480.842 275.901 480.755 276.417 480.693C277.09 480.608 277.636 480.542 278.058 480.494C278.479 480.447 278.797 480.369 279.01 480.26C279.223 480.151 279.353 479.964 279.4 479.699V479.642C279.514 478.946 279.422 478.404 279.123 478.016C278.825 477.623 278.292 477.426 277.525 477.426C276.73 477.426 276.065 477.601 275.529 477.952C274.994 478.302 274.599 478.676 274.343 479.074L272.866 478.506C273.254 477.843 273.718 477.327 274.258 476.957C274.798 476.583 275.364 476.323 275.956 476.176C276.547 476.025 277.118 475.949 277.667 475.949C278.018 475.949 278.413 475.991 278.853 476.077C279.294 476.157 279.706 476.325 280.089 476.581C280.477 476.837 280.769 477.223 280.963 477.739C281.162 478.255 281.19 478.946 281.048 479.812L279.855 487H278.179L278.434 485.523H278.349C278.198 485.759 277.966 486.013 277.653 486.283C277.345 486.553 276.955 486.782 276.481 486.972C276.012 487.161 275.461 487.256 274.826 487.256ZM275.309 485.75C275.972 485.75 276.552 485.62 277.049 485.359C277.551 485.099 277.954 484.763 278.257 484.351C278.565 483.939 278.756 483.506 278.832 483.051L279.088 481.517C279.002 481.602 278.834 481.68 278.583 481.751C278.333 481.818 278.048 481.877 277.731 481.929C277.419 481.976 277.113 482.019 276.815 482.057C276.521 482.09 276.285 482.118 276.105 482.142C275.66 482.199 275.236 482.291 274.833 482.419C274.436 482.542 274.1 482.729 273.825 482.98C273.555 483.226 273.387 483.562 273.321 483.989C273.221 484.571 273.361 485.011 273.74 485.31C274.118 485.603 274.642 485.75 275.309 485.75ZM282.914 487L284.732 476.091H286.352L286.067 477.739H286.181C286.465 477.199 286.898 476.761 287.481 476.425C288.063 476.089 288.681 475.92 289.335 475.92C289.462 475.92 289.616 475.923 289.796 475.928C289.976 475.928 290.116 475.935 290.215 475.949L289.931 477.653C289.874 477.639 289.746 477.618 289.548 477.589C289.349 477.556 289.136 477.54 288.908 477.54C288.378 477.54 287.888 477.651 287.438 477.874C286.988 478.091 286.612 478.394 286.309 478.783C286.006 479.166 285.812 479.604 285.727 480.097L284.59 487H282.914ZM297.641 476.091L297.413 477.511H291.76L291.987 476.091H297.641ZM294.061 473.477H295.737L294.004 483.875C293.929 484.348 293.94 484.704 294.04 484.94C294.144 485.172 294.3 485.329 294.509 485.409C294.722 485.485 294.951 485.523 295.197 485.523C295.382 485.523 295.534 485.513 295.652 485.494C295.77 485.471 295.865 485.452 295.936 485.438L296.05 486.943C295.922 486.986 295.749 487.028 295.531 487.071C295.318 487.118 295.055 487.142 294.743 487.142C294.269 487.142 293.824 487.04 293.408 486.837C292.991 486.633 292.671 486.323 292.449 485.906C292.226 485.49 292.167 484.964 292.271 484.33L294.061 473.477ZM307.296 478.534L305.705 478.96C305.648 478.705 305.549 478.458 305.407 478.222C305.27 477.98 305.057 477.784 304.768 477.632C304.484 477.476 304.095 477.398 303.603 477.398C302.935 477.398 302.355 477.552 301.863 477.859C301.371 478.162 301.089 478.548 301.018 479.017C300.947 479.429 301.041 479.758 301.302 480.004C301.562 480.25 301.998 480.452 302.609 480.608L304.171 481.006C305.109 481.247 305.776 481.609 306.174 482.092C306.576 482.571 306.714 483.193 306.586 483.96C306.482 484.585 306.21 485.144 305.769 485.636C305.329 486.129 304.765 486.517 304.079 486.801C303.392 487.085 302.628 487.227 301.785 487.227C300.663 487.227 299.777 486.986 299.129 486.503C298.48 486.015 298.134 485.31 298.092 484.386L299.768 483.989C299.81 484.571 300.019 485.011 300.393 485.31C300.772 485.603 301.302 485.75 301.984 485.75C302.765 485.75 303.416 485.584 303.937 485.253C304.458 484.917 304.754 484.514 304.825 484.045C304.896 483.662 304.82 483.342 304.597 483.087C304.379 482.831 304.001 482.639 303.461 482.511L301.728 482.085C300.762 481.844 300.085 481.474 299.697 480.977C299.313 480.48 299.185 479.855 299.313 479.102C299.417 478.487 299.683 477.942 300.109 477.469C300.54 476.995 301.079 476.624 301.728 476.354C302.381 476.084 303.092 475.949 303.859 475.949C304.938 475.949 305.746 476.186 306.281 476.659C306.816 477.128 307.154 477.753 307.296 478.534ZM316.978 480.438L315.899 487H314.223L316.637 472.455H318.314L317.433 477.795H317.575C317.916 477.227 318.37 476.777 318.939 476.446C319.511 476.115 320.231 475.949 321.098 475.949C321.836 475.949 322.459 476.098 322.966 476.396C323.477 476.69 323.837 477.142 324.045 477.753C324.258 478.359 324.289 479.131 324.137 480.068L322.973 487H321.297L322.433 480.182C322.575 479.315 322.459 478.645 322.085 478.172C321.716 477.694 321.14 477.455 320.359 477.455C319.81 477.455 319.298 477.571 318.825 477.803C318.356 478.035 317.958 478.373 317.632 478.818C317.31 479.263 317.092 479.803 316.978 480.438ZM330.585 487.227C329.538 487.227 328.674 486.995 327.992 486.531C327.31 486.062 326.835 485.409 326.565 484.571C326.295 483.728 326.252 482.748 326.437 481.631C326.621 480.513 326.988 479.528 327.538 478.676C328.087 477.819 328.771 477.152 329.59 476.673C330.409 476.19 331.309 475.949 332.289 475.949C332.857 475.949 333.404 476.044 333.93 476.233C334.455 476.422 334.91 476.73 335.293 477.156C335.677 477.578 335.944 478.136 336.096 478.832C336.247 479.528 336.238 480.385 336.067 481.403L335.954 482.114H327.545L327.772 480.665H334.477C334.585 480.049 334.557 479.5 334.391 479.017C334.23 478.534 333.949 478.153 333.546 477.874C333.148 477.594 332.644 477.455 332.033 477.455C331.404 477.455 330.817 477.625 330.272 477.966C329.728 478.302 329.273 478.728 328.908 479.244C328.544 479.756 328.317 480.277 328.227 480.807L328.028 482.057C327.886 482.961 327.907 483.681 328.092 484.216C328.281 484.751 328.61 485.137 329.079 485.374C329.548 485.606 330.135 485.722 330.84 485.722C331.29 485.722 331.704 485.66 332.083 485.537C332.462 485.409 332.8 485.22 333.099 484.969C333.397 484.713 333.648 484.396 333.852 484.017L335.386 484.472C335.125 485.021 334.758 485.504 334.285 485.92C333.816 486.332 333.267 486.654 332.637 486.886C332.012 487.114 331.328 487.227 330.585 487.227ZM337.719 487L339.537 476.091H341.156L340.872 477.739H340.986C341.27 477.199 341.703 476.761 342.286 476.425C342.868 476.089 343.486 475.92 344.139 475.92C344.267 475.92 344.421 475.923 344.601 475.928C344.781 475.928 344.92 475.935 345.02 475.949L344.736 477.653C344.679 477.639 344.551 477.618 344.352 477.589C344.153 477.556 343.94 477.54 343.713 477.54C343.183 477.54 342.693 477.651 342.243 477.874C341.793 478.091 341.417 478.394 341.114 478.783C340.811 479.166 340.616 479.604 340.531 480.097L339.395 487H337.719ZM349.413 487.227C348.366 487.227 347.502 486.995 346.82 486.531C346.138 486.062 345.663 485.409 345.393 484.571C345.123 483.728 345.08 482.748 345.265 481.631C345.45 480.513 345.817 479.528 346.366 478.676C346.915 477.819 347.599 477.152 348.418 476.673C349.237 476.19 350.137 475.949 351.117 475.949C351.685 475.949 352.232 476.044 352.758 476.233C353.283 476.422 353.738 476.73 354.121 477.156C354.505 477.578 354.772 478.136 354.924 478.832C355.076 479.528 355.066 480.385 354.896 481.403L354.782 482.114H346.373L346.6 480.665H353.305C353.414 480.049 353.385 479.5 353.219 479.017C353.058 478.534 352.777 478.153 352.374 477.874C351.977 477.594 351.472 477.455 350.862 477.455C350.232 477.455 349.645 477.625 349.1 477.966C348.556 478.302 348.101 478.728 347.737 479.244C347.372 479.756 347.145 480.277 347.055 480.807L346.856 482.057C346.714 482.961 346.735 483.681 346.92 484.216C347.109 484.751 347.438 485.137 347.907 485.374C348.376 485.606 348.963 485.722 349.668 485.722C350.118 485.722 350.532 485.66 350.911 485.537C351.29 485.409 351.629 485.22 351.927 484.969C352.225 484.713 352.476 484.396 352.68 484.017L354.214 484.472C353.953 485.021 353.586 485.504 353.113 485.92C352.644 486.332 352.095 486.654 351.465 486.886C350.84 487.114 350.156 487.227 349.413 487.227ZM357.967 487.114C357.607 487.114 357.307 486.991 357.065 486.744C356.824 486.493 356.698 486.19 356.689 485.835C356.684 485.48 356.81 485.184 357.065 484.947C357.321 484.706 357.622 484.585 357.967 484.585C358.318 484.585 358.621 484.708 358.876 484.955C359.132 485.201 359.255 485.494 359.246 485.835C359.241 486.072 359.179 486.287 359.061 486.482C358.947 486.676 358.794 486.83 358.599 486.943C358.41 487.057 358.199 487.114 357.967 487.114Z" fill="white"/>
<defs>
<clipPath id="clip0_488_34756">
<rect width="277" height="389" fill="white" transform="translate(83)"/>
</clipPath>
</defs>
</svg>
