<svg width="468" height="509" viewBox="0 0 468 509" fill="none" xmlns="http://www.w3.org/2000/svg">
<path d="M16.7045 458L16.9318 456.722C16.9981 456.333 17.1354 455.921 17.3438 455.486C17.5568 455.045 17.8291 454.622 18.1605 454.214C18.4967 453.803 18.8826 453.445 19.3182 453.142L20.0852 453.881C19.7301 454.307 19.401 454.752 19.098 455.216C18.7997 455.675 18.608 456.168 18.5227 456.693L18.2955 458H16.7045ZM20.3409 458L20.5682 456.722C20.6345 456.333 20.7718 455.921 20.9801 455.486C21.1932 455.045 21.4654 454.622 21.7969 454.214C22.133 453.803 22.5189 453.445 22.9545 453.142L23.7216 453.881C23.3665 454.307 23.0374 454.752 22.7344 455.216C22.4361 455.675 22.2443 456.168 22.1591 456.693L21.9318 458H20.3409ZM35.0604 458C34.9893 457.522 34.8662 457.093 34.6911 456.714C34.5206 456.331 34.2933 456.007 34.0092 455.741C33.7251 455.472 33.3819 455.266 32.9794 455.124C32.5817 454.977 32.12 454.903 31.5945 454.903C30.7327 454.903 29.8994 455.126 29.0945 455.571C28.2943 456.016 27.6006 456.672 27.0135 457.538C26.4311 458.405 26.0357 459.468 25.8274 460.727C25.6191 461.987 25.6404 463.05 25.8913 463.916C26.147 464.783 26.585 465.438 27.2053 465.884C27.8303 466.329 28.5926 466.551 29.4922 466.551C30.3255 466.551 31.102 466.374 31.8217 466.018C32.5414 465.659 33.1451 465.152 33.6328 464.499C34.1205 463.84 34.4354 463.066 34.5774 462.176L35.0888 462.29H30.7138L30.9979 460.727H36.5376L36.2536 462.29C36.0642 463.492 35.6428 464.536 34.9893 465.422C34.3359 466.307 33.5215 466.991 32.5462 467.474C31.5708 467.957 30.5054 468.199 29.3501 468.199C28.0623 468.199 26.9827 467.896 26.1115 467.29C25.2403 466.684 24.6271 465.822 24.272 464.705C23.9169 463.587 23.8672 462.261 24.1229 460.727C24.3075 459.577 24.6295 458.542 25.0888 457.624C25.5528 456.7 26.121 455.914 26.7933 455.266C27.4704 454.617 28.2256 454.12 29.0589 453.774C29.897 453.429 30.7801 453.256 31.7081 453.256C32.4751 453.256 33.1712 453.372 33.7962 453.604C34.4259 453.831 34.968 454.155 35.4226 454.577C35.8771 454.993 36.2299 455.493 36.4808 456.075C36.7318 456.653 36.8643 457.295 36.8786 458H35.0604ZM38.1055 468L39.9237 457.091H41.543L41.2589 458.739H41.3725C41.6566 458.199 42.0898 457.761 42.6722 457.425C43.2546 457.089 43.8725 456.92 44.5259 456.92C44.6538 456.92 44.8076 456.923 44.9876 456.928C45.1675 456.928 45.3072 456.935 45.4066 456.949L45.1225 458.653C45.0657 458.639 44.9379 458.618 44.739 458.589C44.5401 458.556 44.3271 458.54 44.0998 458.54C43.5695 458.54 43.0794 458.651 42.6296 458.874C42.1798 459.091 41.8034 459.394 41.5004 459.783C41.1973 460.166 41.0032 460.604 40.918 461.097L39.7816 468H38.1055ZM49.7567 468.227C48.753 468.227 47.9125 467.988 47.2354 467.51C46.5584 467.032 46.0801 466.362 45.8008 465.5C45.5262 464.638 45.4812 463.634 45.6658 462.489C45.8458 461.371 46.2032 460.398 46.7383 459.57C47.2781 458.736 47.948 458.092 48.7482 457.638C49.5531 457.179 50.4386 456.949 51.4045 456.949C52.4083 456.949 53.2463 457.19 53.9187 457.673C54.5958 458.152 55.074 458.824 55.3533 459.69C55.6327 460.552 55.68 461.561 55.4954 462.716C55.3155 463.824 54.9532 464.792 54.4087 465.621C53.869 466.445 53.199 467.086 52.3988 467.545C51.6033 468 50.7227 468.227 49.7567 468.227ZM49.7852 466.722C50.5522 466.722 51.2174 466.525 51.7809 466.132C52.3491 465.739 52.8084 465.221 53.1587 464.577C53.5138 463.933 53.753 463.237 53.8761 462.489C53.9897 461.778 53.985 461.118 53.8619 460.507C53.7388 459.892 53.476 459.397 53.0735 459.023C52.671 458.644 52.1052 458.455 51.3761 458.455C50.609 458.455 49.939 458.653 49.3661 459.051C48.7979 459.449 48.3387 459.972 47.9883 460.621C47.6379 461.269 47.4035 461.968 47.2852 462.716C47.1715 463.426 47.1739 464.087 47.2923 464.697C47.4154 465.304 47.6781 465.794 48.0806 466.168C48.4878 466.537 49.056 466.722 49.7852 466.722ZM59.288 468L57.7823 457.091H59.5437L60.5096 465.443H60.6232L64.3448 457.091H66.1346L67.0437 465.415H67.1573L70.9073 457.091H72.6687L67.5266 468H65.8789L64.8846 459.619H64.7141L60.9357 468H59.288ZM79.1033 472.091C78.8192 472.091 78.5683 472.067 78.3505 472.02C78.1374 471.977 77.9906 471.935 77.9102 471.892L78.592 470.415C78.9802 470.519 79.3259 470.55 79.6289 470.507C79.9367 470.469 80.2279 470.32 80.5025 470.06C80.7818 469.804 81.073 469.402 81.3761 468.852L81.8448 468L79.6573 457.091H81.4045L82.967 465.812H83.0806L87.5408 457.091H89.43L82.7397 469.577C82.4272 470.159 82.0839 470.635 81.7099 471.004C81.3358 471.374 80.931 471.646 80.4954 471.821C80.0598 472.001 79.5958 472.091 79.1033 472.091ZM93.9364 468.227C92.9326 468.227 92.0922 467.988 91.4151 467.51C90.738 467.032 90.2598 466.362 89.9805 465.5C89.7058 464.638 89.6609 463.634 89.8455 462.489C90.0254 461.371 90.3829 460.398 90.918 459.57C91.4577 458.736 92.1277 458.092 92.9279 457.638C93.7328 457.179 94.6183 456.949 95.5842 456.949C96.5879 456.949 97.426 457.19 98.0984 457.673C98.7754 458.152 99.2537 458.824 99.533 459.69C99.8124 460.552 99.8597 461.561 99.6751 462.716C99.4951 463.824 99.1329 464.792 98.5884 465.621C98.0487 466.445 97.3787 467.086 96.5785 467.545C95.783 468 94.9023 468.227 93.9364 468.227ZM93.9648 466.722C94.7319 466.722 95.3971 466.525 95.9606 466.132C96.5288 465.739 96.988 465.221 97.3384 464.577C97.6935 463.933 97.9326 463.237 98.0558 462.489C98.1694 461.778 98.1647 461.118 98.0415 460.507C97.9184 459.892 97.6557 459.397 97.2532 459.023C96.8507 458.644 96.2849 458.455 95.5558 458.455C94.7887 458.455 94.1187 458.653 93.5458 459.051C92.9776 459.449 92.5183 459.972 92.168 460.621C91.8176 461.269 91.5832 461.968 91.4648 462.716C91.3512 463.426 91.3536 464.087 91.4719 464.697C91.5951 465.304 91.8578 465.794 92.2603 466.168C92.6675 466.537 93.2357 466.722 93.9648 466.722ZM108.981 463.54L110.06 457.091H111.737L109.918 468H108.242L108.555 466.153H108.441C108.1 466.707 107.624 467.179 107.013 467.567C106.403 467.95 105.685 468.142 104.862 468.142C104.18 468.142 103.597 467.993 103.114 467.695C102.636 467.392 102.295 466.937 102.092 466.331C101.893 465.72 101.869 464.951 102.021 464.023L103.185 457.091H104.862L103.725 463.909C103.597 464.705 103.718 465.339 104.087 465.812C104.457 466.286 104.989 466.523 105.685 466.523C106.102 466.523 106.542 466.416 107.006 466.203C107.475 465.99 107.892 465.663 108.256 465.223C108.626 464.783 108.867 464.222 108.981 463.54ZM112.988 468L114.806 457.091H116.426L116.142 458.739H116.255C116.539 458.199 116.973 457.761 117.555 457.425C118.137 457.089 118.755 456.92 119.409 456.92C119.537 456.92 119.69 456.923 119.87 456.928C120.05 456.928 120.19 456.935 120.289 456.949L120.005 458.653C119.949 458.639 119.821 458.618 119.622 458.589C119.423 458.556 119.21 458.54 118.983 458.54C118.452 458.54 117.962 458.651 117.512 458.874C117.063 459.091 116.686 459.394 116.383 459.783C116.08 460.166 115.886 460.604 115.801 461.097L114.664 468H112.988ZM126.321 468L128.736 453.455H130.412L129.531 458.824H129.673C129.825 458.634 130.036 458.393 130.305 458.099C130.575 457.801 130.938 457.536 131.392 457.304C131.847 457.067 132.429 456.949 133.139 456.949C134.058 456.949 134.827 457.179 135.447 457.638C136.072 458.097 136.51 458.748 136.761 459.591C137.017 460.434 137.05 461.428 136.861 462.574C136.671 463.729 136.309 464.731 135.774 465.578C135.244 466.421 134.59 467.074 133.814 467.538C133.042 467.998 132.202 468.227 131.293 468.227C130.592 468.227 130.05 468.111 129.666 467.879C129.287 467.643 129.008 467.375 128.828 467.077C128.653 466.774 128.518 466.523 128.423 466.324H128.224L127.94 468H126.321ZM128.878 462.545C128.745 463.369 128.748 464.096 128.885 464.726C129.022 465.351 129.295 465.841 129.702 466.196C130.109 466.546 130.649 466.722 131.321 466.722C132.022 466.722 132.637 466.537 133.168 466.168C133.698 465.794 134.134 465.292 134.474 464.662C134.815 464.027 135.052 463.322 135.185 462.545C135.308 461.778 135.303 461.087 135.17 460.472C135.043 459.851 134.773 459.361 134.361 459.001C133.954 458.637 133.395 458.455 132.685 458.455C132.003 458.455 131.399 458.627 130.874 458.973C130.353 459.314 129.922 459.792 129.581 460.408C129.245 461.018 129.01 461.731 128.878 462.545ZM146.129 463.54L147.209 457.091H148.885L147.067 468H145.391L145.703 466.153H145.589C145.249 466.707 144.773 467.179 144.162 467.567C143.551 467.95 142.834 468.142 142.01 468.142C141.328 468.142 140.746 467.993 140.263 467.695C139.785 467.392 139.444 466.937 139.24 466.331C139.041 465.72 139.018 464.951 139.169 464.023L140.334 457.091H142.01L140.874 463.909C140.746 464.705 140.866 465.339 141.236 465.812C141.605 466.286 142.138 466.523 142.834 466.523C143.25 466.523 143.691 466.416 144.155 466.203C144.624 465.99 145.04 465.663 145.405 465.223C145.774 464.783 146.016 464.222 146.129 463.54ZM159.284 459.534L157.694 459.96C157.637 459.705 157.537 459.458 157.395 459.222C157.258 458.98 157.045 458.784 156.756 458.632C156.472 458.476 156.084 458.398 155.591 458.398C154.924 458.398 154.344 458.552 153.851 458.859C153.359 459.162 153.077 459.548 153.006 460.017C152.935 460.429 153.03 460.758 153.29 461.004C153.551 461.25 153.986 461.452 154.597 461.608L156.159 462.006C157.097 462.247 157.765 462.609 158.162 463.092C158.565 463.571 158.702 464.193 158.574 464.96C158.47 465.585 158.198 466.144 157.757 466.636C157.317 467.129 156.754 467.517 156.067 467.801C155.381 468.085 154.616 468.227 153.773 468.227C152.651 468.227 151.766 467.986 151.117 467.503C150.468 467.015 150.123 466.31 150.08 465.386L151.756 464.989C151.799 465.571 152.007 466.011 152.381 466.31C152.76 466.603 153.29 466.75 153.972 466.75C154.753 466.75 155.404 466.584 155.925 466.253C156.446 465.917 156.742 465.514 156.813 465.045C156.884 464.662 156.808 464.342 156.586 464.087C156.368 463.831 155.989 463.639 155.449 463.511L153.716 463.085C152.75 462.844 152.073 462.474 151.685 461.977C151.301 461.48 151.174 460.855 151.301 460.102C151.406 459.487 151.671 458.942 152.097 458.469C152.528 457.995 153.068 457.624 153.716 457.354C154.37 457.084 155.08 456.949 155.847 456.949C156.926 456.949 157.734 457.186 158.269 457.659C158.804 458.128 159.142 458.753 159.284 459.534ZM160.586 468L162.404 457.091H164.08L162.262 468H160.586ZM163.754 455.244C163.427 455.244 163.145 455.133 162.908 454.911C162.676 454.688 162.56 454.42 162.56 454.108C162.56 453.795 162.676 453.528 162.908 453.305C163.145 453.083 163.427 452.972 163.754 452.972C164.08 452.972 164.36 453.083 164.592 453.305C164.828 453.528 164.947 453.795 164.947 454.108C164.947 454.42 164.828 454.688 164.592 454.911C164.36 455.133 164.08 455.244 163.754 455.244ZM168.088 461.438L167.008 468H165.332L167.15 457.091H168.77L168.485 458.795H168.627C168.968 458.241 169.43 457.796 170.012 457.46C170.595 457.119 171.298 456.949 172.122 456.949C172.851 456.949 173.467 457.1 173.968 457.403C174.475 457.702 174.833 458.156 175.041 458.767C175.254 459.373 175.285 460.14 175.133 461.068L173.968 468H172.292L173.429 461.182C173.571 460.33 173.459 459.662 173.095 459.179C172.735 458.696 172.164 458.455 171.383 458.455C170.843 458.455 170.344 458.571 169.885 458.803C169.43 459.035 169.044 459.373 168.727 459.818C168.414 460.263 168.201 460.803 168.088 461.438ZM181.577 468.227C180.53 468.227 179.666 467.995 178.984 467.531C178.303 467.062 177.827 466.409 177.557 465.571C177.287 464.728 177.244 463.748 177.429 462.631C177.614 461.513 177.981 460.528 178.53 459.676C179.079 458.819 179.763 458.152 180.582 457.673C181.402 457.19 182.301 456.949 183.281 456.949C183.849 456.949 184.396 457.044 184.922 457.233C185.447 457.422 185.902 457.73 186.286 458.156C186.669 458.578 186.937 459.136 187.088 459.832C187.24 460.528 187.23 461.385 187.06 462.403L186.946 463.114H178.537L178.764 461.665H185.469C185.578 461.049 185.549 460.5 185.384 460.017C185.223 459.534 184.941 459.153 184.538 458.874C184.141 458.594 183.636 458.455 183.026 458.455C182.396 458.455 181.809 458.625 181.264 458.966C180.72 459.302 180.265 459.728 179.901 460.244C179.536 460.756 179.309 461.277 179.219 461.807L179.02 463.057C178.878 463.961 178.899 464.681 179.084 465.216C179.273 465.751 179.602 466.137 180.071 466.374C180.54 466.606 181.127 466.722 181.832 466.722C182.282 466.722 182.696 466.66 183.075 466.537C183.454 466.409 183.793 466.22 184.091 465.969C184.389 465.713 184.64 465.396 184.844 465.017L186.378 465.472C186.117 466.021 185.75 466.504 185.277 466.92C184.808 467.332 184.259 467.654 183.629 467.886C183.004 468.114 182.32 468.227 181.577 468.227ZM197.859 459.534L196.268 459.96C196.211 459.705 196.112 459.458 195.969 459.222C195.832 458.98 195.619 458.784 195.33 458.632C195.046 458.476 194.658 458.398 194.165 458.398C193.498 458.398 192.918 458.552 192.425 458.859C191.933 459.162 191.651 459.548 191.58 460.017C191.509 460.429 191.604 460.758 191.864 461.004C192.125 461.25 192.56 461.452 193.171 461.608L194.734 462.006C195.671 462.247 196.339 462.609 196.737 463.092C197.139 463.571 197.276 464.193 197.148 464.96C197.044 465.585 196.772 466.144 196.332 466.636C195.891 467.129 195.328 467.517 194.641 467.801C193.955 468.085 193.19 468.227 192.347 468.227C191.225 468.227 190.34 467.986 189.691 467.503C189.042 467.015 188.697 466.31 188.654 465.386L190.33 464.989C190.373 465.571 190.581 466.011 190.955 466.31C191.334 466.603 191.864 466.75 192.546 466.75C193.327 466.75 193.978 466.584 194.499 466.253C195.02 465.917 195.316 465.514 195.387 465.045C195.458 464.662 195.382 464.342 195.16 464.087C194.942 463.831 194.563 463.639 194.023 463.511L192.29 463.085C191.325 462.844 190.647 462.474 190.259 461.977C189.876 461.48 189.748 460.855 189.876 460.102C189.98 459.487 190.245 458.942 190.671 458.469C191.102 457.995 191.642 457.624 192.29 457.354C192.944 457.084 193.654 456.949 194.421 456.949C195.501 456.949 196.308 457.186 196.843 457.659C197.378 458.128 197.717 458.753 197.859 459.534ZM208.308 459.534L206.717 459.96C206.66 459.705 206.561 459.458 206.419 459.222C206.281 458.98 206.068 458.784 205.779 458.632C205.495 458.476 205.107 458.398 204.615 458.398C203.947 458.398 203.367 458.552 202.875 458.859C202.382 459.162 202.1 459.548 202.029 460.017C201.958 460.429 202.053 460.758 202.314 461.004C202.574 461.25 203.01 461.452 203.62 461.608L205.183 462.006C206.12 462.247 206.788 462.609 207.186 463.092C207.588 463.571 207.725 464.193 207.598 464.96C207.493 465.585 207.221 466.144 206.781 466.636C206.341 467.129 205.777 467.517 205.091 467.801C204.404 468.085 203.639 468.227 202.797 468.227C201.674 468.227 200.789 467.986 200.14 467.503C199.492 467.015 199.146 466.31 199.103 465.386L200.779 464.989C200.822 465.571 201.03 466.011 201.404 466.31C201.783 466.603 202.314 466.75 202.995 466.75C203.777 466.75 204.428 466.584 204.949 466.253C205.469 465.917 205.765 465.514 205.836 465.045C205.907 464.662 205.832 464.342 205.609 464.087C205.391 463.831 205.012 463.639 204.473 463.511L202.74 463.085C201.774 462.844 201.097 462.474 200.708 461.977C200.325 461.48 200.197 460.855 200.325 460.102C200.429 459.487 200.694 458.942 201.12 458.469C201.551 457.995 202.091 457.624 202.74 457.354C203.393 457.084 204.103 456.949 204.87 456.949C205.95 456.949 206.757 457.186 207.292 457.659C207.827 458.128 208.166 458.753 208.308 459.534ZM218.416 468.256C217.725 468.256 217.119 468.125 216.598 467.865C216.077 467.6 215.691 467.219 215.44 466.722C215.189 466.22 215.121 465.614 215.234 464.903C215.343 464.278 215.554 463.772 215.866 463.384C216.179 462.991 216.558 462.683 217.003 462.46C217.453 462.233 217.936 462.065 218.452 461.956C218.973 461.842 219.491 461.755 220.007 461.693C220.679 461.608 221.226 461.542 221.648 461.494C222.069 461.447 222.386 461.369 222.599 461.26C222.813 461.151 222.943 460.964 222.99 460.699V460.642C223.104 459.946 223.011 459.404 222.713 459.016C222.415 458.623 221.882 458.426 221.115 458.426C220.32 458.426 219.654 458.601 219.119 458.952C218.584 459.302 218.189 459.676 217.933 460.074L216.456 459.506C216.844 458.843 217.308 458.327 217.848 457.957C218.388 457.583 218.954 457.323 219.545 457.176C220.137 457.025 220.708 456.949 221.257 456.949C221.607 456.949 222.003 456.991 222.443 457.077C222.884 457.157 223.295 457.325 223.679 457.581C224.067 457.837 224.358 458.223 224.553 458.739C224.751 459.255 224.78 459.946 224.638 460.812L223.445 468H221.768L222.024 466.523H221.939C221.787 466.759 221.555 467.013 221.243 467.283C220.935 467.553 220.545 467.782 220.071 467.972C219.602 468.161 219.051 468.256 218.416 468.256ZM218.899 466.75C219.562 466.75 220.142 466.62 220.639 466.359C221.141 466.099 221.544 465.763 221.847 465.351C222.154 464.939 222.346 464.506 222.422 464.051L222.678 462.517C222.592 462.602 222.424 462.68 222.173 462.751C221.922 462.818 221.638 462.877 221.321 462.929C221.009 462.976 220.703 463.019 220.405 463.057C220.111 463.09 219.875 463.118 219.695 463.142C219.25 463.199 218.826 463.291 218.423 463.419C218.026 463.542 217.689 463.729 217.415 463.98C217.145 464.226 216.977 464.562 216.911 464.989C216.811 465.571 216.951 466.011 217.33 466.31C217.708 466.603 218.232 466.75 218.899 466.75ZM229.26 461.438L228.18 468H226.504L228.322 457.091H229.941L229.657 458.795H229.799C230.14 458.241 230.602 457.796 231.184 457.46C231.767 457.119 232.47 456.949 233.294 456.949C234.023 456.949 234.638 457.1 235.14 457.403C235.647 457.702 236.004 458.156 236.213 458.767C236.426 459.373 236.457 460.14 236.305 461.068L235.14 468H233.464L234.6 461.182C234.743 460.33 234.631 459.662 234.267 459.179C233.907 458.696 233.336 458.455 232.555 458.455C232.015 458.455 231.516 458.571 231.056 458.803C230.602 459.035 230.216 459.373 229.899 459.818C229.586 460.263 229.373 460.803 229.26 461.438ZM242.308 468.227C241.394 468.227 240.627 467.998 240.007 467.538C239.387 467.074 238.949 466.421 238.693 465.578C238.442 464.731 238.411 463.729 238.601 462.574C238.795 461.428 239.157 460.434 239.688 459.591C240.223 458.748 240.878 458.097 241.655 457.638C242.431 457.179 243.279 456.949 244.197 456.949C244.908 456.949 245.45 457.067 245.824 457.304C246.203 457.536 246.477 457.801 246.648 458.099C246.818 458.393 246.948 458.634 247.038 458.824H247.18L248.075 453.455H249.751L247.337 468H245.717L246.001 466.324H245.803C245.646 466.523 245.429 466.774 245.149 467.077C244.87 467.375 244.5 467.643 244.041 467.879C243.587 468.111 243.009 468.227 242.308 468.227ZM242.72 466.722C243.393 466.722 243.994 466.546 244.524 466.196C245.059 465.841 245.504 465.351 245.859 464.726C246.214 464.096 246.461 463.369 246.598 462.545C246.735 461.731 246.731 461.018 246.584 460.408C246.437 459.792 246.155 459.314 245.739 458.973C245.322 458.627 244.77 458.455 244.084 458.455C243.378 458.455 242.765 458.637 242.244 459.001C241.723 459.361 241.3 459.851 240.973 460.472C240.646 461.087 240.419 461.778 240.291 462.545C240.163 463.322 240.161 464.027 240.284 464.662C240.407 465.292 240.668 465.794 241.065 466.168C241.468 466.537 242.019 466.722 242.72 466.722ZM260.653 468.227C259.626 468.227 258.783 467.986 258.125 467.503C257.472 467.02 257.017 466.355 256.761 465.507C256.506 464.66 256.468 463.691 256.648 462.602C256.828 461.494 257.192 460.517 257.741 459.669C258.291 458.817 258.975 458.152 259.794 457.673C260.613 457.19 261.515 456.949 262.5 456.949C263.267 456.949 263.935 457.091 264.503 457.375C265.071 457.659 265.509 458.057 265.817 458.568C266.125 459.08 266.269 459.676 266.25 460.358H264.574C264.527 459.861 264.313 459.42 263.935 459.037C263.561 458.649 263.007 458.455 262.273 458.455C261.619 458.455 261.018 458.625 260.469 458.966C259.92 459.302 259.458 459.778 259.084 460.393C258.71 461.004 258.456 461.722 258.324 462.545C258.182 463.388 258.194 464.122 258.359 464.747C258.525 465.372 258.826 465.857 259.261 466.203C259.697 466.549 260.246 466.722 260.909 466.722C261.345 466.722 261.752 466.646 262.131 466.494C262.509 466.343 262.846 466.125 263.139 465.841C263.433 465.557 263.665 465.216 263.835 464.818H265.511C265.303 465.462 264.969 466.042 264.51 466.558C264.051 467.07 263.494 467.477 262.841 467.78C262.188 468.078 261.458 468.227 260.653 468.227ZM271.925 468.227C270.921 468.227 270.08 467.988 269.403 467.51C268.726 467.032 268.248 466.362 267.969 465.5C267.694 464.638 267.649 463.634 267.834 462.489C268.014 461.371 268.371 460.398 268.906 459.57C269.446 458.736 270.116 458.092 270.916 457.638C271.721 457.179 272.607 456.949 273.572 456.949C274.576 456.949 275.414 457.19 276.087 457.673C276.764 458.152 277.242 458.824 277.521 459.69C277.801 460.552 277.848 461.561 277.663 462.716C277.483 463.824 277.121 464.792 276.577 465.621C276.037 466.445 275.367 467.086 274.567 467.545C273.771 468 272.891 468.227 271.925 468.227ZM271.953 466.722C272.72 466.722 273.385 466.525 273.949 466.132C274.517 465.739 274.976 465.221 275.327 464.577C275.682 463.933 275.921 463.237 276.044 462.489C276.158 461.778 276.153 461.118 276.03 460.507C275.907 459.892 275.644 459.397 275.241 459.023C274.839 458.644 274.273 458.455 273.544 458.455C272.777 458.455 272.107 458.653 271.534 459.051C270.966 459.449 270.507 459.972 270.156 460.621C269.806 461.269 269.571 461.968 269.453 462.716C269.339 463.426 269.342 464.087 269.46 464.697C269.583 465.304 269.846 465.794 270.249 466.168C270.656 466.537 271.224 466.722 271.953 466.722ZM282.111 461.438L281.032 468H279.355L281.174 457.091H282.793L282.509 458.795H282.651C282.992 458.241 283.453 457.796 284.036 457.46C284.618 457.119 285.321 456.949 286.145 456.949C286.874 456.949 287.49 457.1 287.992 457.403C288.498 457.702 288.856 458.156 289.064 458.767C289.277 459.373 289.308 460.14 289.157 461.068L287.992 468H286.316L287.452 461.182C287.594 460.33 287.483 459.662 287.118 459.179C286.758 458.696 286.188 458.455 285.407 458.455C284.867 458.455 284.367 458.571 283.908 458.803C283.453 459.035 283.068 459.373 282.75 459.818C282.438 460.263 282.225 460.803 282.111 461.438ZM293.81 461.438L292.731 468H291.055L292.873 457.091H294.492L294.208 458.795H294.35C294.691 458.241 295.153 457.796 295.735 457.46C296.317 457.119 297.021 456.949 297.844 456.949C298.574 456.949 299.189 457.1 299.691 457.403C300.198 457.702 300.555 458.156 300.763 458.767C300.977 459.373 301.007 460.14 300.856 461.068L299.691 468H298.015L299.151 461.182C299.293 460.33 299.182 459.662 298.817 459.179C298.458 458.696 297.887 458.455 297.106 458.455C296.566 458.455 296.067 458.571 295.607 458.803C295.153 459.035 294.767 459.373 294.45 459.818C294.137 460.263 293.924 460.803 293.81 461.438ZM307.299 468.227C306.253 468.227 305.389 467.995 304.707 467.531C304.025 467.062 303.549 466.409 303.279 465.571C303.01 464.728 302.967 463.748 303.152 462.631C303.336 461.513 303.703 460.528 304.252 459.676C304.802 458.819 305.486 458.152 306.305 457.673C307.124 457.19 308.024 456.949 309.004 456.949C309.572 456.949 310.119 457.044 310.645 457.233C311.17 457.422 311.625 457.73 312.008 458.156C312.392 458.578 312.659 459.136 312.811 459.832C312.962 460.528 312.953 461.385 312.782 462.403L312.669 463.114H304.26L304.487 461.665H311.191C311.3 461.049 311.272 460.5 311.106 460.017C310.945 459.534 310.663 459.153 310.261 458.874C309.863 458.594 309.359 458.455 308.748 458.455C308.118 458.455 307.531 458.625 306.987 458.966C306.442 459.302 305.988 459.728 305.623 460.244C305.259 460.756 305.031 461.277 304.941 461.807L304.743 463.057C304.6 463.961 304.622 464.681 304.806 465.216C304.996 465.751 305.325 466.137 305.794 466.374C306.262 466.606 306.85 466.722 307.555 466.722C308.005 466.722 308.419 466.66 308.798 466.537C309.177 466.409 309.515 466.22 309.814 465.969C310.112 465.713 310.363 465.396 310.566 465.017L312.1 465.472C311.84 466.021 311.473 466.504 311 466.92C310.531 467.332 309.982 467.654 309.352 467.886C308.727 468.114 308.043 468.227 307.299 468.227ZM318.837 468.227C317.81 468.227 316.967 467.986 316.309 467.503C315.655 467.02 315.201 466.355 314.945 465.507C314.689 464.66 314.651 463.691 314.831 462.602C315.011 461.494 315.376 460.517 315.925 459.669C316.474 458.817 317.158 458.152 317.978 457.673C318.797 457.19 319.699 456.949 320.684 456.949C321.451 456.949 322.118 457.091 322.686 457.375C323.255 457.659 323.693 458.057 324 458.568C324.308 459.08 324.453 459.676 324.434 460.358H322.757C322.71 459.861 322.497 459.42 322.118 459.037C321.744 458.649 321.19 458.455 320.456 458.455C319.803 458.455 319.202 458.625 318.652 458.966C318.103 459.302 317.641 459.778 317.267 460.393C316.893 461.004 316.64 461.722 316.507 462.545C316.365 463.388 316.377 464.122 316.543 464.747C316.709 465.372 317.009 465.857 317.445 466.203C317.881 466.549 318.43 466.722 319.093 466.722C319.528 466.722 319.935 466.646 320.314 466.494C320.693 466.343 321.029 466.125 321.323 465.841C321.616 465.557 321.848 465.216 322.019 464.818H323.695C323.487 465.462 323.153 466.042 322.694 466.558C322.234 467.07 321.678 467.477 321.025 467.78C320.371 468.078 319.642 468.227 318.837 468.227ZM332.168 457.091L331.941 458.511H326.287L326.515 457.091H332.168ZM328.588 454.477H330.265L328.532 464.875C328.456 465.348 328.468 465.704 328.567 465.94C328.671 466.172 328.828 466.329 329.036 466.409C329.249 466.485 329.479 466.523 329.725 466.523C329.909 466.523 330.061 466.513 330.179 466.494C330.298 466.471 330.392 466.452 330.463 466.438L330.577 467.943C330.449 467.986 330.276 468.028 330.059 468.071C329.846 468.118 329.583 468.142 329.27 468.142C328.797 468.142 328.352 468.04 327.935 467.837C327.518 467.633 327.199 467.323 326.976 466.906C326.754 466.49 326.694 465.964 326.799 465.33L328.588 454.477ZM340.968 468L339.462 457.091H341.223L342.189 465.443H342.303L346.025 457.091H347.814L348.723 465.415H348.837L352.587 457.091H354.348L349.206 468H347.559L346.564 459.619H346.394L342.615 468H340.968ZM354.746 468L356.564 457.091H358.24L356.422 468H354.746ZM357.914 455.244C357.587 455.244 357.305 455.133 357.069 454.911C356.837 454.688 356.721 454.42 356.721 454.108C356.721 453.795 356.837 453.528 357.069 453.305C357.305 453.083 357.587 452.972 357.914 452.972C358.24 452.972 358.52 453.083 358.752 453.305C358.989 453.528 359.107 453.795 359.107 454.108C359.107 454.42 358.989 454.688 358.752 454.911C358.52 455.133 358.24 455.244 357.914 455.244ZM366.055 457.091L365.827 458.511H360.174L360.401 457.091H366.055ZM362.475 454.477H364.151L362.418 464.875C362.343 465.348 362.354 465.704 362.454 465.94C362.558 466.172 362.714 466.329 362.923 466.409C363.136 466.485 363.365 466.523 363.612 466.523C363.796 466.523 363.948 466.513 364.066 466.494C364.184 466.471 364.279 466.452 364.35 466.438L364.464 467.943C364.336 467.986 364.163 468.028 363.945 468.071C363.732 468.118 363.469 468.142 363.157 468.142C362.683 468.142 362.238 468.04 361.822 467.837C361.405 467.633 361.085 467.323 360.863 466.906C360.64 466.49 360.581 465.964 360.685 465.33L362.475 454.477ZM369.748 461.438L368.668 468H366.992L369.407 453.455H371.083L370.202 458.795H370.344C370.685 458.227 371.14 457.777 371.708 457.446C372.281 457.115 373.001 456.949 373.867 456.949C374.606 456.949 375.228 457.098 375.735 457.396C376.246 457.69 376.606 458.142 376.815 458.753C377.028 459.359 377.058 460.131 376.907 461.068L375.742 468H374.066L375.202 461.182C375.344 460.315 375.228 459.645 374.854 459.172C374.485 458.694 373.91 458.455 373.129 458.455C372.579 458.455 372.068 458.571 371.594 458.803C371.126 459.035 370.728 459.373 370.401 459.818C370.079 460.263 369.862 460.803 369.748 461.438ZM388.837 468.227C387.81 468.227 386.967 467.986 386.309 467.503C385.655 467.02 385.201 466.355 384.945 465.507C384.689 464.66 384.651 463.691 384.831 462.602C385.011 461.494 385.376 460.517 385.925 459.669C386.474 458.817 387.158 458.152 387.978 457.673C388.797 457.19 389.699 456.949 390.684 456.949C391.451 456.949 392.118 457.091 392.686 457.375C393.255 457.659 393.693 458.057 394 458.568C394.308 459.08 394.453 459.676 394.434 460.358H392.757C392.71 459.861 392.497 459.42 392.118 459.037C391.744 458.649 391.19 458.455 390.456 458.455C389.803 458.455 389.202 458.625 388.652 458.966C388.103 459.302 387.641 459.778 387.267 460.393C386.893 461.004 386.64 461.722 386.507 462.545C386.365 463.388 386.377 464.122 386.543 464.747C386.709 465.372 387.009 465.857 387.445 466.203C387.881 466.549 388.43 466.722 389.093 466.722C389.528 466.722 389.935 466.646 390.314 466.494C390.693 466.343 391.029 466.125 391.323 465.841C391.616 465.557 391.848 465.216 392.019 464.818H393.695C393.487 465.462 393.153 466.042 392.694 466.558C392.234 467.07 391.678 467.477 391.025 467.78C390.371 468.078 389.642 468.227 388.837 468.227ZM399.696 453.455L397.282 468H395.605L398.02 453.455H399.696ZM400.352 468L402.17 457.091H403.846L402.028 468H400.352ZM403.519 455.244C403.192 455.244 402.911 455.133 402.674 454.911C402.442 454.688 402.326 454.42 402.326 454.108C402.326 453.795 402.442 453.528 402.674 453.305C402.911 453.083 403.192 452.972 403.519 452.972C403.846 452.972 404.125 453.083 404.357 453.305C404.594 453.528 404.712 453.795 404.712 454.108C404.712 454.42 404.594 454.688 404.357 454.911C404.125 455.133 403.846 455.244 403.519 455.244ZM409.643 468.227C408.597 468.227 407.733 467.995 407.051 467.531C406.369 467.062 405.893 466.409 405.623 465.571C405.353 464.728 405.311 463.748 405.495 462.631C405.68 461.513 406.047 460.528 406.596 459.676C407.145 458.819 407.83 458.152 408.649 457.673C409.468 457.19 410.368 456.949 411.348 456.949C411.916 456.949 412.463 457.044 412.988 457.233C413.514 457.422 413.968 457.73 414.352 458.156C414.735 458.578 415.003 459.136 415.154 459.832C415.306 460.528 415.297 461.385 415.126 462.403L415.012 463.114H406.603L406.831 461.665H413.535C413.644 461.049 413.616 460.5 413.45 460.017C413.289 459.534 413.007 459.153 412.605 458.874C412.207 458.594 411.703 458.455 411.092 458.455C410.462 458.455 409.875 458.625 409.331 458.966C408.786 459.302 408.332 459.728 407.967 460.244C407.602 460.756 407.375 461.277 407.285 461.807L407.086 463.057C406.944 463.961 406.966 464.681 407.15 465.216C407.34 465.751 407.669 466.137 408.137 466.374C408.606 466.606 409.193 466.722 409.899 466.722C410.349 466.722 410.763 466.66 411.142 466.537C411.52 466.409 411.859 466.22 412.157 465.969C412.456 465.713 412.707 465.396 412.91 465.017L414.444 465.472C414.184 466.021 413.817 466.504 413.343 466.92C412.875 467.332 412.325 467.654 411.696 467.886C411.071 468.114 410.386 468.227 409.643 468.227ZM419.533 461.438L418.453 468H416.777L418.596 457.091H420.215L419.931 458.795H420.073C420.414 458.241 420.875 457.796 421.458 457.46C422.04 457.119 422.743 456.949 423.567 456.949C424.296 456.949 424.912 457.1 425.414 457.403C425.92 457.702 426.278 458.156 426.486 458.767C426.699 459.373 426.73 460.14 426.578 461.068L425.414 468H423.738L424.874 461.182C425.016 460.33 424.905 459.662 424.54 459.179C424.18 458.696 423.61 458.455 422.828 458.455C422.289 458.455 421.789 458.571 421.33 458.803C420.875 459.035 420.489 459.373 420.172 459.818C419.86 460.263 419.647 460.803 419.533 461.438ZM435.039 457.091L434.812 458.511H429.158L429.386 457.091H435.039ZM431.46 454.477H433.136L431.403 464.875C431.327 465.348 431.339 465.704 431.438 465.94C431.542 466.172 431.699 466.329 431.907 466.409C432.12 466.485 432.35 466.523 432.596 466.523C432.781 466.523 432.932 466.513 433.05 466.494C433.169 466.471 433.263 466.452 433.335 466.438L433.448 467.943C433.32 467.986 433.147 468.028 432.93 468.071C432.717 468.118 432.454 468.142 432.141 468.142C431.668 468.142 431.223 468.04 430.806 467.837C430.389 467.633 430.07 467.323 429.847 466.906C429.625 466.49 429.566 465.964 429.67 465.33L431.46 454.477ZM444.695 459.534L443.104 459.96C443.047 459.705 442.947 459.458 442.805 459.222C442.668 458.98 442.455 458.784 442.166 458.632C441.882 458.476 441.494 458.398 441.001 458.398C440.334 458.398 439.754 458.552 439.261 458.859C438.769 459.162 438.487 459.548 438.416 460.017C438.345 460.429 438.44 460.758 438.7 461.004C438.961 461.25 439.396 461.452 440.007 461.608L441.57 462.006C442.507 462.247 443.175 462.609 443.572 463.092C443.975 463.571 444.112 464.193 443.984 464.96C443.88 465.585 443.608 466.144 443.168 466.636C442.727 467.129 442.164 467.517 441.477 467.801C440.791 468.085 440.026 468.227 439.183 468.227C438.061 468.227 437.176 467.986 436.527 467.503C435.878 467.015 435.533 466.31 435.49 465.386L437.166 464.989C437.209 465.571 437.417 466.011 437.791 466.31C438.17 466.603 438.7 466.75 439.382 466.75C440.163 466.75 440.814 466.584 441.335 466.253C441.856 465.917 442.152 465.514 442.223 465.045C442.294 464.662 442.218 464.342 441.996 464.087C441.778 463.831 441.399 463.639 440.859 463.511L439.126 463.085C438.161 462.844 437.483 462.474 437.095 461.977C436.712 461.48 436.584 460.855 436.712 460.102C436.816 459.487 437.081 458.942 437.507 458.469C437.938 457.995 438.478 457.624 439.126 457.354C439.78 457.084 440.49 456.949 441.257 456.949C442.337 456.949 443.144 457.186 443.679 457.659C444.214 458.128 444.553 458.753 444.695 459.534ZM449.888 453.455L449.689 454.733C449.628 455.121 449.488 455.536 449.27 455.976C449.057 456.411 448.783 456.835 448.446 457.247C448.11 457.654 447.729 458.009 447.303 458.312L446.507 457.574C446.877 457.148 447.206 456.705 447.495 456.246C447.788 455.782 447.98 455.287 448.07 454.761L448.297 453.455H449.888ZM453.525 453.455L453.326 454.733C453.264 455.121 453.124 455.536 452.907 455.976C452.694 456.411 452.419 456.835 452.083 457.247C451.747 457.654 451.365 458.009 450.939 458.312L450.144 457.574C450.513 457.148 450.842 456.705 451.131 456.246C451.425 455.782 451.616 455.287 451.706 454.761L451.934 453.455H453.525Z" fill="white"/>
<path d="M62.5966 493.205C62.5966 492.423 62.3385 491.831 61.8224 491.429C61.3063 491.022 60.608 490.818 59.7273 490.818C59.0833 490.818 58.5033 490.922 57.9872 491.131C57.4711 491.339 57.0497 491.625 56.723 491.99C56.3963 492.355 56.1951 492.769 56.1193 493.233C56.0578 493.621 56.098 493.955 56.2401 494.234C56.3821 494.509 56.5833 494.739 56.8438 494.923C57.1089 495.103 57.393 495.252 57.696 495.371C57.9991 495.484 58.2784 495.577 58.5341 495.648L59.9545 496.045C60.3097 496.145 60.705 496.282 61.1406 496.457C61.5762 496.633 61.9834 496.872 62.3622 497.175C62.741 497.473 63.0298 497.857 63.2287 498.325C63.4323 498.794 63.4773 499.369 63.3636 500.051C63.2311 500.837 62.9067 501.547 62.3906 502.182C61.8793 502.816 61.2022 503.321 60.3594 503.695C59.5213 504.069 58.5436 504.256 57.4261 504.256C56.3845 504.256 55.5085 504.088 54.7983 503.751C54.0928 503.415 53.572 502.946 53.2358 502.345C52.9044 501.744 52.7765 501.045 52.8523 500.25H54.6705C54.6231 500.799 54.732 501.254 54.9972 501.614C55.2623 501.969 55.6316 502.234 56.1051 502.409C56.5786 502.58 57.1042 502.665 57.6818 502.665C58.3542 502.665 58.9744 502.556 59.5426 502.338C60.1155 502.116 60.589 501.808 60.9631 501.415C61.3419 501.017 61.5739 500.553 61.6591 500.023C61.7443 499.54 61.678 499.147 61.4602 498.844C61.2424 498.541 60.9276 498.295 60.5156 498.105C60.1037 497.916 59.6515 497.75 59.1591 497.608L57.4545 497.097C56.375 496.77 55.5535 496.304 54.9901 495.697C54.4313 495.091 54.2301 494.298 54.3864 493.318C54.5284 492.504 54.8717 491.794 55.4162 491.188C55.9607 490.577 56.6354 490.103 57.4403 489.767C58.2453 489.426 59.1117 489.256 60.0398 489.256C60.9773 489.256 61.7798 489.426 62.4474 489.767C63.1151 490.103 63.6122 490.57 63.9389 491.166C64.2656 491.758 64.3864 492.438 64.3011 493.205H62.5966ZM68.1346 497.438L67.055 504H65.3789L67.7937 489.455H69.4698L68.5891 494.795H68.7312C69.0721 494.227 69.5266 493.777 70.0948 493.446C70.6677 493.115 71.3874 492.949 72.2539 492.949C72.9925 492.949 73.6152 493.098 74.1218 493.396C74.6332 493.69 74.993 494.142 75.2013 494.753C75.4144 495.359 75.4452 496.131 75.2937 497.068L74.1289 504H72.4528L73.5891 497.182C73.7312 496.315 73.6152 495.645 73.2411 495.172C72.8718 494.694 72.2965 494.455 71.5153 494.455C70.966 494.455 70.4547 494.571 69.9812 494.803C69.5124 495.035 69.1147 495.373 68.788 495.818C68.466 496.263 68.2482 496.803 68.1346 497.438ZM81.6982 504.227C80.6944 504.227 79.8539 503.988 79.1768 503.51C78.4998 503.032 78.0215 502.362 77.7422 501.5C77.4676 500.638 77.4226 499.634 77.6072 498.489C77.7872 497.371 78.1446 496.398 78.6797 495.57C79.2195 494.736 79.8894 494.092 80.6896 493.638C81.4946 493.179 82.38 492.949 83.3459 492.949C84.3497 492.949 85.1877 493.19 85.8601 493.673C86.5372 494.152 87.0154 494.824 87.2947 495.69C87.5741 496.552 87.6214 497.561 87.4368 498.716C87.2569 499.824 86.8946 500.792 86.3501 501.621C85.8104 502.445 85.1404 503.086 84.3402 503.545C83.5447 504 82.6641 504.227 81.6982 504.227ZM81.7266 502.722C82.4936 502.722 83.1589 502.525 83.7223 502.132C84.2905 501.739 84.7498 501.221 85.1001 500.577C85.4553 499.933 85.6944 499.237 85.8175 498.489C85.9311 497.778 85.9264 497.118 85.8033 496.507C85.6802 495.892 85.4174 495.397 85.0149 495.023C84.6125 494.644 84.0466 494.455 83.3175 494.455C82.5504 494.455 81.8804 494.653 81.3075 495.051C80.7393 495.449 80.2801 495.972 79.9297 496.621C79.5793 497.269 79.3449 497.968 79.2266 498.716C79.1129 499.426 79.1153 500.087 79.2337 500.697C79.3568 501.304 79.6196 501.794 80.022 502.168C80.4292 502.537 80.9974 502.722 81.7266 502.722ZM91.2294 504L89.7237 493.091H91.4851L92.451 501.443H92.5646L96.2862 493.091H98.076L98.9851 501.415H99.0987L102.849 493.091H104.61L99.468 504H97.8203L96.826 495.619H96.6555L92.8771 504H91.2294ZM109.04 504.227C108.013 504.227 107.17 503.986 106.512 503.503C105.858 503.02 105.404 502.355 105.148 501.507C104.892 500.66 104.855 499.691 105.034 498.602C105.214 497.494 105.579 496.517 106.128 495.669C106.677 494.817 107.362 494.152 108.181 493.673C109 493.19 109.902 492.949 110.887 492.949C111.654 492.949 112.321 493.091 112.89 493.375C113.458 493.659 113.896 494.057 114.203 494.568C114.511 495.08 114.656 495.676 114.637 496.358H112.961C112.913 495.861 112.7 495.42 112.321 495.037C111.947 494.649 111.393 494.455 110.659 494.455C110.006 494.455 109.405 494.625 108.855 494.966C108.306 495.302 107.845 495.778 107.471 496.393C107.096 497.004 106.843 497.722 106.711 498.545C106.569 499.388 106.58 500.122 106.746 500.747C106.912 501.372 107.212 501.857 107.648 502.203C108.084 502.549 108.633 502.722 109.296 502.722C109.731 502.722 110.139 502.646 110.517 502.494C110.896 502.343 111.232 502.125 111.526 501.841C111.819 501.557 112.051 501.216 112.222 500.818H113.898C113.69 501.462 113.356 502.042 112.897 502.558C112.437 503.07 111.881 503.477 111.228 503.78C110.574 504.078 109.845 504.227 109.04 504.227ZM118.99 504.256C118.299 504.256 117.693 504.125 117.172 503.865C116.651 503.6 116.266 503.219 116.015 502.722C115.764 502.22 115.695 501.614 115.809 500.903C115.917 500.278 116.128 499.772 116.441 499.384C116.753 498.991 117.132 498.683 117.577 498.46C118.027 498.233 118.51 498.065 119.026 497.956C119.547 497.842 120.065 497.755 120.581 497.693C121.254 497.608 121.801 497.542 122.222 497.494C122.643 497.447 122.961 497.369 123.174 497.26C123.387 497.151 123.517 496.964 123.564 496.699V496.642C123.678 495.946 123.586 495.404 123.287 495.016C122.989 494.623 122.456 494.426 121.689 494.426C120.894 494.426 120.229 494.601 119.694 494.952C119.158 495.302 118.763 495.676 118.507 496.074L117.03 495.506C117.418 494.843 117.882 494.327 118.422 493.957C118.962 493.583 119.528 493.323 120.12 493.176C120.712 493.025 121.282 492.949 121.831 492.949C122.182 492.949 122.577 492.991 123.017 493.077C123.458 493.157 123.87 493.325 124.253 493.581C124.641 493.837 124.933 494.223 125.127 494.739C125.326 495.255 125.354 495.946 125.212 496.812L124.019 504H122.343L122.598 502.523H122.513C122.362 502.759 122.13 503.013 121.817 503.283C121.509 503.553 121.119 503.782 120.645 503.972C120.176 504.161 119.625 504.256 118.99 504.256ZM119.473 502.75C120.136 502.75 120.716 502.62 121.213 502.359C121.715 502.099 122.118 501.763 122.421 501.351C122.729 500.939 122.92 500.506 122.996 500.051L123.252 498.517C123.167 498.602 122.998 498.68 122.748 498.751C122.497 498.818 122.212 498.877 121.895 498.929C121.583 498.976 121.277 499.019 120.979 499.057C120.685 499.09 120.449 499.118 120.269 499.142C119.824 499.199 119.4 499.291 118.998 499.419C118.6 499.542 118.264 499.729 117.989 499.98C117.719 500.226 117.551 500.562 117.485 500.989C117.385 501.571 117.525 502.011 117.904 502.31C118.283 502.603 118.806 502.75 119.473 502.75ZM136.226 495.534L134.635 495.96C134.578 495.705 134.479 495.458 134.337 495.222C134.199 494.98 133.986 494.784 133.697 494.632C133.413 494.476 133.025 494.398 132.533 494.398C131.865 494.398 131.285 494.552 130.793 494.859C130.3 495.162 130.018 495.548 129.947 496.017C129.876 496.429 129.971 496.758 130.232 497.004C130.492 497.25 130.928 497.452 131.538 497.608L133.101 498.006C134.038 498.247 134.706 498.609 135.104 499.092C135.506 499.571 135.643 500.193 135.516 500.96C135.411 501.585 135.139 502.144 134.699 502.636C134.259 503.129 133.695 503.517 133.009 503.801C132.322 504.085 131.557 504.227 130.714 504.227C129.592 504.227 128.707 503.986 128.058 503.503C127.41 503.015 127.064 502.31 127.021 501.386L128.697 500.989C128.74 501.571 128.948 502.011 129.322 502.31C129.701 502.603 130.232 502.75 130.913 502.75C131.695 502.75 132.346 502.584 132.866 502.253C133.387 501.917 133.683 501.514 133.754 501.045C133.825 500.662 133.75 500.342 133.527 500.087C133.309 499.831 132.93 499.639 132.391 499.511L130.658 499.085C129.692 498.844 129.015 498.474 128.626 497.977C128.243 497.48 128.115 496.855 128.243 496.102C128.347 495.487 128.612 494.942 129.038 494.469C129.469 493.995 130.009 493.624 130.658 493.354C131.311 493.084 132.021 492.949 132.788 492.949C133.868 492.949 134.675 493.186 135.21 493.659C135.745 494.128 136.084 494.753 136.226 495.534ZM142.073 504.227C141.026 504.227 140.162 503.995 139.48 503.531C138.799 503.062 138.323 502.409 138.053 501.571C137.783 500.728 137.74 499.748 137.925 498.631C138.11 497.513 138.477 496.528 139.026 495.676C139.575 494.819 140.259 494.152 141.078 493.673C141.898 493.19 142.797 492.949 143.777 492.949C144.346 492.949 144.892 493.044 145.418 493.233C145.944 493.422 146.398 493.73 146.782 494.156C147.165 494.578 147.433 495.136 147.584 495.832C147.736 496.528 147.726 497.385 147.556 498.403L147.442 499.114H139.033L139.26 497.665H145.965C146.074 497.049 146.045 496.5 145.88 496.017C145.719 495.534 145.437 495.153 145.034 494.874C144.637 494.594 144.132 494.455 143.522 494.455C142.892 494.455 142.305 494.625 141.76 494.966C141.216 495.302 140.761 495.728 140.397 496.244C140.032 496.756 139.805 497.277 139.715 497.807L139.516 499.057C139.374 499.961 139.395 500.681 139.58 501.216C139.769 501.751 140.098 502.137 140.567 502.374C141.036 502.606 141.623 502.722 142.328 502.722C142.778 502.722 143.193 502.66 143.571 502.537C143.95 502.409 144.289 502.22 144.587 501.969C144.885 501.713 145.136 501.396 145.34 501.017L146.874 501.472C146.614 502.021 146.247 502.504 145.773 502.92C145.304 503.332 144.755 503.654 144.125 503.886C143.5 504.114 142.816 504.227 142.073 504.227ZM155.244 508.091C154.96 508.091 154.709 508.067 154.491 508.02C154.278 507.977 154.131 507.935 154.051 507.892L154.733 506.415C155.121 506.519 155.467 506.55 155.77 506.507C156.077 506.469 156.368 506.32 156.643 506.06C156.922 505.804 157.214 505.402 157.517 504.852L157.985 504L155.798 493.091H157.545L159.108 501.812H159.221L163.681 493.091H165.571L158.88 505.577C158.568 506.159 158.225 506.635 157.85 507.004C157.476 507.374 157.072 507.646 156.636 507.821C156.2 508.001 155.736 508.091 155.244 508.091ZM170.077 504.227C169.073 504.227 168.233 503.988 167.556 503.51C166.879 503.032 166.4 502.362 166.121 501.5C165.846 500.638 165.801 499.634 165.986 498.489C166.166 497.371 166.524 496.398 167.059 495.57C167.598 494.736 168.268 494.092 169.069 493.638C169.873 493.179 170.759 492.949 171.725 492.949C172.729 492.949 173.567 493.19 174.239 493.673C174.916 494.152 175.394 494.824 175.674 495.69C175.953 496.552 176 497.561 175.816 498.716C175.636 499.824 175.274 500.792 174.729 501.621C174.189 502.445 173.519 503.086 172.719 503.545C171.924 504 171.043 504.227 170.077 504.227ZM170.105 502.722C170.873 502.722 171.538 502.525 172.101 502.132C172.669 501.739 173.129 501.221 173.479 500.577C173.834 499.933 174.073 499.237 174.196 498.489C174.31 497.778 174.305 497.118 174.182 496.507C174.059 495.892 173.796 495.397 173.394 495.023C172.991 494.644 172.426 494.455 171.696 494.455C170.929 494.455 170.259 494.653 169.686 495.051C169.118 495.449 168.659 495.972 168.309 496.621C167.958 497.269 167.724 497.968 167.605 498.716C167.492 499.426 167.494 500.087 167.613 500.697C167.736 501.304 167.998 501.794 168.401 502.168C168.808 502.537 169.376 502.722 170.105 502.722ZM185.121 499.54L186.201 493.091H187.877L186.059 504H184.383L184.695 502.153H184.582C184.241 502.707 183.765 503.179 183.154 503.567C182.543 503.95 181.826 504.142 181.002 504.142C180.32 504.142 179.738 503.993 179.255 503.695C178.777 503.392 178.436 502.937 178.232 502.331C178.033 501.72 178.01 500.951 178.161 500.023L179.326 493.091H181.002L179.866 499.909C179.738 500.705 179.859 501.339 180.228 501.812C180.597 502.286 181.13 502.523 181.826 502.523C182.243 502.523 182.683 502.416 183.147 502.203C183.616 501.99 184.032 501.663 184.397 501.223C184.766 500.783 185.008 500.222 185.121 499.54ZM189.129 504L190.947 493.091H192.566L192.282 494.739H192.396C192.68 494.199 193.113 493.761 193.696 493.425C194.278 493.089 194.896 492.92 195.549 492.92C195.677 492.92 195.831 492.923 196.011 492.928C196.191 492.928 196.331 492.935 196.43 492.949L196.146 494.653C196.089 494.639 195.961 494.618 195.762 494.589C195.564 494.556 195.35 494.54 195.123 494.54C194.593 494.54 194.103 494.651 193.653 494.874C193.203 495.091 192.827 495.394 192.524 495.783C192.221 496.166 192.027 496.604 191.941 497.097L190.805 504H189.129ZM208.797 493.091L208.57 494.511H202.916L203.143 493.091H208.797ZM205.217 490.477H206.893L205.161 500.875C205.085 501.348 205.097 501.704 205.196 501.94C205.3 502.172 205.456 502.329 205.665 502.409C205.878 502.485 206.107 502.523 206.354 502.523C206.538 502.523 206.69 502.513 206.808 502.494C206.927 502.471 207.021 502.452 207.092 502.438L207.206 503.943C207.078 503.986 206.905 504.028 206.688 504.071C206.474 504.118 206.212 504.142 205.899 504.142C205.426 504.142 204.981 504.04 204.564 503.837C204.147 503.633 203.828 503.323 203.605 502.906C203.383 502.49 203.323 501.964 203.428 501.33L205.217 490.477ZM212.682 504.256C211.991 504.256 211.384 504.125 210.864 503.865C210.343 503.6 209.957 503.219 209.706 502.722C209.455 502.22 209.386 501.614 209.5 500.903C209.609 500.278 209.82 499.772 210.132 499.384C210.445 498.991 210.823 498.683 211.268 498.46C211.718 498.233 212.201 498.065 212.717 497.956C213.238 497.842 213.757 497.755 214.273 497.693C214.945 497.608 215.492 497.542 215.913 497.494C216.335 497.447 216.652 497.369 216.865 497.26C217.078 497.151 217.208 496.964 217.256 496.699V496.642C217.369 495.946 217.277 495.404 216.979 495.016C216.68 494.623 216.148 494.426 215.381 494.426C214.585 494.426 213.92 494.601 213.385 494.952C212.85 495.302 212.455 495.676 212.199 496.074L210.722 495.506C211.11 494.843 211.574 494.327 212.114 493.957C212.653 493.583 213.219 493.323 213.811 493.176C214.403 493.025 214.973 492.949 215.523 492.949C215.873 492.949 216.268 492.991 216.709 493.077C217.149 493.157 217.561 493.325 217.945 493.581C218.333 493.837 218.624 494.223 218.818 494.739C219.017 495.255 219.045 495.946 218.903 496.812L217.71 504H216.034L216.29 502.523H216.205C216.053 502.759 215.821 503.013 215.509 503.283C215.201 503.553 214.81 503.782 214.337 503.972C213.868 504.161 213.316 504.256 212.682 504.256ZM213.165 502.75C213.828 502.75 214.408 502.62 214.905 502.359C215.407 502.099 215.809 501.763 216.112 501.351C216.42 500.939 216.612 500.506 216.688 500.051L216.943 498.517C216.858 498.602 216.69 498.68 216.439 498.751C216.188 498.818 215.904 498.877 215.587 498.929C215.274 498.976 214.969 499.019 214.67 499.057C214.377 499.09 214.14 499.118 213.96 499.142C213.515 499.199 213.091 499.291 212.689 499.419C212.291 499.542 211.955 499.729 211.68 499.98C211.411 500.226 211.242 500.562 211.176 500.989C211.077 501.571 211.216 502.011 211.595 502.31C211.974 502.603 212.497 502.75 213.165 502.75ZM224.86 489.455L222.446 504H220.77L223.184 489.455H224.86ZM230.061 504.227C229.015 504.227 228.151 503.995 227.469 503.531C226.787 503.062 226.311 502.409 226.041 501.571C225.771 500.728 225.729 499.748 225.913 498.631C226.098 497.513 226.465 496.528 227.014 495.676C227.563 494.819 228.248 494.152 229.067 493.673C229.886 493.19 230.786 492.949 231.766 492.949C232.334 492.949 232.881 493.044 233.406 493.233C233.932 493.422 234.386 493.73 234.77 494.156C235.153 494.578 235.421 495.136 235.572 495.832C235.724 496.528 235.714 497.385 235.544 498.403L235.43 499.114H227.021L227.249 497.665H233.953C234.062 497.049 234.034 496.5 233.868 496.017C233.707 495.534 233.425 495.153 233.023 494.874C232.625 494.594 232.121 494.455 231.51 494.455C230.88 494.455 230.293 494.625 229.749 494.966C229.204 495.302 228.75 495.728 228.385 496.244C228.02 496.756 227.793 497.277 227.703 497.807L227.504 499.057C227.362 499.961 227.384 500.681 227.568 501.216C227.758 501.751 228.087 502.137 228.555 502.374C229.024 502.606 229.611 502.722 230.317 502.722C230.767 502.722 231.181 502.66 231.56 502.537C231.938 502.409 232.277 502.22 232.575 501.969C232.874 501.713 233.125 501.396 233.328 501.017L234.862 501.472C234.602 502.021 234.235 502.504 233.761 502.92C233.293 503.332 232.743 503.654 232.114 503.886C231.489 504.114 230.804 504.227 230.061 504.227ZM239.951 497.438L238.871 504H237.195L239.013 493.091H240.633L240.349 494.795H240.491C240.832 494.241 241.293 493.796 241.876 493.46C242.458 493.119 243.161 492.949 243.985 492.949C244.714 492.949 245.33 493.1 245.832 493.403C246.338 493.702 246.696 494.156 246.904 494.767C247.117 495.373 247.148 496.14 246.996 497.068L245.832 504H244.156L245.292 497.182C245.434 496.33 245.323 495.662 244.958 495.179C244.598 494.696 244.028 494.455 243.246 494.455C242.707 494.455 242.207 494.571 241.748 494.803C241.293 495.035 240.907 495.373 240.59 495.818C240.278 496.263 240.065 496.803 239.951 497.438ZM255.457 493.091L255.23 494.511H249.576L249.804 493.091H255.457ZM251.877 490.477H253.554L251.821 500.875C251.745 501.348 251.757 501.704 251.856 501.94C251.96 502.172 252.117 502.329 252.325 502.409C252.538 502.485 252.768 502.523 253.014 502.523C253.199 502.523 253.35 502.513 253.468 502.494C253.587 502.471 253.681 502.452 253.752 502.438L253.866 503.943C253.738 503.986 253.565 504.028 253.348 504.071C253.135 504.118 252.872 504.142 252.559 504.142C252.086 504.142 251.641 504.04 251.224 503.837C250.807 503.633 250.488 503.323 250.265 502.906C250.043 502.49 249.984 501.964 250.088 501.33L251.877 490.477ZM257.581 504.114C257.221 504.114 256.92 503.991 256.679 503.744C256.437 503.493 256.312 503.19 256.302 502.835C256.297 502.48 256.423 502.184 256.679 501.947C256.934 501.706 257.235 501.585 257.581 501.585C257.931 501.585 258.234 501.708 258.49 501.955C258.745 502.201 258.868 502.494 258.859 502.835C258.854 503.072 258.793 503.287 258.674 503.482C258.561 503.676 258.407 503.83 258.213 503.943C258.023 504.057 257.813 504.114 257.581 504.114ZM279.111 494C279.04 493.522 278.917 493.093 278.742 492.714C278.571 492.331 278.344 492.007 278.06 491.741C277.776 491.472 277.433 491.266 277.03 491.124C276.632 490.977 276.171 490.903 275.645 490.903C274.783 490.903 273.95 491.126 273.145 491.571C272.345 492.016 271.651 492.672 271.064 493.538C270.482 494.405 270.087 495.468 269.878 496.727C269.67 497.987 269.691 499.05 269.942 499.916C270.198 500.783 270.636 501.438 271.256 501.884C271.881 502.329 272.643 502.551 273.543 502.551C274.376 502.551 275.153 502.374 275.873 502.018C276.592 501.659 277.196 501.152 277.684 500.499C278.171 499.84 278.486 499.066 278.628 498.176L279.14 498.29H274.765L275.049 496.727H280.588L280.304 498.29C280.115 499.492 279.694 500.536 279.04 501.422C278.387 502.307 277.572 502.991 276.597 503.474C275.622 503.957 274.556 504.199 273.401 504.199C272.113 504.199 271.033 503.896 270.162 503.29C269.291 502.684 268.678 501.822 268.323 500.705C267.968 499.587 267.918 498.261 268.174 496.727C268.358 495.577 268.68 494.542 269.14 493.624C269.604 492.7 270.172 491.914 270.844 491.266C271.521 490.617 272.276 490.12 273.11 489.774C273.948 489.429 274.831 489.256 275.759 489.256C276.526 489.256 277.222 489.372 277.847 489.604C278.477 489.831 279.019 490.155 279.473 490.577C279.928 490.993 280.281 491.493 280.532 492.075C280.783 492.653 280.915 493.295 280.929 494H279.111ZM286.702 504.227C285.655 504.227 284.791 503.995 284.109 503.531C283.428 503.062 282.952 502.409 282.682 501.571C282.412 500.728 282.369 499.748 282.554 498.631C282.739 497.513 283.106 496.528 283.655 495.676C284.204 494.819 284.888 494.152 285.707 493.673C286.527 493.19 287.426 492.949 288.406 492.949C288.974 492.949 289.521 493.044 290.047 493.233C290.572 493.422 291.027 493.73 291.411 494.156C291.794 494.578 292.062 495.136 292.213 495.832C292.365 496.528 292.355 497.385 292.185 498.403L292.071 499.114H283.662L283.889 497.665H290.594C290.703 497.049 290.674 496.5 290.509 496.017C290.348 495.534 290.066 495.153 289.663 494.874C289.266 494.594 288.761 494.455 288.151 494.455C287.521 494.455 286.934 494.625 286.389 494.966C285.845 495.302 285.39 495.728 285.026 496.244C284.661 496.756 284.434 497.277 284.344 497.807L284.145 499.057C284.003 499.961 284.024 500.681 284.209 501.216C284.398 501.751 284.727 502.137 285.196 502.374C285.665 502.606 286.252 502.722 286.957 502.722C287.407 502.722 287.821 502.66 288.2 502.537C288.579 502.409 288.918 502.22 289.216 501.969C289.514 501.713 289.765 501.396 289.969 501.017L291.503 501.472C291.242 502.021 290.875 502.504 290.402 502.92C289.933 503.332 289.384 503.654 288.754 503.886C288.129 504.114 287.445 504.227 286.702 504.227ZM300.398 493.091L300.171 494.511H294.518L294.745 493.091H300.398ZM296.819 490.477H298.495L296.762 500.875C296.686 501.348 296.698 501.704 296.798 501.94C296.902 502.172 297.058 502.329 297.266 502.409C297.479 502.485 297.709 502.523 297.955 502.523C298.14 502.523 298.291 502.513 298.41 502.494C298.528 502.471 298.623 502.452 298.694 502.438L298.808 503.943C298.68 503.986 298.507 504.028 298.289 504.071C298.076 504.118 297.813 504.142 297.501 504.142C297.027 504.142 296.582 504.04 296.165 503.837C295.749 503.633 295.429 503.323 295.207 502.906C294.984 502.49 294.925 501.964 295.029 501.33L296.819 490.477ZM310.832 504.227C309.918 504.227 309.151 503.998 308.531 503.538C307.91 503.074 307.472 502.421 307.217 501.578C306.966 500.731 306.935 499.729 307.124 498.574C307.318 497.428 307.681 496.434 308.211 495.591C308.746 494.748 309.402 494.097 310.178 493.638C310.955 493.179 311.802 492.949 312.721 492.949C313.431 492.949 313.973 493.067 314.347 493.304C314.726 493.536 315.001 493.801 315.171 494.099C315.342 494.393 315.472 494.634 315.562 494.824H315.704L316.599 489.455H318.275L315.86 504H314.241L314.525 502.324H314.326C314.17 502.523 313.952 502.774 313.673 503.077C313.393 503.375 313.024 503.643 312.565 503.879C312.11 504.111 311.532 504.227 310.832 504.227ZM311.244 502.722C311.916 502.722 312.517 502.546 313.048 502.196C313.583 501.841 314.028 501.351 314.383 500.726C314.738 500.096 314.984 499.369 315.121 498.545C315.259 497.731 315.254 497.018 315.107 496.408C314.96 495.792 314.679 495.314 314.262 494.973C313.845 494.627 313.294 494.455 312.607 494.455C311.902 494.455 311.289 494.637 310.768 495.001C310.247 495.361 309.823 495.851 309.496 496.472C309.17 497.087 308.942 497.778 308.815 498.545C308.687 499.322 308.684 500.027 308.808 500.662C308.931 501.292 309.191 501.794 309.589 502.168C309.991 502.537 310.543 502.722 311.244 502.722ZM319.148 504L320.967 493.091H322.643L320.825 504H319.148ZM322.316 491.244C321.989 491.244 321.708 491.133 321.471 490.911C321.239 490.688 321.123 490.42 321.123 490.108C321.123 489.795 321.239 489.528 321.471 489.305C321.708 489.083 321.989 488.972 322.316 488.972C322.643 488.972 322.922 489.083 323.154 489.305C323.391 489.528 323.509 489.795 323.509 490.108C323.509 490.42 323.391 490.688 323.154 490.911C322.922 491.133 322.643 491.244 322.316 491.244ZM333.042 495.534L331.451 495.96C331.395 495.705 331.295 495.458 331.153 495.222C331.016 494.98 330.803 494.784 330.514 494.632C330.23 494.476 329.842 494.398 329.349 494.398C328.681 494.398 328.101 494.552 327.609 494.859C327.117 495.162 326.835 495.548 326.764 496.017C326.693 496.429 326.788 496.758 327.048 497.004C327.308 497.25 327.744 497.452 328.355 497.608L329.917 498.006C330.855 498.247 331.522 498.609 331.92 499.092C332.323 499.571 332.46 500.193 332.332 500.96C332.228 501.585 331.956 502.144 331.515 502.636C331.075 503.129 330.511 503.517 329.825 503.801C329.138 504.085 328.374 504.227 327.531 504.227C326.409 504.227 325.523 503.986 324.875 503.503C324.226 503.015 323.88 502.31 323.838 501.386L325.514 500.989C325.556 501.571 325.765 502.011 326.139 502.31C326.518 502.603 327.048 502.75 327.73 502.75C328.511 502.75 329.162 502.584 329.683 502.253C330.204 501.917 330.5 501.514 330.571 501.045C330.642 500.662 330.566 500.342 330.343 500.087C330.126 499.831 329.747 499.639 329.207 499.511L327.474 499.085C326.508 498.844 325.831 498.474 325.443 497.977C325.059 497.48 324.931 496.855 325.059 496.102C325.163 495.487 325.429 494.942 325.855 494.469C326.286 493.995 326.825 493.624 327.474 493.354C328.127 493.084 328.838 492.949 329.605 492.949C330.684 492.949 331.492 493.186 332.027 493.659C332.562 494.128 332.9 494.753 333.042 495.534ZM338.747 504.227C337.72 504.227 336.877 503.986 336.219 503.503C335.565 503.02 335.111 502.355 334.855 501.507C334.599 500.66 334.562 499.691 334.741 498.602C334.921 497.494 335.286 496.517 335.835 495.669C336.384 494.817 337.069 494.152 337.888 493.673C338.707 493.19 339.609 492.949 340.594 492.949C341.361 492.949 342.028 493.091 342.597 493.375C343.165 493.659 343.603 494.057 343.911 494.568C344.218 495.08 344.363 495.676 344.344 496.358H342.668C342.62 495.861 342.407 495.42 342.028 495.037C341.654 494.649 341.1 494.455 340.366 494.455C339.713 494.455 339.112 494.625 338.562 494.966C338.013 495.302 337.552 495.778 337.178 496.393C336.804 497.004 336.55 497.722 336.418 498.545C336.276 499.388 336.287 500.122 336.453 500.747C336.619 501.372 336.92 501.857 337.355 502.203C337.791 502.549 338.34 502.722 339.003 502.722C339.438 502.722 339.846 502.646 340.224 502.494C340.603 502.343 340.939 502.125 341.233 501.841C341.527 501.557 341.759 501.216 341.929 500.818H343.605C343.397 501.462 343.063 502.042 342.604 502.558C342.144 503.07 341.588 503.477 340.935 503.78C340.281 504.078 339.552 504.227 338.747 504.227ZM350.018 504.227C349.015 504.227 348.174 503.988 347.497 503.51C346.82 503.032 346.342 502.362 346.062 501.5C345.788 500.638 345.743 499.634 345.928 498.489C346.107 497.371 346.465 496.398 347 495.57C347.54 494.736 348.21 494.092 349.01 493.638C349.815 493.179 350.7 492.949 351.666 492.949C352.67 492.949 353.508 493.19 354.18 493.673C354.857 494.152 355.336 494.824 355.615 495.69C355.894 496.552 355.942 497.561 355.757 498.716C355.577 499.824 355.215 500.792 354.67 501.621C354.131 502.445 353.461 503.086 352.661 503.545C351.865 504 350.984 504.227 350.018 504.227ZM350.047 502.722C350.814 502.722 351.479 502.525 352.043 502.132C352.611 501.739 353.07 501.221 353.42 500.577C353.776 499.933 354.015 499.237 354.138 498.489C354.251 497.778 354.247 497.118 354.124 496.507C354 495.892 353.738 495.397 353.335 495.023C352.933 494.644 352.367 494.455 351.638 494.455C350.871 494.455 350.201 494.653 349.628 495.051C349.06 495.449 348.6 495.972 348.25 496.621C347.9 497.269 347.665 497.968 347.547 498.716C347.433 499.426 347.436 500.087 347.554 500.697C347.677 501.304 347.94 501.794 348.342 502.168C348.75 502.537 349.318 502.722 350.047 502.722ZM367.797 493.091L361.945 504H360.24L358.025 493.091H359.772L361.334 501.784H361.448L365.908 493.091H367.797ZM372.346 504.227C371.3 504.227 370.436 503.995 369.754 503.531C369.072 503.062 368.596 502.409 368.326 501.571C368.056 500.728 368.014 499.748 368.199 498.631C368.383 497.513 368.75 496.528 369.299 495.676C369.849 494.819 370.533 494.152 371.352 493.673C372.171 493.19 373.071 492.949 374.051 492.949C374.619 492.949 375.166 493.044 375.691 493.233C376.217 493.422 376.672 493.73 377.055 494.156C377.439 494.578 377.706 495.136 377.858 495.832C378.009 496.528 378 497.385 377.829 498.403L377.716 499.114H369.306L369.534 497.665H376.238C376.347 497.049 376.319 496.5 376.153 496.017C375.992 495.534 375.71 495.153 375.308 494.874C374.91 494.594 374.406 494.455 373.795 494.455C373.165 494.455 372.578 494.625 372.034 494.966C371.489 495.302 371.035 495.728 370.67 496.244C370.306 496.756 370.078 497.277 369.988 497.807L369.789 499.057C369.647 499.961 369.669 500.681 369.853 501.216C370.043 501.751 370.372 502.137 370.841 502.374C371.309 502.606 371.896 502.722 372.602 502.722C373.052 502.722 373.466 502.66 373.845 502.537C374.224 502.409 374.562 502.22 374.86 501.969C375.159 501.713 375.41 501.396 375.613 501.017L377.147 501.472C376.887 502.021 376.52 502.504 376.047 502.92C375.578 503.332 375.029 503.654 374.399 503.886C373.774 504.114 373.09 504.227 372.346 504.227ZM379.48 504L381.299 493.091H382.918L382.634 494.739H382.748C383.032 494.199 383.465 493.761 384.047 493.425C384.63 493.089 385.248 492.92 385.901 492.92C386.029 492.92 386.183 492.923 386.363 492.928C386.542 492.928 386.682 492.935 386.782 492.949L386.498 494.653C386.441 494.639 386.313 494.618 386.114 494.589C385.915 494.556 385.702 494.54 385.475 494.54C384.944 494.54 384.454 494.651 384.005 494.874C383.555 495.091 383.178 495.394 382.875 495.783C382.572 496.166 382.378 496.604 382.293 497.097L381.157 504H379.48ZM391.174 504.227C390.128 504.227 389.264 503.995 388.582 503.531C387.9 503.062 387.424 502.409 387.154 501.571C386.885 500.728 386.842 499.748 387.027 498.631C387.211 497.513 387.578 496.528 388.127 495.676C388.677 494.819 389.361 494.152 390.18 493.673C390.999 493.19 391.899 492.949 392.879 492.949C393.447 492.949 393.994 493.044 394.52 493.233C395.045 493.422 395.5 493.73 395.883 494.156C396.267 494.578 396.534 495.136 396.686 495.832C396.837 496.528 396.828 497.385 396.657 498.403L396.544 499.114H388.135L388.362 497.665H395.066C395.175 497.049 395.147 496.5 394.981 496.017C394.82 495.534 394.538 495.153 394.136 494.874C393.738 494.594 393.234 494.455 392.623 494.455C391.993 494.455 391.406 494.625 390.862 494.966C390.317 495.302 389.863 495.728 389.498 496.244C389.134 496.756 388.906 497.277 388.816 497.807L388.618 499.057C388.475 499.961 388.497 500.681 388.681 501.216C388.871 501.751 389.2 502.137 389.669 502.374C390.137 502.606 390.725 502.722 391.43 502.722C391.88 502.722 392.294 502.66 392.673 502.537C393.052 502.409 393.39 502.22 393.689 501.969C393.987 501.713 394.238 501.396 394.441 501.017L395.975 501.472C395.715 502.021 395.348 502.504 394.875 502.92C394.406 503.332 393.857 503.654 393.227 503.886C392.602 504.114 391.918 504.227 391.174 504.227ZM402.414 504.227C401.5 504.227 400.733 503.998 400.113 503.538C399.492 503.074 399.054 502.421 398.799 501.578C398.548 500.731 398.517 499.729 398.706 498.574C398.9 497.428 399.263 496.434 399.793 495.591C400.328 494.748 400.984 494.097 401.76 493.638C402.537 493.179 403.384 492.949 404.303 492.949C405.013 492.949 405.555 493.067 405.929 493.304C406.308 493.536 406.583 493.801 406.753 494.099C406.924 494.393 407.054 494.634 407.144 494.824H407.286L408.181 489.455H409.857L407.442 504H405.823L406.107 502.324H405.908C405.752 502.523 405.534 502.774 405.255 503.077C404.975 503.375 404.606 503.643 404.147 503.879C403.692 504.111 403.114 504.227 402.414 504.227ZM402.826 502.722C403.498 502.722 404.099 502.546 404.63 502.196C405.165 501.841 405.61 501.351 405.965 500.726C406.32 500.096 406.566 499.369 406.703 498.545C406.841 497.731 406.836 497.018 406.689 496.408C406.542 495.792 406.261 495.314 405.844 494.973C405.427 494.627 404.876 494.455 404.189 494.455C403.484 494.455 402.871 494.637 402.35 495.001C401.829 495.361 401.405 495.851 401.078 496.472C400.752 497.087 400.525 497.778 400.397 498.545C400.269 499.322 400.266 500.027 400.39 500.662C400.513 501.292 400.773 501.794 401.171 502.168C401.573 502.537 402.125 502.722 402.826 502.722ZM412.151 504.114C411.791 504.114 411.49 503.991 411.249 503.744C411.007 503.493 410.882 503.19 410.873 502.835C410.868 502.48 410.993 502.184 411.249 501.947C411.505 501.706 411.805 501.585 412.151 501.585C412.501 501.585 412.804 501.708 413.06 501.955C413.316 502.201 413.439 502.494 413.429 502.835C413.425 503.072 413.363 503.287 413.245 503.482C413.131 503.676 412.977 503.83 412.783 503.943C412.594 504.057 412.383 504.114 412.151 504.114Z" fill="white"/>
<g clip-path="url(#clip0_494_32248)">
<path d="M373.616 69.2173C371.185 96.0338 364.259 124.31 353.396 151.593C339.964 185.332 321.612 215.05 300.323 237.532L299.142 236.501C320.327 214.126 338.596 184.54 351.972 150.941C364.061 120.578 371.252 88.98 372.776 59.5781L374.286 59.8311C374.125 62.9364 373.902 66.0651 373.616 69.2173Z" fill="#F2F2F2"/>
<path d="M383.299 224.963C353.398 272.587 317.121 306.614 281.151 320.776L280.424 319.44C316.145 305.376 352.209 271.523 381.973 224.117L383.299 224.963Z" fill="#F2F2F2"/>
<path d="M372.89 102.606C370.459 129.422 363.533 157.699 352.671 184.982C339.238 218.721 320.886 248.438 299.597 270.921L298.416 269.89C319.601 247.515 337.87 217.929 351.247 184.33C363.336 153.966 370.526 122.369 372.05 92.9668L373.56 93.2198C373.4 96.325 373.177 99.4538 372.89 102.606Z" fill="#F2F2F2"/>
<path d="M37.2131 171.451H17.5944C17.1752 171.452 16.7613 171.358 16.3837 171.175C16.0061 170.993 15.6745 170.728 15.4139 170.399C15.1565 170.079 14.9749 169.705 14.8827 169.304C14.7905 168.903 14.7902 168.487 14.8817 168.086C16.7502 159.832 16.6328 151.252 14.5392 143.053C14.4068 142.513 14.4388 141.946 14.6312 141.424C14.8235 140.903 15.1674 140.451 15.6185 140.127C25.7064 132.863 33.651 133.074 39.2318 140.754C39.4833 141.104 39.6505 141.508 39.72 141.933C41.2111 150.908 41.2937 160.06 39.9646 169.06C39.8722 169.724 39.5426 170.332 39.0367 170.772C38.5308 171.211 37.883 171.453 37.2131 171.451Z" fill="#E6E6E6"/>
<path d="M31.1306 151.782H24.3817C24.0086 151.782 23.6506 151.634 23.3867 151.37C23.1228 151.105 22.9746 150.747 22.9746 150.374C22.9746 150 23.1228 149.642 23.3867 149.377C23.6506 149.113 24.0086 148.965 24.3817 148.965H31.1306C31.5033 148.966 31.8605 149.114 32.1237 149.378C32.387 149.643 32.5348 150 32.5348 150.374C32.5348 150.747 32.387 151.105 32.1237 151.369C31.8605 151.633 31.5033 151.781 31.1306 151.782Z" fill="white"/>
<path d="M31.1306 156.724H24.3817C24.0086 156.724 23.6506 156.575 23.3867 156.311C23.1228 156.047 22.9746 155.689 22.9746 155.315C22.9746 154.941 23.1228 154.583 23.3867 154.319C23.6506 154.055 24.0086 153.906 24.3817 153.906H31.1306C31.5033 153.907 31.8605 154.056 32.1237 154.32C32.387 154.584 32.5348 154.942 32.5348 155.315C32.5348 155.688 32.387 156.046 32.1237 156.31C31.8605 156.574 31.5033 156.723 31.1306 156.724Z" fill="white"/>
<path d="M31.1306 161.663H24.3817C24.0086 161.663 23.6506 161.515 23.3867 161.251C23.1228 160.986 22.9746 160.628 22.9746 160.254C22.9746 159.881 23.1228 159.522 23.3867 159.258C23.6506 158.994 24.0086 158.846 24.3817 158.846H31.1306C31.5033 158.846 31.8605 158.995 32.1237 159.259C32.387 159.523 32.5348 159.881 32.5348 160.254C32.5348 160.628 32.387 160.985 32.1237 161.249C31.8605 161.514 31.5033 161.662 31.1306 161.663Z" fill="white"/>
<path d="M393.763 259.144H374.144C373.725 259.145 373.311 259.051 372.933 258.869C372.556 258.687 372.224 258.421 371.964 258.093C371.706 257.772 371.525 257.398 371.432 256.997C371.34 256.597 371.34 256.18 371.431 255.78C373.3 247.526 373.183 238.946 371.089 230.746C370.957 230.206 370.989 229.639 371.181 229.118C371.373 228.596 371.717 228.144 372.168 227.82C382.256 220.556 390.201 220.767 395.782 228.447C396.033 228.798 396.2 229.201 396.27 229.627C397.761 238.601 397.843 247.753 396.514 256.753C396.422 257.417 396.092 258.026 395.586 258.465C395.081 258.905 394.433 259.146 393.763 259.144Z" fill="#E6E6E6"/>
<path d="M387.681 239.476H380.933C380.56 239.475 380.203 239.326 379.939 239.062C379.676 238.798 379.528 238.44 379.528 238.067C379.528 237.694 379.676 237.336 379.939 237.072C380.203 236.808 380.56 236.659 380.933 236.658H387.681C388.055 236.658 388.412 236.807 388.676 237.071C388.94 237.335 389.089 237.693 389.089 238.067C389.089 238.441 388.94 238.799 388.676 239.063C388.412 239.327 388.055 239.476 387.681 239.476Z" fill="white"/>
<path d="M387.681 244.417H380.933C380.56 244.416 380.203 244.267 379.939 244.003C379.676 243.739 379.528 243.381 379.528 243.008C379.528 242.635 379.676 242.277 379.939 242.013C380.203 241.749 380.56 241.6 380.933 241.6H387.681C388.055 241.6 388.412 241.748 388.676 242.012C388.94 242.276 389.089 242.635 389.089 243.008C389.089 243.382 388.94 243.74 388.676 244.004C388.412 244.269 388.055 244.417 387.681 244.417Z" fill="white"/>
<path d="M387.681 249.357H380.933C380.56 249.356 380.203 249.207 379.939 248.943C379.676 248.679 379.528 248.321 379.528 247.948C379.528 247.575 379.676 247.217 379.939 246.953C380.203 246.689 380.56 246.54 380.933 246.539H387.681C388.055 246.539 388.412 246.687 388.676 246.952C388.94 247.216 389.089 247.574 389.089 247.948C389.089 248.321 388.94 248.68 388.676 248.944C388.412 249.208 388.055 249.357 387.681 249.357Z" fill="white"/>
<path d="M468 379.264C468 379.361 467.982 379.456 467.945 379.546C467.908 379.635 467.854 379.716 467.786 379.784C467.717 379.853 467.636 379.907 467.547 379.944C467.458 379.981 467.362 379.999 467.266 379.999H0.734076C0.539387 379.999 0.352679 379.922 0.215014 379.784C0.0773481 379.646 0 379.459 0 379.264C0 379.069 0.0773481 378.882 0.215014 378.745C0.352679 378.607 0.539387 378.529 0.734076 378.529H467.266C467.362 378.529 467.458 378.548 467.547 378.585C467.636 378.621 467.717 378.676 467.786 378.744C467.854 378.812 467.908 378.893 467.945 378.983C467.982 379.072 468 379.168 468 379.264Z" fill="#CCCCCC"/>
<path d="M123.068 334.27L121.844 317.232C113.829 313.221 104.957 311.229 95.998 311.43C108.602 321.183 107.592 340.676 116.321 354.016C119.075 358.156 122.725 361.623 126.999 364.159C131.273 366.694 136.063 368.235 141.013 368.666L151.502 374.707C152.702 366.768 152.168 358.662 149.938 350.949C147.707 343.236 143.833 336.099 138.582 330.029C135.603 326.653 132.21 323.667 128.485 321.139C126.193 327.729 123.068 334.27 123.068 334.27Z" fill="#F2F2F2"/>
<path d="M344.933 336.741L346.156 319.703C354.172 315.692 363.044 313.7 372.002 313.9C359.399 323.654 360.408 343.147 351.68 356.487C348.925 360.627 345.276 364.093 341.002 366.629C336.727 369.165 331.938 370.706 326.988 371.137L316.498 377.178C315.299 369.238 315.832 361.133 318.063 353.42C320.293 345.707 324.167 338.57 329.418 332.5C332.398 329.124 335.79 326.137 339.515 323.61C341.808 330.2 344.933 336.741 344.933 336.741Z" fill="#F2F2F2"/>
<path d="M228.448 144.473C234.921 144.473 240.169 139.22 240.169 132.739C240.169 126.259 234.921 121.006 228.448 121.006C221.975 121.006 216.728 126.259 216.728 132.739C216.728 139.22 221.975 144.473 228.448 144.473Z" fill="#FBFF63"/>
<path d="M234.464 127.85C234.288 127.682 234.054 127.588 233.81 127.588C233.566 127.588 233.332 127.682 233.156 127.85C230.669 129.836 228.435 132.12 226.505 134.651C226.031 133.733 225.557 132.815 225.083 131.897C224.536 130.838 222.939 131.774 223.485 132.833C224.178 134.175 224.872 135.518 225.565 136.86C225.648 136.998 225.766 137.111 225.906 137.189C226.045 137.268 226.203 137.309 226.364 137.309C226.524 137.309 226.682 137.268 226.822 137.189C226.962 137.111 227.079 136.998 227.163 136.86C229.22 133.96 231.678 131.367 234.464 129.16C234.637 128.986 234.733 128.75 234.733 128.505C234.733 128.26 234.637 128.025 234.464 127.85Z" fill="white"/>
<path d="M176.005 166.012L158.331 138.225L178.797 127.252L184.169 148.453L222.017 168.928C223.512 168.389 225.13 168.298 226.675 168.664C228.221 169.031 229.626 169.84 230.72 170.992C231.814 172.144 232.55 173.591 232.837 175.154C233.124 176.718 232.951 178.331 232.338 179.798C231.725 181.265 230.699 182.521 229.385 183.414C228.072 184.307 226.527 184.798 224.939 184.828C223.351 184.857 221.789 184.423 220.443 183.579C219.098 182.735 218.026 181.517 217.36 180.073L176.005 166.012Z" fill="#A0616A"/>
<path d="M145.418 104.897C139.864 113.059 159.6 142.73 159.6 142.73C160.561 140.655 169.751 163.953 171.291 162.577C175.666 158.665 182.514 147.77 186.321 147.284C188.498 147.006 181.272 131.55 181.272 131.55C181.272 131.55 177.969 122.423 173.488 110.763C172.282 107.444 170.257 104.483 167.601 102.158C164.945 99.8327 161.744 98.218 158.297 97.4641C158.297 97.4641 150.971 96.7339 145.418 104.897Z" fill="#3F3D56"/>
<path d="M145.689 370.839L154.083 370.838L158.076 338.426L145.688 338.426L145.689 370.839Z" fill="#A0616A"/>
<path d="M143.548 368.095L145.91 368.095L155.135 364.34L160.078 368.095H160.079C162.873 368.095 165.552 369.206 167.528 371.184C169.503 373.162 170.613 375.844 170.614 378.641V378.984L143.548 378.985L143.548 368.095Z" fill="#2F2E41"/>
<path d="M184.685 370.839L193.079 370.838L197.072 338.426L184.684 338.426L184.685 370.839Z" fill="#A0616A"/>
<path d="M182.544 368.095L184.907 368.095L194.131 364.34L199.075 368.095H199.075C201.869 368.095 204.548 369.206 206.524 371.184C208.5 373.162 209.61 375.844 209.61 378.641V378.984L182.544 378.985L182.544 368.095Z" fill="#2F2E41"/>
<path d="M188.318 193.637L133.721 195.003C123.352 200.641 123.194 212.845 126.592 227.334C126.592 227.334 125.445 235.946 127.739 238.242C130.033 240.538 131.18 240.538 130.033 244.557C128.886 248.576 134.946 255.14 134.21 255.877C133.474 256.614 131.753 260.633 131.753 260.633L137.488 293.357C137.488 293.357 141.502 350.195 142.649 351.343C143.796 352.491 144.943 351.343 143.796 354.214C142.649 357.084 141.502 355.936 142.649 357.084C143.665 358.181 144.622 359.331 145.517 360.529H159.382C159.382 360.529 160.427 354.788 160.427 354.214C160.427 353.64 161.574 350.195 161.574 349.621C161.574 349.047 160.56 348.032 160.56 348.032C160.21 346.865 159.973 345.666 159.853 344.454C159.853 343.305 156.413 299.098 156.413 299.098L163.294 241.687L179.925 297.95C179.925 297.95 179.925 347.324 181.072 348.472C182.219 349.621 182.219 349.047 181.646 351.343C181.072 353.64 178.778 353.065 180.499 354.788C182.219 356.51 182.792 353.64 182.219 356.51L181.646 359.381L198.85 359.627C198.85 359.627 201.144 354.788 199.997 353.065C198.85 351.343 198.919 351.813 200.318 348.995C201.717 346.176 202.291 345.602 201.717 345.028C201.144 344.454 201.144 341.4 201.144 341.4L198.276 286.468C198.276 286.468 197.703 228.482 197.703 226.76C197.66 225.873 197.823 224.989 198.179 224.177V221.839L195.982 213.555L188.318 193.637Z" fill="#2F2E41"/>
<path d="M155.521 79.9829C164.89 79.9829 172.485 72.3795 172.485 63.0003C172.485 53.621 164.89 46.0176 155.521 46.0176C146.153 46.0176 138.558 53.621 138.558 63.0003C138.558 72.3795 146.153 79.9829 155.521 79.9829Z" fill="#A0616A"/>
<path d="M164.003 91.2072C167.657 93.3823 169.843 97.3788 171.098 101.446C173.422 108.975 174.82 116.759 175.263 124.627L176.589 148.181L193.005 198.336C178.777 210.388 125.298 201.075 125.298 201.075C125.298 201.075 123.656 200.527 125.298 198.883C126.939 197.24 128.538 198.696 126.896 197.052C125.254 195.409 126.386 197.24 126.933 195.596C127.481 193.953 126.933 195.049 126.386 194.501C125.839 193.953 130.622 189.022 130.622 189.022L126.245 160.233L120.772 102.164C127.339 93.9463 140.545 89.1022 140.545 89.1022L143.958 82.9531L161.019 84.3196L164.003 91.2072Z" fill="#3F3D56"/>
<path d="M169.505 53.9782C170.823 54.9627 171.8 56.3364 172.298 57.9058C172.489 55.341 172.501 52.766 172.334 50.1995C172.134 48.396 170.866 47.9903 169.397 47.5202C168.071 47.0956 166.571 46.6158 166.168 44.8651C160.835 39.6718 151.553 39.9337 145.2 41.7452C141.704 42.742 139.693 44.0227 139.513 44.773L139.475 44.9274L139.333 44.9985C136.639 46.3473 136.114 50.6065 136.149 53.9419C136.215 60.2261 138.382 67.3633 139.603 67.9431C139.668 67.9738 139.684 67.9618 139.712 67.9384C141.55 66.4675 143.793 68.0502 144.779 68.9106C145.361 65.0048 147.233 61.4068 150.096 58.6911C152.96 55.9755 156.65 54.2988 160.577 53.9289C161.859 53.8048 163.132 53.5912 164.384 53.2897C165.02 53.1251 165.673 53.0393 166.33 53.0342C167.459 53.017 168.568 53.3464 169.505 53.9782Z" fill="#2F2E41"/>
<path d="M274.813 207.168L307.445 173.994L316.043 147.462L302.208 141.859C295.354 148.78 288.299 169.968 288.299 169.968L266.026 199.893C265.848 199.96 265.671 200.03 265.496 200.112C264.471 200.597 263.588 201.338 262.932 202.265C262.277 203.191 261.871 204.271 261.754 205.4C261.637 206.529 261.813 207.669 262.265 208.711C262.717 209.752 263.43 210.659 264.334 211.344C265.238 212.028 266.304 212.468 267.428 212.62C268.551 212.773 269.695 212.632 270.749 212.212C271.802 211.792 272.73 211.108 273.442 210.224C274.154 209.34 274.626 208.288 274.813 207.168Z" fill="#FFB8B8"/>
<path d="M298.434 144.895L315.93 149.962L315.995 149.949C322.426 148.699 327.514 137.999 330.649 129.243C331.68 126.355 331.578 123.183 330.362 120.368C329.147 117.552 326.909 115.304 324.101 114.077C322.023 113.187 319.739 112.895 317.504 113.236C315.27 113.577 313.176 114.537 311.458 116.007L302.735 123.528L298.434 144.895Z" fill="#FBFF63"/>
<path d="M283.464 369.852L274.054 369.852L269.578 333.518L283.465 333.518L283.464 369.852Z" fill="#FFB8B8"/>
<path d="M285.864 366.776L283.216 366.776L272.875 362.566L267.333 366.776H267.333C264.201 366.776 261.197 368.021 258.983 370.238C256.768 372.455 255.524 375.462 255.523 378.598V378.982L285.863 378.983L285.864 366.776Z" fill="#2F2E41"/>
<path d="M325.216 369.852L315.806 369.852L311.33 333.518L325.218 333.518L325.216 369.852Z" fill="#FFB8B8"/>
<path d="M327.616 366.776L324.968 366.776L314.627 362.566L309.085 366.776H309.085C305.953 366.776 302.949 368.021 300.734 370.238C298.52 372.455 297.276 375.462 297.275 378.598V378.982L327.615 378.983L327.616 366.776Z" fill="#2F2E41"/>
<path d="M339.563 213.348C339.563 213.348 340.662 226.547 337.915 239.197C335.168 251.846 335.168 287.471 335.168 287.471L329.125 356.892L310.996 355.242L306.052 239.197L288.473 278.245L290.121 283.745L287.925 285.12C287.925 285.12 289.571 295.845 288.473 295.845C287.374 295.845 284.627 297.494 284.627 297.494L286.824 354.142L268.146 353.592L261.554 273.845L268.695 228.197L269.245 219.398L271.717 219.499L272.976 215.823L275.288 209.498L339.563 213.348Z" fill="#2F2E41"/>
<path d="M340.513 216.121L340.611 215.983C345.84 208.654 337.975 191.043 336.789 188.49L341.785 186.867L340.66 177.293L340.127 173.024L343.946 169.202L343.956 169.106L346.154 149.857L349.349 137.072C350.553 132.239 350.45 127.172 349.052 122.392C347.653 117.611 345.009 113.289 341.391 109.87L334.006 102.899L325.03 89.6035H310.556L305.594 98.988C300.782 100.101 296.513 102.869 293.531 106.809C290.548 110.75 289.04 115.613 289.271 120.551L290.396 145.164L285.992 175.809L285.99 181.355L281.035 186.868L282.117 192.284L278.345 193.902L276.68 201.682C275.991 202.592 271.442 208.664 271.442 210.324C271.442 210.573 271.626 210.814 272.02 211.081C275.12 213.182 292.254 217.466 299.837 214.429C307.914 211.195 340.023 216.046 340.346 216.095L340.513 216.121Z" fill="#FBFF63"/>
<path d="M315.924 85.3103C326.51 85.3103 335.093 76.7185 335.093 66.12C335.093 55.5215 326.51 46.9297 315.924 46.9297C305.337 46.9297 296.755 55.5215 296.755 66.12C296.755 76.7185 305.337 85.3103 315.924 85.3103Z" fill="#FFB8B8"/>
<path d="M314.087 85.622C317.056 85.5916 320.017 85.3075 322.937 84.7726C325.828 84.1058 332.207 79.1678 333.945 76.2506C335.237 74.0832 336.012 70.7307 336.435 68.3001C337.006 65.0834 336.896 61.7824 336.112 58.611C335.328 55.4396 333.887 52.4684 331.883 49.8898C331.111 48.8096 330.061 47.9585 328.845 47.4265C328.737 47.3875 328.627 47.3534 328.515 47.3247C326.752 46.9088 325.154 45.9749 323.925 44.643C323.687 44.3734 323.429 44.1213 323.154 43.8887C321.776 42.7838 320.156 42.0212 318.427 41.6633C315.633 40.9916 311.637 41.8333 306.55 44.1669C303.994 45.3393 301.158 45.0123 298.971 44.5963C298.849 44.5759 298.723 44.5879 298.606 44.6313C298.49 44.6746 298.387 44.7477 298.307 44.8434C297.405 45.7367 296.198 46.2549 294.929 46.2938C294.153 46.348 293.365 47.4463 292.416 48.8766C292.2 49.2013 291.949 49.5802 291.767 49.8114L291.73 49.3772L291.303 49.8737C290.632 50.6541 290.169 51.5918 289.957 52.5997C289.745 53.6075 289.791 54.6526 290.092 55.6377C290.392 56.6227 290.936 57.5157 291.674 58.2335C292.412 58.9513 293.319 59.4704 294.311 59.7427C295.098 59.9307 295.902 60.0378 296.711 60.0622C297.202 60.0937 297.709 60.1262 298.196 60.1979C299.761 60.4767 301.226 61.157 302.45 62.1723C303.674 63.1876 304.614 64.5032 305.178 65.9906C305.311 66.3344 305.521 66.6429 305.793 66.8923C306.064 67.1418 306.389 67.3255 306.742 67.4293C307.096 67.5331 307.468 67.5542 307.831 67.491C308.194 67.4278 308.537 67.282 308.835 67.0648C309.33 66.6579 309.916 66.3769 310.543 66.2458C311.17 66.1147 311.819 66.1373 312.436 66.3118C312.971 66.5923 313.395 67.0487 313.635 67.6046C313.924 68.2232 314.392 68.7415 314.977 69.0931C316.973 70.0588 317.225 74.5588 316.614 78.3313C316.026 81.9676 314.745 84.6203 313.501 84.782C312.543 84.9063 312.434 84.9775 312.369 85.1494L312.311 85.3032L312.423 85.4429C312.958 85.6217 313.526 85.6828 314.087 85.622Z" fill="#2F2E41"/>
<path d="M298.183 146.947L288.969 135.193C279.584 137.781 262.931 152.641 262.931 152.641L228.731 167.499C227.589 167.307 226.417 167.419 225.333 167.825C224.249 168.231 223.29 168.915 222.554 169.809C221.818 170.703 221.33 171.776 221.14 172.919C220.949 174.062 221.063 175.235 221.469 176.32C221.876 177.405 222.56 178.364 223.454 179.1C224.349 179.835 225.42 180.323 226.562 180.512C227.704 180.701 228.876 180.586 229.959 180.178C231.043 179.77 231.999 179.083 232.733 178.187L277.535 165.674L298.183 146.947Z" fill="#FFB8B8"/>
<path d="M295.975 149.634L310.514 133.41L311.321 121.913C311.471 119.656 310.988 117.401 309.925 115.404C308.863 113.407 307.263 111.748 305.308 110.613C302.647 109.093 299.509 108.64 296.528 109.348C293.547 110.055 290.946 111.87 289.25 114.424C284.113 122.175 278.586 132.654 281.43 138.562L281.459 138.622L295.975 149.634Z" fill="#FBFF63"/>
<path d="M161.977 210.618L124.191 191.245C121.503 189.867 120.613 186.212 122.206 183.097L146.843 134.937C148.437 131.823 151.92 130.41 154.607 131.788L192.393 151.161C195.081 152.539 195.971 156.195 194.378 159.309L169.741 207.469C168.147 210.584 164.664 211.996 161.977 210.618Z" fill="#E6E6E6"/>
<path d="M155.521 201.713L129.849 188.55C127.331 187.259 126.497 183.836 127.99 180.919L148.458 140.909C149.95 137.992 153.212 136.669 155.73 137.959L186.736 153.857C189.254 155.148 190.087 158.571 188.595 161.488L177.476 183.224C170.828 196.217 166.733 207.462 155.521 201.713Z" fill="white"/>
<path d="M168.213 179.863L145.475 168.204C145.197 168.006 144.999 167.714 144.918 167.382C144.838 167.05 144.879 166.7 145.034 166.396C145.19 166.092 145.45 165.854 145.766 165.725C146.082 165.597 146.434 165.587 146.758 165.697L169.496 177.355C169.774 177.554 169.972 177.846 170.053 178.178C170.134 178.51 170.092 178.86 169.937 179.164C169.781 179.468 169.521 179.706 169.205 179.834C168.889 179.963 168.537 179.973 168.213 179.863Z" fill="#FBFF63"/>
<path d="M148.13 175.818L142.941 173.158C142.663 172.959 142.465 172.667 142.384 172.335C142.303 172.003 142.344 171.653 142.5 171.349C142.656 171.045 142.915 170.807 143.232 170.678C143.548 170.55 143.9 170.54 144.224 170.65L149.413 173.311C149.691 173.509 149.888 173.801 149.969 174.133C150.05 174.465 150.009 174.815 149.853 175.119C149.698 175.423 149.438 175.661 149.121 175.79C148.805 175.918 148.453 175.928 148.13 175.818Z" fill="#FBFF63"/>
<path d="M154.786 185.486L140.406 178.113C140.128 177.914 139.931 177.622 139.85 177.29C139.769 176.958 139.81 176.608 139.966 176.304C140.122 176 140.381 175.762 140.698 175.634C141.014 175.505 141.366 175.495 141.689 175.605L156.069 182.978C156.347 183.176 156.545 183.468 156.626 183.8C156.706 184.132 156.665 184.482 156.51 184.786C156.354 185.091 156.094 185.329 155.778 185.457C155.462 185.585 155.11 185.595 154.786 185.486Z" fill="#FBFF63"/>
<path d="M177.213 162.273L154.474 150.615C154.196 150.416 153.998 150.124 153.917 149.792C153.837 149.46 153.878 149.11 154.033 148.806C154.189 148.502 154.449 148.264 154.765 148.135C155.081 148.007 155.433 147.997 155.757 148.107L178.495 159.765C178.773 159.964 178.971 160.256 179.052 160.588C179.133 160.92 179.091 161.27 178.936 161.574C178.78 161.878 178.521 162.116 178.204 162.245C177.888 162.373 177.536 162.383 177.213 162.273Z" fill="#FBFF63"/>
<path d="M157.128 158.23L151.939 155.57C151.661 155.371 151.463 155.079 151.382 154.747C151.301 154.415 151.343 154.065 151.498 153.761C151.654 153.457 151.914 153.219 152.23 153.091C152.546 152.962 152.898 152.952 153.222 153.062L158.411 155.723C158.689 155.921 158.886 156.213 158.967 156.545C159.048 156.877 159.007 157.227 158.851 157.531C158.696 157.835 158.436 158.073 158.119 158.202C157.803 158.33 157.451 158.34 157.128 158.23Z" fill="#FBFF63"/>
<path d="M163.784 167.896L149.404 160.523C149.126 160.324 148.929 160.033 148.848 159.701C148.767 159.369 148.808 159.018 148.964 158.714C149.12 158.41 149.379 158.172 149.696 158.044C150.012 157.915 150.364 157.905 150.687 158.015L165.067 165.388C165.345 165.586 165.543 165.878 165.624 166.21C165.705 166.542 165.663 166.892 165.508 167.197C165.352 167.501 165.092 167.739 164.776 167.867C164.46 167.995 164.108 168.006 163.784 167.896Z" fill="#FBFF63"/>
<path d="M130.665 168.691L122.129 136.876L144.94 132.553L143.714 154.39L173.686 185.286C175.273 185.221 176.844 185.62 178.208 186.434C179.573 187.247 180.671 188.441 181.37 189.869C182.068 191.297 182.337 192.897 182.142 194.475C181.948 196.053 181.299 197.54 180.275 198.755C179.251 199.97 177.896 200.861 176.375 201.318C174.854 201.776 173.233 201.781 171.71 201.332C170.186 200.883 168.826 200 167.795 198.791C166.764 197.581 166.107 196.098 165.904 194.521L130.665 168.691Z" fill="#A0616A"/>
<path d="M119.795 101.205C112.052 107.325 121.99 141.555 121.99 141.555C123.528 139.864 125.316 164.849 127.197 163.998C132.542 161.58 142.34 153.243 146.117 153.922C148.277 154.311 146.014 137.396 146.014 137.396C146.014 137.396 145.597 127.698 144.815 115.23C144.659 111.701 143.614 108.269 141.777 105.253C139.94 102.237 137.37 99.7358 134.307 97.9817C134.307 97.9817 127.538 95.0855 119.795 101.205Z" fill="#3F3D56"/>
<path d="M248.631 239.306L228.012 229.558C227.571 229.351 227.182 229.046 226.876 228.667C226.569 228.288 226.352 227.845 226.241 227.37C226.129 226.905 226.124 226.421 226.226 225.954C226.328 225.488 226.534 225.05 226.829 224.674C232.801 217.032 236.903 208.095 238.804 198.58C238.947 197.851 239.339 197.195 239.912 196.723C240.485 196.251 241.203 195.993 241.945 195.992C252.461 196.028 260.321 199.872 265.305 207.417C265.567 207.809 265.742 208.254 265.815 208.721C265.888 209.187 265.859 209.665 265.729 210.119C262.843 220.076 258.452 229.533 252.708 238.16C252.282 238.812 251.634 239.288 250.884 239.498C250.135 239.709 249.334 239.641 248.631 239.306Z" fill="#E6E6E6"/>
<path d="M254.697 225.636L238.931 218.182C238.539 217.997 238.236 217.663 238.09 217.254C237.944 216.846 237.966 216.395 238.151 216.003C238.336 215.61 238.669 215.307 239.078 215.161C239.486 215.014 239.936 215.036 240.328 215.221L256.094 222.674C256.288 222.766 256.462 222.895 256.607 223.055C256.751 223.214 256.863 223.4 256.935 223.602C257.008 223.805 257.04 224.02 257.029 224.234C257.019 224.449 256.966 224.66 256.875 224.854C256.783 225.049 256.654 225.223 256.495 225.367C256.336 225.512 256.15 225.624 255.948 225.696C255.745 225.769 255.531 225.801 255.316 225.79C255.102 225.78 254.892 225.727 254.697 225.636Z" fill="white"/>
<path d="M257.146 220.442L241.38 212.989C240.988 212.804 240.686 212.47 240.539 212.061C240.393 211.652 240.415 211.202 240.6 210.809C240.785 210.417 241.119 210.114 241.527 209.967C241.935 209.821 242.385 209.842 242.777 210.028L258.543 217.481C258.935 217.666 259.238 218 259.384 218.409C259.531 218.818 259.509 219.268 259.324 219.661C259.139 220.053 258.805 220.356 258.397 220.503C257.989 220.649 257.539 220.628 257.146 220.442Z" fill="white"/>
<path d="M236.079 57.4423L234.612 57.6032C228.068 31.8607 215.385 14.0265 197.932 6.02842C175.744 -4.13857 148.309 2.68875 120.679 25.253C92.9081 47.9325 68.3239 83.7562 51.4553 126.127L50.0312 125.474C66.974 82.9187 91.6843 46.9219 119.61 24.1164C147.677 1.19557 175.672 -5.68182 198.44 4.75138C216.394 12.9787 229.409 31.1989 236.079 57.4423Z" fill="#F2F2F2"/>
<path d="M74.1673 90.9689C70.3293 99.063 66.6788 107.448 63.3171 115.892C43.9717 164.483 34.1684 214.107 34.9695 259.403L33.4575 259.241C32.6556 213.777 42.4872 163.982 61.8931 115.24C65.2645 106.772 68.9254 98.363 72.7744 90.2461L74.1673 90.9689Z" fill="#F2F2F2"/>
<path d="M73.4417 124.356C69.6038 132.45 65.9533 140.835 62.5915 149.279C43.2462 197.87 33.4428 247.494 34.2439 292.789L32.7319 292.628C31.93 247.164 41.7616 197.369 61.1675 148.627C64.5389 140.159 68.1998 131.75 72.0488 123.633L73.4417 124.356Z" fill="#F2F2F2"/>
<path d="M32.8046 136.499C34.476 133.984 33.4867 130.384 30.595 128.458C27.7034 126.532 24.0043 127.009 22.3329 129.524C20.6616 132.039 21.6508 135.639 24.5425 137.565C27.4342 139.491 31.1333 139.014 32.8046 136.499Z" fill="#CCCCCC"/>
<path d="M388.702 227.323C390.373 224.808 389.384 221.208 386.493 219.282C383.601 217.356 379.902 217.834 378.23 220.349C376.559 222.864 377.548 226.464 380.44 228.39C383.332 230.316 387.031 229.838 388.702 227.323Z" fill="#CCCCCC"/>
</g>
<defs>
<clipPath id="clip0_494_32248">
<rect width="468" height="380" fill="white"/>
</clipPath>
</defs>
</svg>
