<svg width="46" height="46" viewBox="0 0 46 46" fill="none" xmlns="http://www.w3.org/2000/svg">
<circle cx="23" cy="23" r="23" transform="rotate(-90 23 23)" fill="url(#paint0_linear_196_30112)"/>
<g clip-path="url(#clip0_196_30112)">
<path d="M15.9333 31.6874C15.462 32.6672 15.1645 33.3202 12.5422 33.4154C12.6176 30.8849 13.0998 30.6134 14.0654 30.1323C14.4708 29.9302 14.9756 29.6789 15.5212 29.2593L14.6081 28.0934C14.1768 28.4246 13.7801 28.5989 13.3964 28.7898C11.7877 29.5919 11.0295 30.382 11.0295 34.1489L11.0422 34.9154L11.7795 34.8989C15.7552 34.8989 16.4981 34.0008 17.2429 32.4539C17.406 32.1149 17.4967 31.8858 17.7716 31.429L16.6594 30.4188C16.326 30.8736 16.1179 31.3064 15.9334 31.6874H15.9333ZM27.5414 15.4075C25.8828 15.4075 24.5332 16.7571 24.5332 18.4154C24.5332 20.0744 25.8832 21.4237 27.5414 21.4237C29.1997 21.4237 30.5493 20.074 30.5493 18.4154C30.5493 16.7572 29.1993 15.4075 27.5414 15.4075ZM27.5414 19.9173C26.7134 19.9173 26.0396 19.2434 26.0396 18.4154C26.0396 17.5877 26.7134 16.9135 27.5414 16.9135C28.3694 16.9135 29.0433 17.5877 29.0433 18.4154C29.0429 19.2438 28.3694 19.9173 27.5414 19.9173ZM35.0138 11.6729C34.9909 11.2986 34.6944 10.9986 34.3201 10.9708C34.3201 10.9708 30.1227 10.6648 26.0847 12.1727C24.6095 12.7236 23.3952 13.5962 22.262 14.9181C21.317 16.0202 20.378 18.0126 19.5492 19.6667C19.229 20.3053 18.923 20.9162 18.6635 21.3827H14.4912C14.3852 21.3828 14.2804 21.4053 14.1837 21.4488C14.087 21.4923 14.0006 21.5558 13.9302 21.6351L11.1811 24.6149C11.0947 24.7123 11.0351 24.8305 11.0083 24.9579C10.9814 25.0854 10.9883 25.2176 11.0281 25.3416C11.1087 25.5944 11.3168 25.7856 11.5748 25.8441L16.0501 26.8675C16.3549 27.244 16.8631 27.8073 17.6761 28.7095L19.3714 30.589L20.2842 34.4496C20.3138 34.5748 20.3751 34.6903 20.4623 34.785C20.5494 34.8796 20.6595 34.9502 20.7818 34.99C20.8576 35.014 20.9359 35.0268 21.0139 35.0268C21.1931 35.0268 21.3663 34.9627 21.5022 34.846L24.2809 32.0819C24.3631 32.0115 24.4291 31.9242 24.4744 31.826C24.5196 31.7277 24.543 31.6208 24.5431 31.5126V27.6426C24.9166 27.4105 25.5788 27.0531 26.202 26.7044C27.9004 25.7553 30.4354 24.5736 31.4865 23.6391C32.9667 22.3236 33.5059 21.3591 34.0354 19.9334C35.2943 16.5423 35.0265 11.8702 35.0138 11.6729L35.0138 11.6729ZM32.6284 19.4109C32.1664 20.6548 31.7479 21.3991 30.4897 22.5178C29.5601 23.3435 27.018 24.5293 25.4696 25.3952C24.3139 26.0413 23.6216 26.4185 23.3182 26.6668C23.232 26.7371 23.1626 26.8257 23.1149 26.9261C23.0672 27.0266 23.0425 27.1365 23.0426 27.2477V31.1675L21.4601 32.9064L20.7862 30.0564C20.7572 29.9337 20.6976 29.8203 20.613 29.7268C19.2337 28.1983 17.1502 25.8876 16.9905 25.7042C16.8851 25.5763 16.7403 25.4869 16.5787 25.4499L13.143 24.6639L14.8282 22.8827H19.0946C19.2228 22.8827 19.3488 22.8499 19.4607 22.7873C19.5726 22.7247 19.6665 22.6345 19.7336 22.5253C20.0636 21.9879 20.4465 21.2237 20.8901 20.3387C21.6412 18.8398 22.5757 16.8572 23.4007 15.8942C24.3753 14.7568 25.3653 14.0424 26.6092 13.5774C29.3771 12.5432 32.2335 12.4344 33.5392 12.4442C33.5636 13.8272 33.5115 17.0338 32.6284 19.4109V19.4109Z" fill="white"/>
</g>
<defs>
<linearGradient id="paint0_linear_196_30112" x1="23" y1="-1.90735e-06" x2="23" y2="46" gradientUnits="userSpaceOnUse">
<stop stop-color="#9333EA"/>
<stop offset="0.484285" stop-color="#DB2777"/>
<stop offset="0.653846" stop-color="#9333EA"/>
<stop offset="1" stop-color="#3C83F6"/>
</linearGradient>
<clipPath id="clip0_196_30112">
<rect width="24" height="24" fill="white" transform="translate(11.0156 10.9844)"/>
</clipPath>
</defs>
</svg>
