<svg width="50" height="56" viewBox="0 0 50 56" fill="none" xmlns="http://www.w3.org/2000/svg">
<path d="M9.875 15.625C9.875 11.6136 11.4685 7.7665 14.305 4.93001C17.1415 2.09352 20.9886 0.5 25 0.5C29.0114 0.5 32.8585 2.09352 35.695 4.93001C38.5315 7.7665 40.125 11.6136 40.125 15.625C40.125 19.6364 38.5315 23.4835 35.695 26.32C32.8585 29.1565 29.0114 30.75 25 30.75C20.9886 30.75 17.1415 29.1565 14.305 26.32C11.4685 23.4835 9.875 19.6364 9.875 15.625ZM0.25 47.25C0.25 43.6033 1.69866 40.1059 4.27728 37.5273C6.85591 34.9487 10.3533 33.5 14 33.5H36C39.6467 33.5 43.1441 34.9487 45.7227 37.5273C48.3013 40.1059 49.75 43.6033 49.75 47.25V55.5H0.25V47.25Z" fill="#9333EA"/>
</svg>
