<svg width="66" height="66" viewBox="0 0 66 66" fill="none" xmlns="http://www.w3.org/2000/svg">
<path fill-rule="evenodd" clip-rule="evenodd" d="M14.3225 35.4229C17.7073 35.4229 20.9225 34.5224 23.6615 32.9102C26.3958 34.5224 29.6156 35.4229 32.9958 35.4229C36.3853 35.4229 39.5958 34.5224 42.3395 32.9102C44.967 34.4409 47.9308 35.3014 50.9696 35.4157C54.0083 35.5299 57.0284 34.8945 59.7635 33.5654V54.8552C59.7639 57.0864 58.9731 59.2455 57.5316 60.9486C56.09 62.6516 54.0913 63.7883 51.8906 64.1564V47.1426C51.8906 45.8923 51.3939 44.6932 50.5098 43.8091C49.6257 42.925 48.4266 42.4283 47.1763 42.4283H42.462C41.2117 42.4283 40.0126 42.925 39.1285 43.8091C38.2444 44.6932 37.7478 45.8923 37.7478 47.1426V64.2837H15.6708C13.1701 64.2837 10.772 63.2904 9.00375 61.5222C7.23555 59.754 6.24219 57.3558 6.24219 54.8552V33.5654C8.75906 34.7917 11.5228 35.427 14.3225 35.4229ZM14.181 42.4283C13.5559 42.4283 12.9563 42.6766 12.5143 43.1187C12.0722 43.5607 11.8239 44.1603 11.8239 44.7854V51.8569C11.8239 52.482 12.0722 53.0816 12.5143 53.5236C12.9563 53.9657 13.5559 54.214 14.181 54.214H28.3239C28.9491 54.214 29.5486 53.9657 29.9907 53.5236C30.4327 53.0816 30.681 52.482 30.681 51.8569V44.7854C30.681 44.1603 30.4327 43.5607 29.9907 43.1187C29.5486 42.6766 28.9491 42.4283 28.3239 42.4283H14.181Z" fill="#DB2777"/>
<path d="M14.3222 29.5294C18.1407 29.5294 21.535 27.8699 23.6612 25.3006C25.792 27.8699 29.1769 29.5294 32.9954 29.5294C36.814 29.5294 40.2083 27.8699 42.3392 25.3006C44.4653 27.8699 47.8549 29.5294 51.6734 29.5294C58.1226 29.5294 63.346 24.7915 63.346 18.9505C63.346 16.1266 61.0124 7.34393 51.6734 3.95908C37.1864 1.93193 29.0072 1.91308 14.3222 3.95908C4.98787 7.34393 2.6543 16.1266 2.6543 18.9505C2.6543 24.7962 7.87773 29.5294 14.3222 29.5294Z" fill="#DB2777"/>
</svg>
